<mxfile host="65bd71144e">
    <diagram id="5hlvBoC2fMNY72NCCFTG" name="ページ1">
        <mxGraphModel dx="1076" dy="556" grid="0" gridSize="10" guides="1" tooltips="1" connect="1" arrows="1" fold="1" page="1" pageScale="1" pageWidth="850" pageHeight="1100" math="0" shadow="0">
            <root>
                <mxCell id="0"/>
                <mxCell id="1" parent="0"/>
                <mxCell id="2" value="" style="rounded=0;whiteSpace=wrap;html=1;" vertex="1" parent="1">
                    <mxGeometry x="40" y="80" width="360" height="180" as="geometry"/>
                </mxCell>
                <mxCell id="3" value="" style="shape=image;verticalLabelPosition=bottom;verticalAlign=top;imageAspect=0;aspect=fixed;image=data:image/webp,UklGRiQgAABXRUJQVlA4WAoAAAAwAAAAfwAAfwAASUNDUEgMAAAAAAxITGlubwIQAABtbnRyUkdCIFhZWiAHzgACAAkABgAxAABhY3NwTVNGVAAAAABJRUMgc1JHQgAAAAAAAAAAAAAAAAAA9tYAAQAAAADTLUhQICAAAAAAAAAAAAAAAAAAAAAAAAAAAAAAAAAAAAAAAAAAAAAAAAAAAAAAAAAAAAAAABFjcHJ0AAABUAAAADNkZXNjAAABhAAAAGx3dHB0AAAB8AAAABRia3B0AAACBAAAABRyWFlaAAACGAAAABRnWFlaAAACLAAAABRiWFlaAAACQAAAABRkbW5kAAACVAAAAHBkbWRkAAACxAAAAIh2dWVkAAADTAAAAIZ2aWV3AAAD1AAAACRsdW1pAAAD+AAAABRtZWFzAAAEDAAAACR0ZWNoAAAEMAAAAAxyVFJDAAAEPAAACAxnVFJDAAAEPAAACAxiVFJDAAAEPAAACAx0ZXh0AAAAAENvcHlyaWdodCAoYykgMTk5OCBIZXdsZXR0LVBhY2thcmQgQ29tcGFueQAAZGVzYwAAAAAAAAASc1JHQiBJRUM2MTk2Ni0yLjEAAAAAAAAAAAAAABJzUkdCIElFQzYxOTY2LTIuMQAAAAAAAAAAAAAAAAAAAAAAAAAAAAAAAAAAAAAAAAAAAAAAAAAAAAAAAAAAAAAAAAAAWFlaIAAAAAAAAPNRAAEAAAABFsxYWVogAAAAAAAAAAAAAAAAAAAAAFhZWiAAAAAAAABvogAAOPUAAAOQWFlaIAAAAAAAAGKZAAC3hQAAGNpYWVogAAAAAAAAJKAAAA+EAAC2z2Rlc2MAAAAAAAAAFklFQyBodHRwOi8vd3d3LmllYy5jaAAAAAAAAAAAAAAAFklFQyBodHRwOi8vd3d3LmllYy5jaAAAAAAAAAAAAAAAAAAAAAAAAAAAAAAAAAAAAAAAAAAAAAAAAAAAAAAAAAAAAABkZXNjAAAAAAAAAC5JRUMgNjE5NjYtMi4xIERlZmF1bHQgUkdCIGNvbG91ciBzcGFjZSAtIHNSR0IAAAAAAAAAAAAAAC5JRUMgNjE5NjYtMi4xIERlZmF1bHQgUkdCIGNvbG91ciBzcGFjZSAtIHNSR0IAAAAAAAAAAAAAAAAAAAAAAAAAAAAAZGVzYwAAAAAAAAAsUmVmZXJlbmNlIFZpZXdpbmcgQ29uZGl0aW9uIGluIElFQzYxOTY2LTIuMQAAAAAAAAAAAAAALFJlZmVyZW5jZSBWaWV3aW5nIENvbmRpdGlvbiBpbiBJRUM2MTk2Ni0yLjEAAAAAAAAAAAAAAAAAAAAAAAAAAAAAAAAAAHZpZXcAAAAAABOk/gAUXy4AEM8UAAPtzAAEEwsAA1yeAAAAAVhZWiAAAAAAAEwJVgBQAAAAVx/nbWVhcwAAAAAAAAABAAAAAAAAAAAAAAAAAAAAAAAAAo8AAAACc2lnIAAAAABDUlQgY3VydgAAAAAAAAQAAAAABQAKAA8AFAAZAB4AIwAoAC0AMgA3ADsAQABFAEoATwBUAFkAXgBjAGgAbQByAHcAfACBAIYAiwCQAJUAmgCfAKQAqQCuALIAtwC8AMEAxgDLANAA1QDbAOAA5QDrAPAA9gD7AQEBBwENARMBGQEfASUBKwEyATgBPgFFAUwBUgFZAWABZwFuAXUBfAGDAYsBkgGaAaEBqQGxAbkBwQHJAdEB2QHhAekB8gH6AgMCDAIUAh0CJgIvAjgCQQJLAlQCXQJnAnECegKEAo4CmAKiAqwCtgLBAssC1QLgAusC9QMAAwsDFgMhAy0DOANDA08DWgNmA3IDfgOKA5YDogOuA7oDxwPTA+AD7AP5BAYEEwQgBC0EOwRIBFUEYwRxBH4EjASaBKgEtgTEBNME4QTwBP4FDQUcBSsFOgVJBVgFZwV3BYYFlgWmBbUFxQXVBeUF9gYGBhYGJwY3BkgGWQZqBnsGjAadBq8GwAbRBuMG9QcHBxkHKwc9B08HYQd0B4YHmQesB78H0gflB/gICwgfCDIIRghaCG4IggiWCKoIvgjSCOcI+wkQCSUJOglPCWQJeQmPCaQJugnPCeUJ+woRCicKPQpUCmoKgQqYCq4KxQrcCvMLCwsiCzkLUQtpC4ALmAuwC8gL4Qv5DBIMKgxDDFwMdQyODKcMwAzZDPMNDQ0mDUANWg10DY4NqQ3DDd4N+A4TDi4OSQ5kDn8Omw62DtIO7g8JDyUPQQ9eD3oPlg+zD88P7BAJECYQQxBhEH4QmxC5ENcQ9RETETERTxFtEYwRqhHJEegSBxImEkUSZBKEEqMSwxLjEwMTIxNDE2MTgxOkE8UT5RQGFCcUSRRqFIsUrRTOFPAVEhU0FVYVeBWbFb0V4BYDFiYWSRZsFo8WshbWFvoXHRdBF2UXiReuF9IX9xgbGEAYZRiKGK8Y1Rj6GSAZRRlrGZEZtxndGgQaKhpRGncanhrFGuwbFBs7G2MbihuyG9ocAhwqHFIcexyjHMwc9R0eHUcdcB2ZHcMd7B4WHkAeah6UHr4e6R8THz4faR+UH78f6iAVIEEgbCCYIMQg8CEcIUghdSGhIc4h+yInIlUigiKvIt0jCiM4I2YjlCPCI/AkHyRNJHwkqyTaJQklOCVoJZclxyX3JicmVyaHJrcm6CcYJ0kneierJ9woDSg/KHEooijUKQYpOClrKZ0p0CoCKjUqaCqbKs8rAis2K2krnSvRLAUsOSxuLKIs1y0MLUEtdi2rLeEuFi5MLoIuty7uLyQvWi+RL8cv/jA1MGwwpDDbMRIxSjGCMbox8jIqMmMymzLUMw0zRjN/M7gz8TQrNGU0njTYNRM1TTWHNcI1/TY3NnI2rjbpNyQ3YDecN9c4FDhQOIw4yDkFOUI5fzm8Ofk6Njp0OrI67zstO2s7qjvoPCc8ZTykPOM9Ij1hPaE94D4gPmA+oD7gPyE/YT+iP+JAI0BkQKZA50EpQWpBrEHuQjBCckK1QvdDOkN9Q8BEA0RHRIpEzkUSRVVFmkXeRiJGZ0arRvBHNUd7R8BIBUhLSJFI10kdSWNJqUnwSjdKfUrESwxLU0uaS+JMKkxyTLpNAk1KTZNN3E4lTm5Ot08AT0lPk0/dUCdQcVC7UQZRUFGbUeZSMVJ8UsdTE1NfU6pT9lRCVI9U21UoVXVVwlYPVlxWqVb3V0RXklfgWC9YfVjLWRpZaVm4WgdaVlqmWvVbRVuVW+VcNVyGXNZdJ114XcleGl5sXr1fD19hX7NgBWBXYKpg/GFPYaJh9WJJYpxi8GNDY5dj62RAZJRk6WU9ZZJl52Y9ZpJm6Gc9Z5Nn6Wg/aJZo7GlDaZpp8WpIap9q92tPa6dr/2xXbK9tCG1gbbluEm5rbsRvHm94b9FwK3CGcOBxOnGVcfByS3KmcwFzXXO4dBR0cHTMdSh1hXXhdj52m3b4d1Z3s3gReG54zHkqeYl553pGeqV7BHtje8J8IXyBfOF9QX2hfgF+Yn7CfyN/hH/lgEeAqIEKgWuBzYIwgpKC9INXg7qEHYSAhOOFR4Wrhg6GcobXhzuHn4gEiGmIzokziZmJ/opkisqLMIuWi/yMY4zKjTGNmI3/jmaOzo82j56QBpBukNaRP5GokhGSepLjk02TtpQglIqU9JVflcmWNJaflwqXdZfgmEyYuJkkmZCZ/JpomtWbQpuvnByciZz3nWSd0p5Anq6fHZ+Ln/qgaaDYoUehtqImopajBqN2o+akVqTHpTilqaYapoum/adup+CoUqjEqTepqaocqo+rAqt1q+msXKzQrUStuK4trqGvFq+LsACwdbDqsWCx1rJLssKzOLOutCW0nLUTtYq2AbZ5tvC3aLfguFm40blKucK6O7q1uy67p7whvJu9Fb2Pvgq+hL7/v3q/9cBwwOzBZ8Hjwl/C28NYw9TEUcTOxUvFyMZGxsPHQce/yD3IvMk6ybnKOMq3yzbLtsw1zLXNNc21zjbOts83z7jQOdC60TzRvtI/0sHTRNPG1EnUy9VO1dHWVdbY11zX4Nhk2OjZbNnx2nba+9uA3AXcit0Q3ZbeHN6i3ynfr+A24L3hROHM4lPi2+Nj4+vkc+T85YTmDeaW5x/nqegy6LzpRunQ6lvq5etw6/vshu0R7ZzuKO6070DvzPBY8OXxcvH/8ozzGfOn9DT0wvVQ9d72bfb794r4Gfio+Tj5x/pX+uf7d/wH/Jj9Kf26/kv+3P9t//9BTFBInAUAAAHwhW3b4eb//93Vy7Zt27Zt23693++XzaW3bdv2TFAG1aPaTGM2mGOhbTKZua/1iJgA5epzv7cxO9/7/hFK6EvaWd36y6kSXdJJ1f85XZiGG8Os7Dc9Hs8MK/9+hiCNt/QClP1DrLTC3az81zlCNF4bBqi0jVJlXxcr/dcK0HjrBoCif4wa+7ssAP+1mmu8dRNA0T+OjQNtFkDrtRpruW8AYNk/gc0DnRZA960Nemq5bwhg2TtLHYf8ZYCeWxv0s9l9wwAF7xx1HvKXAfrua9TLZo9NAWQ8Czhw0lsC6L+vSR+bPzYNkPEs4NBJbwlg/X1Netj6+RmAjGcRB095CgAjjzW7b5vn5wDSZgyHT3vyAKOPNbtrm+fnAVJmHBfOeHIAY89v7p5tX4kCRM0ELo2YOYCJ57dwx3avxACiZhIXR8wswOTzWzpv53fjAEtmCpdHzRTAwitbOmuXdxMAETOLBqNmEmDhla2cs+u7SYBFM4cmY2YCIPLuds7Y7dMswIwnj0bTZhwg8u729dvrq3mAyf8V0GymPQ6w9ObWdXo8ATBuFtFwpjUKMHZpXT4EGPOX0HTWjAClW+pwP5A3S2g86bOgeIJtO0UgF0bzHqC9wa5ngVa0bwJn2OWBIPrPzMHnbdpiGToFwISwTWdDpiDBAJS2tuczEEZCKw4X2PM7MEQgCK/ZMw1dMpjwZ1v2BysqQxAiDXbcAaPImKrAIXZ8CXxCMAz32dEFXil88A0btlyGQUF6bDgH0mUpRqC8XW2fhRBSWjG4qLbfgyEGAXijthkIyGHAX2s6AKyYHCFYaqjlThhBznQZDqvly+AThCG4v5YAeCXxwjdr2HIZhiTxQ28N50KqLMkoVLar7nMQQlIrCpdU9wcwRKEL3qpuDgKyGPD3qg4EKyZLGOKN1dwFI8iaLsMR1XwFfMIwAA9WEwSvNF74dhVbFmFIGj/0V3EeJCvSjENl+7VegSDSWktw6Vp/BEMcuuDtteYgKI8B/1jjILDi8nRDvHG1u2EYeTMlOHK1r4JXIDbBw6uFhPLAd1fZqgTDEvlh/SrnQ6Ii0ThYO654FQKIvAiXr/gTGDJ1wrsr5iEokwH/UkodDJW4TD2QbFTqHhhE5mwJjlbqa+AVio3wiFJhwTzwPbV1CYal8sMGdQEkKlJNgrXTaxBA7AW44k9gyBWE94bAI5cPfpUHUy4v+OJgyBWC//RCn1jZDHzv81AZksoP3HGcBR1CZWYgvrX6BeCVyQs8rdQuk5BfL1EbYDYppU4rwExUnoEszO2lVj4JhMrSxCegeK5a/fuAIYzVATyr1twiBFaHLAbwC1XlAUsQn5AkVIaN21ajrqnAQFaOmSikjlTVfwD4xShsAOsWVWPjPwCPFF7gU1XzTqNQ6JHBD/y/uTZ1Qg5mliQYyMHcnsrOx4BQWX/xSSieo+z9HmBorxIAnlY2bxEEq113BvBzZfv+EUiM6C1Uhr6t7VOXlmEwq7PpKKSOUPV8F2jVWH4DWDerujb+HfDoywd8rOq84wgUe3XlBf7fVC91fA5m5/W0KQdTu6r63wt0l3QUm4Ti2cqJ3wEMDVUCwJPKkZsHwGrTjwH8TDl0vwikR3TTVYG+rZyiLi7DYFov01FIHaGc+zbQqpX8BrBuUg5u+ANg6sQHfKgcveMwFHv14QH+1+QsdVwWFhZ0sa4Ak7sqp98NhIt6iE1C8Szl/G8ChhYqAeBx5cKWVrDadGAAP1Wu3HcRMsPu66pA71buUBeVYTTltqkoxA9Wbn0D8Fnuym8E60bl2obfAaa7fMD7ysU7DEEx7CYT+Fejm9TxWcj0usdrwfguyt33AkUj7Y7ZVqBwqnL7VwGyrYa/zdH/+49hhMoAjyjXN/0EV7+uNNj0Wt49C7crPe7/djDmAmvm/0/toJwIVlA4IBIOAAAwPgCdASqAAIAAPjEUiUMiISEUyN58IAMEtgBmotC/mevKv50j8l/597w1ffkH8R/I/7q/5fp1TT+mvuj+z/uv48fRH+7f0n2I/nf2Cf0o/yHUA8wH83/sH7D+7x/cf8p/L/cP+vX6c/275AP6V/kOsf9AD+I/2H0tP2Z/+PyVfsl+5fwJ/zz/Bf97rAP/v1h/TX+Ydo386/Ij9t+2j8XevPmq+NXpDxL/XH7Z/Xv3I/sn7c/Bf+H8FfhLqBfhX8d/vv5gflzx7ea+YF7B/WP839vnOx9VfYA/Vr/X+rP/A8EXjd9oH2Afyb+t/5/7ovpa/hP+h/jvyy9pv5t/df+B/kvgE/l39P/3v979nT11fsX/9PdC/Xhwbtwfc4vkNKOJpfnujH+HnFZXkub9TcY/39DcEWgD1tn2Rwff6vl4ciZG2oSAq6W+ft05qlzyhIRYVD1ZfK3fznbO4VS+iwXNZbkTcazKFwl4qnBd2mvr38CZz5cyMrAj2pP8ESvWreHCkr5KD6pjKugWYgRNeiSWK/g2+toDYdyBILOJVxIgh98Ck9T6bZMzS1qOWgaMyg6m5al9mnPPaf5N95Skb334QUonoHnSRjAQGUSX4vcneY9LD4PvcmR9NFagWr9Exow0QBRLhWxu5kNZMrHTVTihRWzyiGmy4rPS3AD+/2Aad//m4Bp//bt6icg7RK3Vm693ntHOBrLY5h7hDW0sC9cGxEibW3Y57+yJf30XbJWTcCQSwZvpsnuFVtR6wLmhadWd8IcPcIx1FuVxhBE1Nl3Sf3mO8GXt08KDvdZ2WimFZ1YHFqi2ncVvb4ZkmtJ7+VzcCQTObwwSQV9Ty0An1RvXPyTE6MmeEZAF0DAGQnk4jwp8rxuWtARNXzqzOKh9nOsH7MhRmdEVqwNjaE2pB/hdygjuhByXn8SEJ0xiX/TG1V0rukC9TevhDijAiNCct5JQYXKcrpwWHe1o/xS8TwqykDXljwVfq9/Ae2reZWmHeV48v3BdiX+IYl2OEsLUH5Cf/w/swTyX/t3whFtx3fQ2NThwcew7cGFqsQYHV7kGZQGBnAtHrvRaEAWcvs0/YDSxJ0nhDh32DvMLqAAN+MCwsGZeyabet37Zvbwhi//cRmKnx6OMyLhglETc03wUh6K32k9dbprB8EEoOqwlEhF25Wgtqi6rMD7rlXYSw43RlSxen9n67IR1hU+RSRqelvojBqU6yvM+Khsd7OMZaczmQ14EAQMSIQla/SPD+FETYZg5syoTJ3b15sYe7rjCpVKfDFbEeERYT+QYtIQ98Jn7skVmtV9NvPy4i1bCNmuCvfKiElf0Ui34M+HIMdf8JZrViit9ajMAACTkGfJi/hweE50ScNbM8jhYarhwq7FTf9uY+6CiObtA2rxR9CO8/xRsHkxyaXfUqwGrhl22b7ijVsDN1oIALyGD7Z//bwZ7X+PabkyfuLCsy8tVhPpICAD/de/TeZ0QqqJrhn7OkdcIvyVB7PzFQdFPYoJg0AxHvXOr7hnQCxsuMpBwM6nEo5ICbrBtv/d7RTq2r6daMvFzqtie745zIDfrYgjwdSpKE8ipgXz5Cgg//4OHob85rdh4QE8vajJoshtPiSk7LH897lF1ENfC+yPXc3JWqrfcMcYTqvsChDmjzEyEmH9qOx5ZOHOX1J9jn2BGwt6CmlxM62nLngHnyx3jrOUZPP2Hnw07Vj1mI+ZCrZvk1aDLydIReYvwAZzk5/FIyRT7w+MwH/seBw94ONNgc8Qtxhf8IlzuKjtKzVoShRAIbA9288rhyabhPqJDH5HUhqRJDiMF/6dzXQaUSTKtMM3zz6yoOCYA9oJRQxEM2QNE1KJnzDUP5tkodrfztKbzqmoN92qrx7oWr+xRIITbffuJljDHX85RRe6jWXXI6EExTyfWJPuo21oT/aNghALGfzPlMlLh94nRB8jsmAPCy2sf3oMgVN1cgbqEkqeV/ZEgLLOa6oHBM7h2OJh/8ISReC7nhSRKcYbZDjO2gNifFV79d6gsofc14O+JupbGIvGqZD946vZPeZwjfof1mWTrTYW2ZbfKQKdXO30AeX/mW+MUpHjpQNqQAISqS3WC1MYL76u9stKdCOZJBf2/PzwTD4heGONxi2nhn9MwusCVahLxeAqWvvOGGOeMEbtUh2fuFsUhEjWMLc6KI3MdUh5ks3v4bVPCDpYVyRUWXrI2SZKADzQwVsnnxmFY9MM6QHKiY90s7RrYCGj4Lqn67V6S4yV0CcZvBxv3kU3ehyd4B7XEAMEsdrjb4ZjQJIiC2doNT/Cflzw7zVv9sBgnrIDwP+dmN7lqoSJkIM7xrwCSWys06JeHEJ2ciUv9FHN/f4mN1etxNGSpJ80BC8OdWUwuUT8m0W18CH/rzeH5F2SOprYmJnK4uQwWQikdSKFRTgq3/kM2Ye6AVh0f+ap+4pqpTvyviskGT9EEYvEk6D6Vibl9XX5HPlhOatHTOxFMW3Iw2gyUMiHk2L+Rqqylr+K8P5MzYrSDWkafdkU3uPO6di5SvnEKvuT1xyjpCSJmQbb2JQ5Ko9Xwloddp/kpF4ECqMiugCBj2sviFAXuDyoEl38dk2bDTEgCSvU3Nkyz/o3w52/iq8SpvxX3MZZBfF4JaQPB2njhU89AKKXSxBCOwlCwJOPQRQzAHarx6txJZInSz8MYklUi7vCpJuZb/Mq8+BPBpoekAOk8whygMSdx4hon5NHd2rCYrygqef7jHb4mITtm8AZqadDNEqcpr8Cxu3g+r8lT3s9BQ8foQBVDuneyIc5vaky/xWdxbpLSGHsp0JRXGJaeo43JEBqfXeV4McUwhFqICspkseeStdaq461LxfbxycK4s5+HlPF6YeIK5lOLAwNoay6luZMEwLTsDZBs+b9Ojtdct/SGIE0OcsRl01foqe9BNUyKvaimqkpgglSExNHj/5ijvwVWR0VVSfgfQSql2EZOpBRU8q7i7w6dViKJLZ6qt8U2CZRUidrjGaQuyoyzVcZ3pp5PyZTn6GXBEomspZIlB7o7JRJ3dUrWH7gCWYJ5dKLS/M8XOAEPJkpyhNQV9J9e1ni56QQXxQlUVMZdxtpe7jo35DiFlLZ49MQUulvIvR/7EscI5BpFkbWVburdfKFhj9fOfI8wzYJl9lsYhvHOR7T4AziuzSo/MAZd6rOxcrmcVTsWOCjwEHoljOKG33akt9WdhaAngQqN6ss9oFva2jyScZhnXD1RlXEW8gKHyObW+5kaAIT55lMloE7VA6fYFmacHsbeeBMp40gvkc0KI7Zxs0I1xayJP1jj8Ijbu1h1an2kCA9M9Bnsz9/4sMquFFD10y65zkVaaAssf+3nSRNtfWLTBvOUU2M5RSJo+WapelGB+sXWrEmnAXTBXL5YozOk8IjaAXLdE9IkoH5OMZN+FfN0Cx3Sg25qBFvWWBxQrEugTdVIiR4iDHIbW2fM80x423vrKnXV8WFVPSzRgvNo6gfclKtLcg5D6YcufUWYvh0pn//icIb+0PXMw7lcT1auA1oAH6/gH36u9h9+Lr396GMQZVxahJk7uaIoMwj4trvWjlFBfbrCYQbUAD8RqpEn7ofXk23UGAZ5nersKxbHzVt+HPSPUg2rJ03CW2QwHi8+7PYwzHVYfksCsy+LX+TcGdG7O4ITAmHg0hS6zWTBI9itrl83y1ukUovMINnREA/3H5QqO514521x6aBxfMjKmRBb///WhAEzej5EH/6pC5ZrrHQU/Dae7NGDktLg+qH+153phVUsv+tKJEZrAZ//DMC/eju+KzxsIkGwlLoTSap5lqx5JTlv4OdwXfm4wRa5WOFXv/nW45CLkplh8cFrl83XkiTRaJor+tbs7X4lCBk9yZBAvTbZypOGIj4eKzw0o3E/A3A/2mCH/hPkFuJSbzfsaq6tp57cU6xTvbJvtizxt2L0Z0SuJZwM/wl7BznYeL267/b/2uuvoCHu8oQtB1IJ4sb7b1scxLYProUqc/FKDtNB68jn51jAsc2Nq4PlfQXVnQQcxTED9HlMEljRhAkLAY+//M0EuTeG8H+/ERoEihcrs764CgDOH1AI/CGvvK9bwGxIFT8f6/eD3WDec3Xb2zkmaZlemqKANclaD3EwU44gqepW1IQvFylGbaNB+jJfCO4ZbQhNVi6383bnn425GHh2yJmVUFz2YRwnYCMf8S4dD26UFW9VkyyGjUZ9pnpiATRUYyEX24+7CS6MJntkrN8iOknRV3o90JhaUs6dQrltZGaXjJmsIET3calvO59zovZzpMtlKa3Sl5MOt6KAuDvgNtyYcrfKN5JetGB0Sbx87zjzLu2C1yGXHwn0QcLgfJIBDPwFyE07YXnu+6ntU5OiesfIXrm377z4EATXZ3zInP1l1EFkmbkoDreRZ+SdXc39d7kwwEf98CZR0mm+SAlzWPXRCjvKETQ40lmSnCn2+KUBz2PChgRiVzbOMisU5noVmNXgs5u6uJwQPKWxUwxQMstDG029+/P78KbtPC11Uh04UQOSiLnf/x9rf7v9SAaBZU6l/2eu2+VOvSyIcZirU/246ZVf6OfZO5tiqY/EDyph7nqIhg54Gza3OQOAMIsDGeOhw6qDbF7hXwqFD/QK3fboeRaDgfrO1TfSjDl6qBtoqnZZvwVqxxIYPrWryCVm6EvYjSNCzX6YINlf5HcDysb38FnN3aDxR8r7BzWvyZ6IMiN2nUd09Erz/eba4ss1Nkz1OQjdwnu0aO8IkWWr4sa7Bapqd47LdqeWJHKHT4bbAVd6F1z+niB8E7sAte7QAAAAAA==" vertex="1" parent="1">
                    <mxGeometry x="60" y="167" width="50" height="50" as="geometry"/>
                </mxCell>
                <mxCell id="4" value="" style="endArrow=none;dashed=1;html=1;dashPattern=1 3;strokeWidth=2;" edge="1" parent="1">
                    <mxGeometry width="50" height="50" relative="1" as="geometry">
                        <mxPoint x="187" y="191.5" as="sourcePoint"/>
                        <mxPoint x="247" y="191.5" as="targetPoint"/>
                    </mxGeometry>
                </mxCell>
                <mxCell id="5" value="" style="shape=image;verticalLabelPosition=bottom;verticalAlign=top;imageAspect=0;aspect=fixed;image=data:image/webp,UklGRiQgAABXRUJQVlA4WAoAAAAwAAAAfwAAfwAASUNDUEgMAAAAAAxITGlubwIQAABtbnRyUkdCIFhZWiAHzgACAAkABgAxAABhY3NwTVNGVAAAAABJRUMgc1JHQgAAAAAAAAAAAAAAAAAA9tYAAQAAAADTLUhQICAAAAAAAAAAAAAAAAAAAAAAAAAAAAAAAAAAAAAAAAAAAAAAAAAAAAAAAAAAAAAAABFjcHJ0AAABUAAAADNkZXNjAAABhAAAAGx3dHB0AAAB8AAAABRia3B0AAACBAAAABRyWFlaAAACGAAAABRnWFlaAAACLAAAABRiWFlaAAACQAAAABRkbW5kAAACVAAAAHBkbWRkAAACxAAAAIh2dWVkAAADTAAAAIZ2aWV3AAAD1AAAACRsdW1pAAAD+AAAABRtZWFzAAAEDAAAACR0ZWNoAAAEMAAAAAxyVFJDAAAEPAAACAxnVFJDAAAEPAAACAxiVFJDAAAEPAAACAx0ZXh0AAAAAENvcHlyaWdodCAoYykgMTk5OCBIZXdsZXR0LVBhY2thcmQgQ29tcGFueQAAZGVzYwAAAAAAAAASc1JHQiBJRUM2MTk2Ni0yLjEAAAAAAAAAAAAAABJzUkdCIElFQzYxOTY2LTIuMQAAAAAAAAAAAAAAAAAAAAAAAAAAAAAAAAAAAAAAAAAAAAAAAAAAAAAAAAAAAAAAAAAAWFlaIAAAAAAAAPNRAAEAAAABFsxYWVogAAAAAAAAAAAAAAAAAAAAAFhZWiAAAAAAAABvogAAOPUAAAOQWFlaIAAAAAAAAGKZAAC3hQAAGNpYWVogAAAAAAAAJKAAAA+EAAC2z2Rlc2MAAAAAAAAAFklFQyBodHRwOi8vd3d3LmllYy5jaAAAAAAAAAAAAAAAFklFQyBodHRwOi8vd3d3LmllYy5jaAAAAAAAAAAAAAAAAAAAAAAAAAAAAAAAAAAAAAAAAAAAAAAAAAAAAAAAAAAAAABkZXNjAAAAAAAAAC5JRUMgNjE5NjYtMi4xIERlZmF1bHQgUkdCIGNvbG91ciBzcGFjZSAtIHNSR0IAAAAAAAAAAAAAAC5JRUMgNjE5NjYtMi4xIERlZmF1bHQgUkdCIGNvbG91ciBzcGFjZSAtIHNSR0IAAAAAAAAAAAAAAAAAAAAAAAAAAAAAZGVzYwAAAAAAAAAsUmVmZXJlbmNlIFZpZXdpbmcgQ29uZGl0aW9uIGluIElFQzYxOTY2LTIuMQAAAAAAAAAAAAAALFJlZmVyZW5jZSBWaWV3aW5nIENvbmRpdGlvbiBpbiBJRUM2MTk2Ni0yLjEAAAAAAAAAAAAAAAAAAAAAAAAAAAAAAAAAAHZpZXcAAAAAABOk/gAUXy4AEM8UAAPtzAAEEwsAA1yeAAAAAVhZWiAAAAAAAEwJVgBQAAAAVx/nbWVhcwAAAAAAAAABAAAAAAAAAAAAAAAAAAAAAAAAAo8AAAACc2lnIAAAAABDUlQgY3VydgAAAAAAAAQAAAAABQAKAA8AFAAZAB4AIwAoAC0AMgA3ADsAQABFAEoATwBUAFkAXgBjAGgAbQByAHcAfACBAIYAiwCQAJUAmgCfAKQAqQCuALIAtwC8AMEAxgDLANAA1QDbAOAA5QDrAPAA9gD7AQEBBwENARMBGQEfASUBKwEyATgBPgFFAUwBUgFZAWABZwFuAXUBfAGDAYsBkgGaAaEBqQGxAbkBwQHJAdEB2QHhAekB8gH6AgMCDAIUAh0CJgIvAjgCQQJLAlQCXQJnAnECegKEAo4CmAKiAqwCtgLBAssC1QLgAusC9QMAAwsDFgMhAy0DOANDA08DWgNmA3IDfgOKA5YDogOuA7oDxwPTA+AD7AP5BAYEEwQgBC0EOwRIBFUEYwRxBH4EjASaBKgEtgTEBNME4QTwBP4FDQUcBSsFOgVJBVgFZwV3BYYFlgWmBbUFxQXVBeUF9gYGBhYGJwY3BkgGWQZqBnsGjAadBq8GwAbRBuMG9QcHBxkHKwc9B08HYQd0B4YHmQesB78H0gflB/gICwgfCDIIRghaCG4IggiWCKoIvgjSCOcI+wkQCSUJOglPCWQJeQmPCaQJugnPCeUJ+woRCicKPQpUCmoKgQqYCq4KxQrcCvMLCwsiCzkLUQtpC4ALmAuwC8gL4Qv5DBIMKgxDDFwMdQyODKcMwAzZDPMNDQ0mDUANWg10DY4NqQ3DDd4N+A4TDi4OSQ5kDn8Omw62DtIO7g8JDyUPQQ9eD3oPlg+zD88P7BAJECYQQxBhEH4QmxC5ENcQ9RETETERTxFtEYwRqhHJEegSBxImEkUSZBKEEqMSwxLjEwMTIxNDE2MTgxOkE8UT5RQGFCcUSRRqFIsUrRTOFPAVEhU0FVYVeBWbFb0V4BYDFiYWSRZsFo8WshbWFvoXHRdBF2UXiReuF9IX9xgbGEAYZRiKGK8Y1Rj6GSAZRRlrGZEZtxndGgQaKhpRGncanhrFGuwbFBs7G2MbihuyG9ocAhwqHFIcexyjHMwc9R0eHUcdcB2ZHcMd7B4WHkAeah6UHr4e6R8THz4faR+UH78f6iAVIEEgbCCYIMQg8CEcIUghdSGhIc4h+yInIlUigiKvIt0jCiM4I2YjlCPCI/AkHyRNJHwkqyTaJQklOCVoJZclxyX3JicmVyaHJrcm6CcYJ0kneierJ9woDSg/KHEooijUKQYpOClrKZ0p0CoCKjUqaCqbKs8rAis2K2krnSvRLAUsOSxuLKIs1y0MLUEtdi2rLeEuFi5MLoIuty7uLyQvWi+RL8cv/jA1MGwwpDDbMRIxSjGCMbox8jIqMmMymzLUMw0zRjN/M7gz8TQrNGU0njTYNRM1TTWHNcI1/TY3NnI2rjbpNyQ3YDecN9c4FDhQOIw4yDkFOUI5fzm8Ofk6Njp0OrI67zstO2s7qjvoPCc8ZTykPOM9Ij1hPaE94D4gPmA+oD7gPyE/YT+iP+JAI0BkQKZA50EpQWpBrEHuQjBCckK1QvdDOkN9Q8BEA0RHRIpEzkUSRVVFmkXeRiJGZ0arRvBHNUd7R8BIBUhLSJFI10kdSWNJqUnwSjdKfUrESwxLU0uaS+JMKkxyTLpNAk1KTZNN3E4lTm5Ot08AT0lPk0/dUCdQcVC7UQZRUFGbUeZSMVJ8UsdTE1NfU6pT9lRCVI9U21UoVXVVwlYPVlxWqVb3V0RXklfgWC9YfVjLWRpZaVm4WgdaVlqmWvVbRVuVW+VcNVyGXNZdJ114XcleGl5sXr1fD19hX7NgBWBXYKpg/GFPYaJh9WJJYpxi8GNDY5dj62RAZJRk6WU9ZZJl52Y9ZpJm6Gc9Z5Nn6Wg/aJZo7GlDaZpp8WpIap9q92tPa6dr/2xXbK9tCG1gbbluEm5rbsRvHm94b9FwK3CGcOBxOnGVcfByS3KmcwFzXXO4dBR0cHTMdSh1hXXhdj52m3b4d1Z3s3gReG54zHkqeYl553pGeqV7BHtje8J8IXyBfOF9QX2hfgF+Yn7CfyN/hH/lgEeAqIEKgWuBzYIwgpKC9INXg7qEHYSAhOOFR4Wrhg6GcobXhzuHn4gEiGmIzokziZmJ/opkisqLMIuWi/yMY4zKjTGNmI3/jmaOzo82j56QBpBukNaRP5GokhGSepLjk02TtpQglIqU9JVflcmWNJaflwqXdZfgmEyYuJkkmZCZ/JpomtWbQpuvnByciZz3nWSd0p5Anq6fHZ+Ln/qgaaDYoUehtqImopajBqN2o+akVqTHpTilqaYapoum/adup+CoUqjEqTepqaocqo+rAqt1q+msXKzQrUStuK4trqGvFq+LsACwdbDqsWCx1rJLssKzOLOutCW0nLUTtYq2AbZ5tvC3aLfguFm40blKucK6O7q1uy67p7whvJu9Fb2Pvgq+hL7/v3q/9cBwwOzBZ8Hjwl/C28NYw9TEUcTOxUvFyMZGxsPHQce/yD3IvMk6ybnKOMq3yzbLtsw1zLXNNc21zjbOts83z7jQOdC60TzRvtI/0sHTRNPG1EnUy9VO1dHWVdbY11zX4Nhk2OjZbNnx2nba+9uA3AXcit0Q3ZbeHN6i3ynfr+A24L3hROHM4lPi2+Nj4+vkc+T85YTmDeaW5x/nqegy6LzpRunQ6lvq5etw6/vshu0R7ZzuKO6070DvzPBY8OXxcvH/8ozzGfOn9DT0wvVQ9d72bfb794r4Gfio+Tj5x/pX+uf7d/wH/Jj9Kf26/kv+3P9t//9BTFBInAUAAAHwhW3b4eb//93Vy7Zt27Zt23693++XzaW3bdv2TFAG1aPaTGM2mGOhbTKZua/1iJgA5epzv7cxO9/7/hFK6EvaWd36y6kSXdJJ1f85XZiGG8Os7Dc9Hs8MK/9+hiCNt/QClP1DrLTC3az81zlCNF4bBqi0jVJlXxcr/dcK0HjrBoCif4wa+7ssAP+1mmu8dRNA0T+OjQNtFkDrtRpruW8AYNk/gc0DnRZA960Nemq5bwhg2TtLHYf8ZYCeWxv0s9l9wwAF7xx1HvKXAfrua9TLZo9NAWQ8Czhw0lsC6L+vSR+bPzYNkPEs4NBJbwlg/X1Netj6+RmAjGcRB095CgAjjzW7b5vn5wDSZgyHT3vyAKOPNbtrm+fnAVJmHBfOeHIAY89v7p5tX4kCRM0ELo2YOYCJ57dwx3avxACiZhIXR8wswOTzWzpv53fjAEtmCpdHzRTAwitbOmuXdxMAETOLBqNmEmDhla2cs+u7SYBFM4cmY2YCIPLuds7Y7dMswIwnj0bTZhwg8u729dvrq3mAyf8V0GymPQ6w9ObWdXo8ATBuFtFwpjUKMHZpXT4EGPOX0HTWjAClW+pwP5A3S2g86bOgeIJtO0UgF0bzHqC9wa5ngVa0bwJn2OWBIPrPzMHnbdpiGToFwISwTWdDpiDBAJS2tuczEEZCKw4X2PM7MEQgCK/ZMw1dMpjwZ1v2BysqQxAiDXbcAaPImKrAIXZ8CXxCMAz32dEFXil88A0btlyGQUF6bDgH0mUpRqC8XW2fhRBSWjG4qLbfgyEGAXijthkIyGHAX2s6AKyYHCFYaqjlThhBznQZDqvly+AThCG4v5YAeCXxwjdr2HIZhiTxQ28N50KqLMkoVLar7nMQQlIrCpdU9wcwRKEL3qpuDgKyGPD3qg4EKyZLGOKN1dwFI8iaLsMR1XwFfMIwAA9WEwSvNF74dhVbFmFIGj/0V3EeJCvSjENl+7VegSDSWktw6Vp/BEMcuuDtteYgKI8B/1jjILDi8nRDvHG1u2EYeTMlOHK1r4JXIDbBw6uFhPLAd1fZqgTDEvlh/SrnQ6Ii0ThYO654FQKIvAiXr/gTGDJ1wrsr5iEokwH/UkodDJW4TD2QbFTqHhhE5mwJjlbqa+AVio3wiFJhwTzwPbV1CYal8sMGdQEkKlJNgrXTaxBA7AW44k9gyBWE94bAI5cPfpUHUy4v+OJgyBWC//RCn1jZDHzv81AZksoP3HGcBR1CZWYgvrX6BeCVyQs8rdQuk5BfL1EbYDYppU4rwExUnoEszO2lVj4JhMrSxCegeK5a/fuAIYzVATyr1twiBFaHLAbwC1XlAUsQn5AkVIaN21ajrqnAQFaOmSikjlTVfwD4xShsAOsWVWPjPwCPFF7gU1XzTqNQ6JHBD/y/uTZ1Qg5mliQYyMHcnsrOx4BQWX/xSSieo+z9HmBorxIAnlY2bxEEq113BvBzZfv+EUiM6C1Uhr6t7VOXlmEwq7PpKKSOUPV8F2jVWH4DWDerujb+HfDoywd8rOq84wgUe3XlBf7fVC91fA5m5/W0KQdTu6r63wt0l3QUm4Ti2cqJ3wEMDVUCwJPKkZsHwGrTjwH8TDl0vwikR3TTVYG+rZyiLi7DYFov01FIHaGc+zbQqpX8BrBuUg5u+ANg6sQHfKgcveMwFHv14QH+1+QsdVwWFhZ0sa4Ak7sqp98NhIt6iE1C8Szl/G8ChhYqAeBx5cKWVrDadGAAP1Wu3HcRMsPu66pA71buUBeVYTTltqkoxA9Wbn0D8Fnuym8E60bl2obfAaa7fMD7ysU7DEEx7CYT+Fejm9TxWcj0usdrwfguyt33AkUj7Y7ZVqBwqnL7VwGyrYa/zdH/+49hhMoAjyjXN/0EV7+uNNj0Wt49C7crPe7/djDmAmvm/0/toJwIVlA4IBIOAAAwPgCdASqAAIAAPjEUiUMiISEUyN58IAMEtgBmotC/mevKv50j8l/597w1ffkH8R/I/7q/5fp1TT+mvuj+z/uv48fRH+7f0n2I/nf2Cf0o/yHUA8wH83/sH7D+7x/cf8p/L/cP+vX6c/275AP6V/kOsf9AD+I/2H0tP2Z/+PyVfsl+5fwJ/zz/Bf97rAP/v1h/TX+Ydo386/Ij9t+2j8XevPmq+NXpDxL/XH7Z/Xv3I/sn7c/Bf+H8FfhLqBfhX8d/vv5gflzx7ea+YF7B/WP839vnOx9VfYA/Vr/X+rP/A8EXjd9oH2Afyb+t/5/7ovpa/hP+h/jvyy9pv5t/df+B/kvgE/l39P/3v979nT11fsX/9PdC/Xhwbtwfc4vkNKOJpfnujH+HnFZXkub9TcY/39DcEWgD1tn2Rwff6vl4ciZG2oSAq6W+ft05qlzyhIRYVD1ZfK3fznbO4VS+iwXNZbkTcazKFwl4qnBd2mvr38CZz5cyMrAj2pP8ESvWreHCkr5KD6pjKugWYgRNeiSWK/g2+toDYdyBILOJVxIgh98Ck9T6bZMzS1qOWgaMyg6m5al9mnPPaf5N95Skb334QUonoHnSRjAQGUSX4vcneY9LD4PvcmR9NFagWr9Exow0QBRLhWxu5kNZMrHTVTihRWzyiGmy4rPS3AD+/2Aad//m4Bp//bt6icg7RK3Vm693ntHOBrLY5h7hDW0sC9cGxEibW3Y57+yJf30XbJWTcCQSwZvpsnuFVtR6wLmhadWd8IcPcIx1FuVxhBE1Nl3Sf3mO8GXt08KDvdZ2WimFZ1YHFqi2ncVvb4ZkmtJ7+VzcCQTObwwSQV9Ty0An1RvXPyTE6MmeEZAF0DAGQnk4jwp8rxuWtARNXzqzOKh9nOsH7MhRmdEVqwNjaE2pB/hdygjuhByXn8SEJ0xiX/TG1V0rukC9TevhDijAiNCct5JQYXKcrpwWHe1o/xS8TwqykDXljwVfq9/Ae2reZWmHeV48v3BdiX+IYl2OEsLUH5Cf/w/swTyX/t3whFtx3fQ2NThwcew7cGFqsQYHV7kGZQGBnAtHrvRaEAWcvs0/YDSxJ0nhDh32DvMLqAAN+MCwsGZeyabet37Zvbwhi//cRmKnx6OMyLhglETc03wUh6K32k9dbprB8EEoOqwlEhF25Wgtqi6rMD7rlXYSw43RlSxen9n67IR1hU+RSRqelvojBqU6yvM+Khsd7OMZaczmQ14EAQMSIQla/SPD+FETYZg5syoTJ3b15sYe7rjCpVKfDFbEeERYT+QYtIQ98Jn7skVmtV9NvPy4i1bCNmuCvfKiElf0Ui34M+HIMdf8JZrViit9ajMAACTkGfJi/hweE50ScNbM8jhYarhwq7FTf9uY+6CiObtA2rxR9CO8/xRsHkxyaXfUqwGrhl22b7ijVsDN1oIALyGD7Z//bwZ7X+PabkyfuLCsy8tVhPpICAD/de/TeZ0QqqJrhn7OkdcIvyVB7PzFQdFPYoJg0AxHvXOr7hnQCxsuMpBwM6nEo5ICbrBtv/d7RTq2r6daMvFzqtie745zIDfrYgjwdSpKE8ipgXz5Cgg//4OHob85rdh4QE8vajJoshtPiSk7LH897lF1ENfC+yPXc3JWqrfcMcYTqvsChDmjzEyEmH9qOx5ZOHOX1J9jn2BGwt6CmlxM62nLngHnyx3jrOUZPP2Hnw07Vj1mI+ZCrZvk1aDLydIReYvwAZzk5/FIyRT7w+MwH/seBw94ONNgc8Qtxhf8IlzuKjtKzVoShRAIbA9288rhyabhPqJDH5HUhqRJDiMF/6dzXQaUSTKtMM3zz6yoOCYA9oJRQxEM2QNE1KJnzDUP5tkodrfztKbzqmoN92qrx7oWr+xRIITbffuJljDHX85RRe6jWXXI6EExTyfWJPuo21oT/aNghALGfzPlMlLh94nRB8jsmAPCy2sf3oMgVN1cgbqEkqeV/ZEgLLOa6oHBM7h2OJh/8ISReC7nhSRKcYbZDjO2gNifFV79d6gsofc14O+JupbGIvGqZD946vZPeZwjfof1mWTrTYW2ZbfKQKdXO30AeX/mW+MUpHjpQNqQAISqS3WC1MYL76u9stKdCOZJBf2/PzwTD4heGONxi2nhn9MwusCVahLxeAqWvvOGGOeMEbtUh2fuFsUhEjWMLc6KI3MdUh5ks3v4bVPCDpYVyRUWXrI2SZKADzQwVsnnxmFY9MM6QHKiY90s7RrYCGj4Lqn67V6S4yV0CcZvBxv3kU3ehyd4B7XEAMEsdrjb4ZjQJIiC2doNT/Cflzw7zVv9sBgnrIDwP+dmN7lqoSJkIM7xrwCSWys06JeHEJ2ciUv9FHN/f4mN1etxNGSpJ80BC8OdWUwuUT8m0W18CH/rzeH5F2SOprYmJnK4uQwWQikdSKFRTgq3/kM2Ye6AVh0f+ap+4pqpTvyviskGT9EEYvEk6D6Vibl9XX5HPlhOatHTOxFMW3Iw2gyUMiHk2L+Rqqylr+K8P5MzYrSDWkafdkU3uPO6di5SvnEKvuT1xyjpCSJmQbb2JQ5Ko9Xwloddp/kpF4ECqMiugCBj2sviFAXuDyoEl38dk2bDTEgCSvU3Nkyz/o3w52/iq8SpvxX3MZZBfF4JaQPB2njhU89AKKXSxBCOwlCwJOPQRQzAHarx6txJZInSz8MYklUi7vCpJuZb/Mq8+BPBpoekAOk8whygMSdx4hon5NHd2rCYrygqef7jHb4mITtm8AZqadDNEqcpr8Cxu3g+r8lT3s9BQ8foQBVDuneyIc5vaky/xWdxbpLSGHsp0JRXGJaeo43JEBqfXeV4McUwhFqICspkseeStdaq461LxfbxycK4s5+HlPF6YeIK5lOLAwNoay6luZMEwLTsDZBs+b9Ojtdct/SGIE0OcsRl01foqe9BNUyKvaimqkpgglSExNHj/5ijvwVWR0VVSfgfQSql2EZOpBRU8q7i7w6dViKJLZ6qt8U2CZRUidrjGaQuyoyzVcZ3pp5PyZTn6GXBEomspZIlB7o7JRJ3dUrWH7gCWYJ5dKLS/M8XOAEPJkpyhNQV9J9e1ni56QQXxQlUVMZdxtpe7jo35DiFlLZ49MQUulvIvR/7EscI5BpFkbWVburdfKFhj9fOfI8wzYJl9lsYhvHOR7T4AziuzSo/MAZd6rOxcrmcVTsWOCjwEHoljOKG33akt9WdhaAngQqN6ss9oFva2jyScZhnXD1RlXEW8gKHyObW+5kaAIT55lMloE7VA6fYFmacHsbeeBMp40gvkc0KI7Zxs0I1xayJP1jj8Ijbu1h1an2kCA9M9Bnsz9/4sMquFFD10y65zkVaaAssf+3nSRNtfWLTBvOUU2M5RSJo+WapelGB+sXWrEmnAXTBXL5YozOk8IjaAXLdE9IkoH5OMZN+FfN0Cx3Sg25qBFvWWBxQrEugTdVIiR4iDHIbW2fM80x423vrKnXV8WFVPSzRgvNo6gfclKtLcg5D6YcufUWYvh0pn//icIb+0PXMw7lcT1auA1oAH6/gH36u9h9+Lr396GMQZVxahJk7uaIoMwj4trvWjlFBfbrCYQbUAD8RqpEn7ofXk23UGAZ5nersKxbHzVt+HPSPUg2rJ03CW2QwHi8+7PYwzHVYfksCsy+LX+TcGdG7O4ITAmHg0hS6zWTBI9itrl83y1ukUovMINnREA/3H5QqO514521x6aBxfMjKmRBb///WhAEzej5EH/6pC5ZrrHQU/Dae7NGDktLg+qH+153phVUsv+tKJEZrAZ//DMC/eju+KzxsIkGwlLoTSap5lqx5JTlv4OdwXfm4wRa5WOFXv/nW45CLkplh8cFrl83XkiTRaJor+tbs7X4lCBk9yZBAvTbZypOGIj4eKzw0o3E/A3A/2mCH/hPkFuJSbzfsaq6tp57cU6xTvbJvtizxt2L0Z0SuJZwM/wl7BznYeL267/b/2uuvoCHu8oQtB1IJ4sb7b1scxLYProUqc/FKDtNB68jn51jAsc2Nq4PlfQXVnQQcxTED9HlMEljRhAkLAY+//M0EuTeG8H+/ERoEihcrs764CgDOH1AI/CGvvK9bwGxIFT8f6/eD3WDec3Xb2zkmaZlemqKANclaD3EwU44gqepW1IQvFylGbaNB+jJfCO4ZbQhNVi6383bnn425GHh2yJmVUFz2YRwnYCMf8S4dD26UFW9VkyyGjUZ9pnpiATRUYyEX24+7CS6MJntkrN8iOknRV3o90JhaUs6dQrltZGaXjJmsIET3calvO59zovZzpMtlKa3Sl5MOt6KAuDvgNtyYcrfKN5JetGB0Sbx87zjzLu2C1yGXHwn0QcLgfJIBDPwFyE07YXnu+6ntU5OiesfIXrm377z4EATXZ3zInP1l1EFkmbkoDreRZ+SdXc39d7kwwEf98CZR0mm+SAlzWPXRCjvKETQ40lmSnCn2+KUBz2PChgRiVzbOMisU5noVmNXgs5u6uJwQPKWxUwxQMstDG029+/P78KbtPC11Uh04UQOSiLnf/x9rf7v9SAaBZU6l/2eu2+VOvSyIcZirU/246ZVf6OfZO5tiqY/EDyph7nqIhg54Gza3OQOAMIsDGeOhw6qDbF7hXwqFD/QK3fboeRaDgfrO1TfSjDl6qBtoqnZZvwVqxxIYPrWryCVm6EvYjSNCzX6YINlf5HcDysb38FnN3aDxR8r7BzWvyZ6IMiN2nUd09Erz/eba4ss1Nkz1OQjdwnu0aO8IkWWr4sa7Bapqd47LdqeWJHKHT4bbAVd6F1z+niB8E7sAte7QAAAAAA==" vertex="1" parent="1">
                    <mxGeometry x="120" y="167" width="50" height="50" as="geometry"/>
                </mxCell>
                <mxCell id="6" value="" style="shape=image;verticalLabelPosition=bottom;verticalAlign=top;imageAspect=0;aspect=fixed;image=data:image/webp,UklGRiQgAABXRUJQVlA4WAoAAAAwAAAAfwAAfwAASUNDUEgMAAAAAAxITGlubwIQAABtbnRyUkdCIFhZWiAHzgACAAkABgAxAABhY3NwTVNGVAAAAABJRUMgc1JHQgAAAAAAAAAAAAAAAAAA9tYAAQAAAADTLUhQICAAAAAAAAAAAAAAAAAAAAAAAAAAAAAAAAAAAAAAAAAAAAAAAAAAAAAAAAAAAAAAABFjcHJ0AAABUAAAADNkZXNjAAABhAAAAGx3dHB0AAAB8AAAABRia3B0AAACBAAAABRyWFlaAAACGAAAABRnWFlaAAACLAAAABRiWFlaAAACQAAAABRkbW5kAAACVAAAAHBkbWRkAAACxAAAAIh2dWVkAAADTAAAAIZ2aWV3AAAD1AAAACRsdW1pAAAD+AAAABRtZWFzAAAEDAAAACR0ZWNoAAAEMAAAAAxyVFJDAAAEPAAACAxnVFJDAAAEPAAACAxiVFJDAAAEPAAACAx0ZXh0AAAAAENvcHlyaWdodCAoYykgMTk5OCBIZXdsZXR0LVBhY2thcmQgQ29tcGFueQAAZGVzYwAAAAAAAAASc1JHQiBJRUM2MTk2Ni0yLjEAAAAAAAAAAAAAABJzUkdCIElFQzYxOTY2LTIuMQAAAAAAAAAAAAAAAAAAAAAAAAAAAAAAAAAAAAAAAAAAAAAAAAAAAAAAAAAAAAAAAAAAWFlaIAAAAAAAAPNRAAEAAAABFsxYWVogAAAAAAAAAAAAAAAAAAAAAFhZWiAAAAAAAABvogAAOPUAAAOQWFlaIAAAAAAAAGKZAAC3hQAAGNpYWVogAAAAAAAAJKAAAA+EAAC2z2Rlc2MAAAAAAAAAFklFQyBodHRwOi8vd3d3LmllYy5jaAAAAAAAAAAAAAAAFklFQyBodHRwOi8vd3d3LmllYy5jaAAAAAAAAAAAAAAAAAAAAAAAAAAAAAAAAAAAAAAAAAAAAAAAAAAAAAAAAAAAAABkZXNjAAAAAAAAAC5JRUMgNjE5NjYtMi4xIERlZmF1bHQgUkdCIGNvbG91ciBzcGFjZSAtIHNSR0IAAAAAAAAAAAAAAC5JRUMgNjE5NjYtMi4xIERlZmF1bHQgUkdCIGNvbG91ciBzcGFjZSAtIHNSR0IAAAAAAAAAAAAAAAAAAAAAAAAAAAAAZGVzYwAAAAAAAAAsUmVmZXJlbmNlIFZpZXdpbmcgQ29uZGl0aW9uIGluIElFQzYxOTY2LTIuMQAAAAAAAAAAAAAALFJlZmVyZW5jZSBWaWV3aW5nIENvbmRpdGlvbiBpbiBJRUM2MTk2Ni0yLjEAAAAAAAAAAAAAAAAAAAAAAAAAAAAAAAAAAHZpZXcAAAAAABOk/gAUXy4AEM8UAAPtzAAEEwsAA1yeAAAAAVhZWiAAAAAAAEwJVgBQAAAAVx/nbWVhcwAAAAAAAAABAAAAAAAAAAAAAAAAAAAAAAAAAo8AAAACc2lnIAAAAABDUlQgY3VydgAAAAAAAAQAAAAABQAKAA8AFAAZAB4AIwAoAC0AMgA3ADsAQABFAEoATwBUAFkAXgBjAGgAbQByAHcAfACBAIYAiwCQAJUAmgCfAKQAqQCuALIAtwC8AMEAxgDLANAA1QDbAOAA5QDrAPAA9gD7AQEBBwENARMBGQEfASUBKwEyATgBPgFFAUwBUgFZAWABZwFuAXUBfAGDAYsBkgGaAaEBqQGxAbkBwQHJAdEB2QHhAekB8gH6AgMCDAIUAh0CJgIvAjgCQQJLAlQCXQJnAnECegKEAo4CmAKiAqwCtgLBAssC1QLgAusC9QMAAwsDFgMhAy0DOANDA08DWgNmA3IDfgOKA5YDogOuA7oDxwPTA+AD7AP5BAYEEwQgBC0EOwRIBFUEYwRxBH4EjASaBKgEtgTEBNME4QTwBP4FDQUcBSsFOgVJBVgFZwV3BYYFlgWmBbUFxQXVBeUF9gYGBhYGJwY3BkgGWQZqBnsGjAadBq8GwAbRBuMG9QcHBxkHKwc9B08HYQd0B4YHmQesB78H0gflB/gICwgfCDIIRghaCG4IggiWCKoIvgjSCOcI+wkQCSUJOglPCWQJeQmPCaQJugnPCeUJ+woRCicKPQpUCmoKgQqYCq4KxQrcCvMLCwsiCzkLUQtpC4ALmAuwC8gL4Qv5DBIMKgxDDFwMdQyODKcMwAzZDPMNDQ0mDUANWg10DY4NqQ3DDd4N+A4TDi4OSQ5kDn8Omw62DtIO7g8JDyUPQQ9eD3oPlg+zD88P7BAJECYQQxBhEH4QmxC5ENcQ9RETETERTxFtEYwRqhHJEegSBxImEkUSZBKEEqMSwxLjEwMTIxNDE2MTgxOkE8UT5RQGFCcUSRRqFIsUrRTOFPAVEhU0FVYVeBWbFb0V4BYDFiYWSRZsFo8WshbWFvoXHRdBF2UXiReuF9IX9xgbGEAYZRiKGK8Y1Rj6GSAZRRlrGZEZtxndGgQaKhpRGncanhrFGuwbFBs7G2MbihuyG9ocAhwqHFIcexyjHMwc9R0eHUcdcB2ZHcMd7B4WHkAeah6UHr4e6R8THz4faR+UH78f6iAVIEEgbCCYIMQg8CEcIUghdSGhIc4h+yInIlUigiKvIt0jCiM4I2YjlCPCI/AkHyRNJHwkqyTaJQklOCVoJZclxyX3JicmVyaHJrcm6CcYJ0kneierJ9woDSg/KHEooijUKQYpOClrKZ0p0CoCKjUqaCqbKs8rAis2K2krnSvRLAUsOSxuLKIs1y0MLUEtdi2rLeEuFi5MLoIuty7uLyQvWi+RL8cv/jA1MGwwpDDbMRIxSjGCMbox8jIqMmMymzLUMw0zRjN/M7gz8TQrNGU0njTYNRM1TTWHNcI1/TY3NnI2rjbpNyQ3YDecN9c4FDhQOIw4yDkFOUI5fzm8Ofk6Njp0OrI67zstO2s7qjvoPCc8ZTykPOM9Ij1hPaE94D4gPmA+oD7gPyE/YT+iP+JAI0BkQKZA50EpQWpBrEHuQjBCckK1QvdDOkN9Q8BEA0RHRIpEzkUSRVVFmkXeRiJGZ0arRvBHNUd7R8BIBUhLSJFI10kdSWNJqUnwSjdKfUrESwxLU0uaS+JMKkxyTLpNAk1KTZNN3E4lTm5Ot08AT0lPk0/dUCdQcVC7UQZRUFGbUeZSMVJ8UsdTE1NfU6pT9lRCVI9U21UoVXVVwlYPVlxWqVb3V0RXklfgWC9YfVjLWRpZaVm4WgdaVlqmWvVbRVuVW+VcNVyGXNZdJ114XcleGl5sXr1fD19hX7NgBWBXYKpg/GFPYaJh9WJJYpxi8GNDY5dj62RAZJRk6WU9ZZJl52Y9ZpJm6Gc9Z5Nn6Wg/aJZo7GlDaZpp8WpIap9q92tPa6dr/2xXbK9tCG1gbbluEm5rbsRvHm94b9FwK3CGcOBxOnGVcfByS3KmcwFzXXO4dBR0cHTMdSh1hXXhdj52m3b4d1Z3s3gReG54zHkqeYl553pGeqV7BHtje8J8IXyBfOF9QX2hfgF+Yn7CfyN/hH/lgEeAqIEKgWuBzYIwgpKC9INXg7qEHYSAhOOFR4Wrhg6GcobXhzuHn4gEiGmIzokziZmJ/opkisqLMIuWi/yMY4zKjTGNmI3/jmaOzo82j56QBpBukNaRP5GokhGSepLjk02TtpQglIqU9JVflcmWNJaflwqXdZfgmEyYuJkkmZCZ/JpomtWbQpuvnByciZz3nWSd0p5Anq6fHZ+Ln/qgaaDYoUehtqImopajBqN2o+akVqTHpTilqaYapoum/adup+CoUqjEqTepqaocqo+rAqt1q+msXKzQrUStuK4trqGvFq+LsACwdbDqsWCx1rJLssKzOLOutCW0nLUTtYq2AbZ5tvC3aLfguFm40blKucK6O7q1uy67p7whvJu9Fb2Pvgq+hL7/v3q/9cBwwOzBZ8Hjwl/C28NYw9TEUcTOxUvFyMZGxsPHQce/yD3IvMk6ybnKOMq3yzbLtsw1zLXNNc21zjbOts83z7jQOdC60TzRvtI/0sHTRNPG1EnUy9VO1dHWVdbY11zX4Nhk2OjZbNnx2nba+9uA3AXcit0Q3ZbeHN6i3ynfr+A24L3hROHM4lPi2+Nj4+vkc+T85YTmDeaW5x/nqegy6LzpRunQ6lvq5etw6/vshu0R7ZzuKO6070DvzPBY8OXxcvH/8ozzGfOn9DT0wvVQ9d72bfb794r4Gfio+Tj5x/pX+uf7d/wH/Jj9Kf26/kv+3P9t//9BTFBInAUAAAHwhW3b4eb//93Vy7Zt27Zt23693++XzaW3bdv2TFAG1aPaTGM2mGOhbTKZua/1iJgA5epzv7cxO9/7/hFK6EvaWd36y6kSXdJJ1f85XZiGG8Os7Dc9Hs8MK/9+hiCNt/QClP1DrLTC3az81zlCNF4bBqi0jVJlXxcr/dcK0HjrBoCif4wa+7ssAP+1mmu8dRNA0T+OjQNtFkDrtRpruW8AYNk/gc0DnRZA960Nemq5bwhg2TtLHYf8ZYCeWxv0s9l9wwAF7xx1HvKXAfrua9TLZo9NAWQ8Czhw0lsC6L+vSR+bPzYNkPEs4NBJbwlg/X1Netj6+RmAjGcRB095CgAjjzW7b5vn5wDSZgyHT3vyAKOPNbtrm+fnAVJmHBfOeHIAY89v7p5tX4kCRM0ELo2YOYCJ57dwx3avxACiZhIXR8wswOTzWzpv53fjAEtmCpdHzRTAwitbOmuXdxMAETOLBqNmEmDhla2cs+u7SYBFM4cmY2YCIPLuds7Y7dMswIwnj0bTZhwg8u729dvrq3mAyf8V0GymPQ6w9ObWdXo8ATBuFtFwpjUKMHZpXT4EGPOX0HTWjAClW+pwP5A3S2g86bOgeIJtO0UgF0bzHqC9wa5ngVa0bwJn2OWBIPrPzMHnbdpiGToFwISwTWdDpiDBAJS2tuczEEZCKw4X2PM7MEQgCK/ZMw1dMpjwZ1v2BysqQxAiDXbcAaPImKrAIXZ8CXxCMAz32dEFXil88A0btlyGQUF6bDgH0mUpRqC8XW2fhRBSWjG4qLbfgyEGAXijthkIyGHAX2s6AKyYHCFYaqjlThhBznQZDqvly+AThCG4v5YAeCXxwjdr2HIZhiTxQ28N50KqLMkoVLar7nMQQlIrCpdU9wcwRKEL3qpuDgKyGPD3qg4EKyZLGOKN1dwFI8iaLsMR1XwFfMIwAA9WEwSvNF74dhVbFmFIGj/0V3EeJCvSjENl+7VegSDSWktw6Vp/BEMcuuDtteYgKI8B/1jjILDi8nRDvHG1u2EYeTMlOHK1r4JXIDbBw6uFhPLAd1fZqgTDEvlh/SrnQ6Ii0ThYO654FQKIvAiXr/gTGDJ1wrsr5iEokwH/UkodDJW4TD2QbFTqHhhE5mwJjlbqa+AVio3wiFJhwTzwPbV1CYal8sMGdQEkKlJNgrXTaxBA7AW44k9gyBWE94bAI5cPfpUHUy4v+OJgyBWC//RCn1jZDHzv81AZksoP3HGcBR1CZWYgvrX6BeCVyQs8rdQuk5BfL1EbYDYppU4rwExUnoEszO2lVj4JhMrSxCegeK5a/fuAIYzVATyr1twiBFaHLAbwC1XlAUsQn5AkVIaN21ajrqnAQFaOmSikjlTVfwD4xShsAOsWVWPjPwCPFF7gU1XzTqNQ6JHBD/y/uTZ1Qg5mliQYyMHcnsrOx4BQWX/xSSieo+z9HmBorxIAnlY2bxEEq113BvBzZfv+EUiM6C1Uhr6t7VOXlmEwq7PpKKSOUPV8F2jVWH4DWDerujb+HfDoywd8rOq84wgUe3XlBf7fVC91fA5m5/W0KQdTu6r63wt0l3QUm4Ti2cqJ3wEMDVUCwJPKkZsHwGrTjwH8TDl0vwikR3TTVYG+rZyiLi7DYFov01FIHaGc+zbQqpX8BrBuUg5u+ANg6sQHfKgcveMwFHv14QH+1+QsdVwWFhZ0sa4Ak7sqp98NhIt6iE1C8Szl/G8ChhYqAeBx5cKWVrDadGAAP1Wu3HcRMsPu66pA71buUBeVYTTltqkoxA9Wbn0D8Fnuym8E60bl2obfAaa7fMD7ysU7DEEx7CYT+Fejm9TxWcj0usdrwfguyt33AkUj7Y7ZVqBwqnL7VwGyrYa/zdH/+49hhMoAjyjXN/0EV7+uNNj0Wt49C7crPe7/djDmAmvm/0/toJwIVlA4IBIOAAAwPgCdASqAAIAAPjEUiUMiISEUyN58IAMEtgBmotC/mevKv50j8l/597w1ffkH8R/I/7q/5fp1TT+mvuj+z/uv48fRH+7f0n2I/nf2Cf0o/yHUA8wH83/sH7D+7x/cf8p/L/cP+vX6c/275AP6V/kOsf9AD+I/2H0tP2Z/+PyVfsl+5fwJ/zz/Bf97rAP/v1h/TX+Ydo386/Ij9t+2j8XevPmq+NXpDxL/XH7Z/Xv3I/sn7c/Bf+H8FfhLqBfhX8d/vv5gflzx7ea+YF7B/WP839vnOx9VfYA/Vr/X+rP/A8EXjd9oH2Afyb+t/5/7ovpa/hP+h/jvyy9pv5t/df+B/kvgE/l39P/3v979nT11fsX/9PdC/Xhwbtwfc4vkNKOJpfnujH+HnFZXkub9TcY/39DcEWgD1tn2Rwff6vl4ciZG2oSAq6W+ft05qlzyhIRYVD1ZfK3fznbO4VS+iwXNZbkTcazKFwl4qnBd2mvr38CZz5cyMrAj2pP8ESvWreHCkr5KD6pjKugWYgRNeiSWK/g2+toDYdyBILOJVxIgh98Ck9T6bZMzS1qOWgaMyg6m5al9mnPPaf5N95Skb334QUonoHnSRjAQGUSX4vcneY9LD4PvcmR9NFagWr9Exow0QBRLhWxu5kNZMrHTVTihRWzyiGmy4rPS3AD+/2Aad//m4Bp//bt6icg7RK3Vm693ntHOBrLY5h7hDW0sC9cGxEibW3Y57+yJf30XbJWTcCQSwZvpsnuFVtR6wLmhadWd8IcPcIx1FuVxhBE1Nl3Sf3mO8GXt08KDvdZ2WimFZ1YHFqi2ncVvb4ZkmtJ7+VzcCQTObwwSQV9Ty0An1RvXPyTE6MmeEZAF0DAGQnk4jwp8rxuWtARNXzqzOKh9nOsH7MhRmdEVqwNjaE2pB/hdygjuhByXn8SEJ0xiX/TG1V0rukC9TevhDijAiNCct5JQYXKcrpwWHe1o/xS8TwqykDXljwVfq9/Ae2reZWmHeV48v3BdiX+IYl2OEsLUH5Cf/w/swTyX/t3whFtx3fQ2NThwcew7cGFqsQYHV7kGZQGBnAtHrvRaEAWcvs0/YDSxJ0nhDh32DvMLqAAN+MCwsGZeyabet37Zvbwhi//cRmKnx6OMyLhglETc03wUh6K32k9dbprB8EEoOqwlEhF25Wgtqi6rMD7rlXYSw43RlSxen9n67IR1hU+RSRqelvojBqU6yvM+Khsd7OMZaczmQ14EAQMSIQla/SPD+FETYZg5syoTJ3b15sYe7rjCpVKfDFbEeERYT+QYtIQ98Jn7skVmtV9NvPy4i1bCNmuCvfKiElf0Ui34M+HIMdf8JZrViit9ajMAACTkGfJi/hweE50ScNbM8jhYarhwq7FTf9uY+6CiObtA2rxR9CO8/xRsHkxyaXfUqwGrhl22b7ijVsDN1oIALyGD7Z//bwZ7X+PabkyfuLCsy8tVhPpICAD/de/TeZ0QqqJrhn7OkdcIvyVB7PzFQdFPYoJg0AxHvXOr7hnQCxsuMpBwM6nEo5ICbrBtv/d7RTq2r6daMvFzqtie745zIDfrYgjwdSpKE8ipgXz5Cgg//4OHob85rdh4QE8vajJoshtPiSk7LH897lF1ENfC+yPXc3JWqrfcMcYTqvsChDmjzEyEmH9qOx5ZOHOX1J9jn2BGwt6CmlxM62nLngHnyx3jrOUZPP2Hnw07Vj1mI+ZCrZvk1aDLydIReYvwAZzk5/FIyRT7w+MwH/seBw94ONNgc8Qtxhf8IlzuKjtKzVoShRAIbA9288rhyabhPqJDH5HUhqRJDiMF/6dzXQaUSTKtMM3zz6yoOCYA9oJRQxEM2QNE1KJnzDUP5tkodrfztKbzqmoN92qrx7oWr+xRIITbffuJljDHX85RRe6jWXXI6EExTyfWJPuo21oT/aNghALGfzPlMlLh94nRB8jsmAPCy2sf3oMgVN1cgbqEkqeV/ZEgLLOa6oHBM7h2OJh/8ISReC7nhSRKcYbZDjO2gNifFV79d6gsofc14O+JupbGIvGqZD946vZPeZwjfof1mWTrTYW2ZbfKQKdXO30AeX/mW+MUpHjpQNqQAISqS3WC1MYL76u9stKdCOZJBf2/PzwTD4heGONxi2nhn9MwusCVahLxeAqWvvOGGOeMEbtUh2fuFsUhEjWMLc6KI3MdUh5ks3v4bVPCDpYVyRUWXrI2SZKADzQwVsnnxmFY9MM6QHKiY90s7RrYCGj4Lqn67V6S4yV0CcZvBxv3kU3ehyd4B7XEAMEsdrjb4ZjQJIiC2doNT/Cflzw7zVv9sBgnrIDwP+dmN7lqoSJkIM7xrwCSWys06JeHEJ2ciUv9FHN/f4mN1etxNGSpJ80BC8OdWUwuUT8m0W18CH/rzeH5F2SOprYmJnK4uQwWQikdSKFRTgq3/kM2Ye6AVh0f+ap+4pqpTvyviskGT9EEYvEk6D6Vibl9XX5HPlhOatHTOxFMW3Iw2gyUMiHk2L+Rqqylr+K8P5MzYrSDWkafdkU3uPO6di5SvnEKvuT1xyjpCSJmQbb2JQ5Ko9Xwloddp/kpF4ECqMiugCBj2sviFAXuDyoEl38dk2bDTEgCSvU3Nkyz/o3w52/iq8SpvxX3MZZBfF4JaQPB2njhU89AKKXSxBCOwlCwJOPQRQzAHarx6txJZInSz8MYklUi7vCpJuZb/Mq8+BPBpoekAOk8whygMSdx4hon5NHd2rCYrygqef7jHb4mITtm8AZqadDNEqcpr8Cxu3g+r8lT3s9BQ8foQBVDuneyIc5vaky/xWdxbpLSGHsp0JRXGJaeo43JEBqfXeV4McUwhFqICspkseeStdaq461LxfbxycK4s5+HlPF6YeIK5lOLAwNoay6luZMEwLTsDZBs+b9Ojtdct/SGIE0OcsRl01foqe9BNUyKvaimqkpgglSExNHj/5ijvwVWR0VVSfgfQSql2EZOpBRU8q7i7w6dViKJLZ6qt8U2CZRUidrjGaQuyoyzVcZ3pp5PyZTn6GXBEomspZIlB7o7JRJ3dUrWH7gCWYJ5dKLS/M8XOAEPJkpyhNQV9J9e1ni56QQXxQlUVMZdxtpe7jo35DiFlLZ49MQUulvIvR/7EscI5BpFkbWVburdfKFhj9fOfI8wzYJl9lsYhvHOR7T4AziuzSo/MAZd6rOxcrmcVTsWOCjwEHoljOKG33akt9WdhaAngQqN6ss9oFva2jyScZhnXD1RlXEW8gKHyObW+5kaAIT55lMloE7VA6fYFmacHsbeeBMp40gvkc0KI7Zxs0I1xayJP1jj8Ijbu1h1an2kCA9M9Bnsz9/4sMquFFD10y65zkVaaAssf+3nSRNtfWLTBvOUU2M5RSJo+WapelGB+sXWrEmnAXTBXL5YozOk8IjaAXLdE9IkoH5OMZN+FfN0Cx3Sg25qBFvWWBxQrEugTdVIiR4iDHIbW2fM80x423vrKnXV8WFVPSzRgvNo6gfclKtLcg5D6YcufUWYvh0pn//icIb+0PXMw7lcT1auA1oAH6/gH36u9h9+Lr396GMQZVxahJk7uaIoMwj4trvWjlFBfbrCYQbUAD8RqpEn7ofXk23UGAZ5nersKxbHzVt+HPSPUg2rJ03CW2QwHi8+7PYwzHVYfksCsy+LX+TcGdG7O4ITAmHg0hS6zWTBI9itrl83y1ukUovMINnREA/3H5QqO514521x6aBxfMjKmRBb///WhAEzej5EH/6pC5ZrrHQU/Dae7NGDktLg+qH+153phVUsv+tKJEZrAZ//DMC/eju+KzxsIkGwlLoTSap5lqx5JTlv4OdwXfm4wRa5WOFXv/nW45CLkplh8cFrl83XkiTRaJor+tbs7X4lCBk9yZBAvTbZypOGIj4eKzw0o3E/A3A/2mCH/hPkFuJSbzfsaq6tp57cU6xTvbJvtizxt2L0Z0SuJZwM/wl7BznYeL267/b/2uuvoCHu8oQtB1IJ4sb7b1scxLYProUqc/FKDtNB68jn51jAsc2Nq4PlfQXVnQQcxTED9HlMEljRhAkLAY+//M0EuTeG8H+/ERoEihcrs764CgDOH1AI/CGvvK9bwGxIFT8f6/eD3WDec3Xb2zkmaZlemqKANclaD3EwU44gqepW1IQvFylGbaNB+jJfCO4ZbQhNVi6383bnn425GHh2yJmVUFz2YRwnYCMf8S4dD26UFW9VkyyGjUZ9pnpiATRUYyEX24+7CS6MJntkrN8iOknRV3o90JhaUs6dQrltZGaXjJmsIET3calvO59zovZzpMtlKa3Sl5MOt6KAuDvgNtyYcrfKN5JetGB0Sbx87zjzLu2C1yGXHwn0QcLgfJIBDPwFyE07YXnu+6ntU5OiesfIXrm377z4EATXZ3zInP1l1EFkmbkoDreRZ+SdXc39d7kwwEf98CZR0mm+SAlzWPXRCjvKETQ40lmSnCn2+KUBz2PChgRiVzbOMisU5noVmNXgs5u6uJwQPKWxUwxQMstDG029+/P78KbtPC11Uh04UQOSiLnf/x9rf7v9SAaBZU6l/2eu2+VOvSyIcZirU/246ZVf6OfZO5tiqY/EDyph7nqIhg54Gza3OQOAMIsDGeOhw6qDbF7hXwqFD/QK3fboeRaDgfrO1TfSjDl6qBtoqnZZvwVqxxIYPrWryCVm6EvYjSNCzX6YINlf5HcDysb38FnN3aDxR8r7BzWvyZ6IMiN2nUd09Erz/eba4ss1Nkz1OQjdwnu0aO8IkWWr4sa7Bapqd47LdqeWJHKHT4bbAVd6F1z+niB8E7sAte7QAAAAAA==" vertex="1" parent="1">
                    <mxGeometry x="260" y="167" width="50" height="50" as="geometry"/>
                </mxCell>
                <mxCell id="7" value="" style="shape=image;verticalLabelPosition=bottom;verticalAlign=top;imageAspect=0;aspect=fixed;image=data:image/webp,UklGRiQgAABXRUJQVlA4WAoAAAAwAAAAfwAAfwAASUNDUEgMAAAAAAxITGlubwIQAABtbnRyUkdCIFhZWiAHzgACAAkABgAxAABhY3NwTVNGVAAAAABJRUMgc1JHQgAAAAAAAAAAAAAAAAAA9tYAAQAAAADTLUhQICAAAAAAAAAAAAAAAAAAAAAAAAAAAAAAAAAAAAAAAAAAAAAAAAAAAAAAAAAAAAAAABFjcHJ0AAABUAAAADNkZXNjAAABhAAAAGx3dHB0AAAB8AAAABRia3B0AAACBAAAABRyWFlaAAACGAAAABRnWFlaAAACLAAAABRiWFlaAAACQAAAABRkbW5kAAACVAAAAHBkbWRkAAACxAAAAIh2dWVkAAADTAAAAIZ2aWV3AAAD1AAAACRsdW1pAAAD+AAAABRtZWFzAAAEDAAAACR0ZWNoAAAEMAAAAAxyVFJDAAAEPAAACAxnVFJDAAAEPAAACAxiVFJDAAAEPAAACAx0ZXh0AAAAAENvcHlyaWdodCAoYykgMTk5OCBIZXdsZXR0LVBhY2thcmQgQ29tcGFueQAAZGVzYwAAAAAAAAASc1JHQiBJRUM2MTk2Ni0yLjEAAAAAAAAAAAAAABJzUkdCIElFQzYxOTY2LTIuMQAAAAAAAAAAAAAAAAAAAAAAAAAAAAAAAAAAAAAAAAAAAAAAAAAAAAAAAAAAAAAAAAAAWFlaIAAAAAAAAPNRAAEAAAABFsxYWVogAAAAAAAAAAAAAAAAAAAAAFhZWiAAAAAAAABvogAAOPUAAAOQWFlaIAAAAAAAAGKZAAC3hQAAGNpYWVogAAAAAAAAJKAAAA+EAAC2z2Rlc2MAAAAAAAAAFklFQyBodHRwOi8vd3d3LmllYy5jaAAAAAAAAAAAAAAAFklFQyBodHRwOi8vd3d3LmllYy5jaAAAAAAAAAAAAAAAAAAAAAAAAAAAAAAAAAAAAAAAAAAAAAAAAAAAAAAAAAAAAABkZXNjAAAAAAAAAC5JRUMgNjE5NjYtMi4xIERlZmF1bHQgUkdCIGNvbG91ciBzcGFjZSAtIHNSR0IAAAAAAAAAAAAAAC5JRUMgNjE5NjYtMi4xIERlZmF1bHQgUkdCIGNvbG91ciBzcGFjZSAtIHNSR0IAAAAAAAAAAAAAAAAAAAAAAAAAAAAAZGVzYwAAAAAAAAAsUmVmZXJlbmNlIFZpZXdpbmcgQ29uZGl0aW9uIGluIElFQzYxOTY2LTIuMQAAAAAAAAAAAAAALFJlZmVyZW5jZSBWaWV3aW5nIENvbmRpdGlvbiBpbiBJRUM2MTk2Ni0yLjEAAAAAAAAAAAAAAAAAAAAAAAAAAAAAAAAAAHZpZXcAAAAAABOk/gAUXy4AEM8UAAPtzAAEEwsAA1yeAAAAAVhZWiAAAAAAAEwJVgBQAAAAVx/nbWVhcwAAAAAAAAABAAAAAAAAAAAAAAAAAAAAAAAAAo8AAAACc2lnIAAAAABDUlQgY3VydgAAAAAAAAQAAAAABQAKAA8AFAAZAB4AIwAoAC0AMgA3ADsAQABFAEoATwBUAFkAXgBjAGgAbQByAHcAfACBAIYAiwCQAJUAmgCfAKQAqQCuALIAtwC8AMEAxgDLANAA1QDbAOAA5QDrAPAA9gD7AQEBBwENARMBGQEfASUBKwEyATgBPgFFAUwBUgFZAWABZwFuAXUBfAGDAYsBkgGaAaEBqQGxAbkBwQHJAdEB2QHhAekB8gH6AgMCDAIUAh0CJgIvAjgCQQJLAlQCXQJnAnECegKEAo4CmAKiAqwCtgLBAssC1QLgAusC9QMAAwsDFgMhAy0DOANDA08DWgNmA3IDfgOKA5YDogOuA7oDxwPTA+AD7AP5BAYEEwQgBC0EOwRIBFUEYwRxBH4EjASaBKgEtgTEBNME4QTwBP4FDQUcBSsFOgVJBVgFZwV3BYYFlgWmBbUFxQXVBeUF9gYGBhYGJwY3BkgGWQZqBnsGjAadBq8GwAbRBuMG9QcHBxkHKwc9B08HYQd0B4YHmQesB78H0gflB/gICwgfCDIIRghaCG4IggiWCKoIvgjSCOcI+wkQCSUJOglPCWQJeQmPCaQJugnPCeUJ+woRCicKPQpUCmoKgQqYCq4KxQrcCvMLCwsiCzkLUQtpC4ALmAuwC8gL4Qv5DBIMKgxDDFwMdQyODKcMwAzZDPMNDQ0mDUANWg10DY4NqQ3DDd4N+A4TDi4OSQ5kDn8Omw62DtIO7g8JDyUPQQ9eD3oPlg+zD88P7BAJECYQQxBhEH4QmxC5ENcQ9RETETERTxFtEYwRqhHJEegSBxImEkUSZBKEEqMSwxLjEwMTIxNDE2MTgxOkE8UT5RQGFCcUSRRqFIsUrRTOFPAVEhU0FVYVeBWbFb0V4BYDFiYWSRZsFo8WshbWFvoXHRdBF2UXiReuF9IX9xgbGEAYZRiKGK8Y1Rj6GSAZRRlrGZEZtxndGgQaKhpRGncanhrFGuwbFBs7G2MbihuyG9ocAhwqHFIcexyjHMwc9R0eHUcdcB2ZHcMd7B4WHkAeah6UHr4e6R8THz4faR+UH78f6iAVIEEgbCCYIMQg8CEcIUghdSGhIc4h+yInIlUigiKvIt0jCiM4I2YjlCPCI/AkHyRNJHwkqyTaJQklOCVoJZclxyX3JicmVyaHJrcm6CcYJ0kneierJ9woDSg/KHEooijUKQYpOClrKZ0p0CoCKjUqaCqbKs8rAis2K2krnSvRLAUsOSxuLKIs1y0MLUEtdi2rLeEuFi5MLoIuty7uLyQvWi+RL8cv/jA1MGwwpDDbMRIxSjGCMbox8jIqMmMymzLUMw0zRjN/M7gz8TQrNGU0njTYNRM1TTWHNcI1/TY3NnI2rjbpNyQ3YDecN9c4FDhQOIw4yDkFOUI5fzm8Ofk6Njp0OrI67zstO2s7qjvoPCc8ZTykPOM9Ij1hPaE94D4gPmA+oD7gPyE/YT+iP+JAI0BkQKZA50EpQWpBrEHuQjBCckK1QvdDOkN9Q8BEA0RHRIpEzkUSRVVFmkXeRiJGZ0arRvBHNUd7R8BIBUhLSJFI10kdSWNJqUnwSjdKfUrESwxLU0uaS+JMKkxyTLpNAk1KTZNN3E4lTm5Ot08AT0lPk0/dUCdQcVC7UQZRUFGbUeZSMVJ8UsdTE1NfU6pT9lRCVI9U21UoVXVVwlYPVlxWqVb3V0RXklfgWC9YfVjLWRpZaVm4WgdaVlqmWvVbRVuVW+VcNVyGXNZdJ114XcleGl5sXr1fD19hX7NgBWBXYKpg/GFPYaJh9WJJYpxi8GNDY5dj62RAZJRk6WU9ZZJl52Y9ZpJm6Gc9Z5Nn6Wg/aJZo7GlDaZpp8WpIap9q92tPa6dr/2xXbK9tCG1gbbluEm5rbsRvHm94b9FwK3CGcOBxOnGVcfByS3KmcwFzXXO4dBR0cHTMdSh1hXXhdj52m3b4d1Z3s3gReG54zHkqeYl553pGeqV7BHtje8J8IXyBfOF9QX2hfgF+Yn7CfyN/hH/lgEeAqIEKgWuBzYIwgpKC9INXg7qEHYSAhOOFR4Wrhg6GcobXhzuHn4gEiGmIzokziZmJ/opkisqLMIuWi/yMY4zKjTGNmI3/jmaOzo82j56QBpBukNaRP5GokhGSepLjk02TtpQglIqU9JVflcmWNJaflwqXdZfgmEyYuJkkmZCZ/JpomtWbQpuvnByciZz3nWSd0p5Anq6fHZ+Ln/qgaaDYoUehtqImopajBqN2o+akVqTHpTilqaYapoum/adup+CoUqjEqTepqaocqo+rAqt1q+msXKzQrUStuK4trqGvFq+LsACwdbDqsWCx1rJLssKzOLOutCW0nLUTtYq2AbZ5tvC3aLfguFm40blKucK6O7q1uy67p7whvJu9Fb2Pvgq+hL7/v3q/9cBwwOzBZ8Hjwl/C28NYw9TEUcTOxUvFyMZGxsPHQce/yD3IvMk6ybnKOMq3yzbLtsw1zLXNNc21zjbOts83z7jQOdC60TzRvtI/0sHTRNPG1EnUy9VO1dHWVdbY11zX4Nhk2OjZbNnx2nba+9uA3AXcit0Q3ZbeHN6i3ynfr+A24L3hROHM4lPi2+Nj4+vkc+T85YTmDeaW5x/nqegy6LzpRunQ6lvq5etw6/vshu0R7ZzuKO6070DvzPBY8OXxcvH/8ozzGfOn9DT0wvVQ9d72bfb794r4Gfio+Tj5x/pX+uf7d/wH/Jj9Kf26/kv+3P9t//9BTFBInAUAAAHwhW3b4eb//93Vy7Zt27Zt23693++XzaW3bdv2TFAG1aPaTGM2mGOhbTKZua/1iJgA5epzv7cxO9/7/hFK6EvaWd36y6kSXdJJ1f85XZiGG8Os7Dc9Hs8MK/9+hiCNt/QClP1DrLTC3az81zlCNF4bBqi0jVJlXxcr/dcK0HjrBoCif4wa+7ssAP+1mmu8dRNA0T+OjQNtFkDrtRpruW8AYNk/gc0DnRZA960Nemq5bwhg2TtLHYf8ZYCeWxv0s9l9wwAF7xx1HvKXAfrua9TLZo9NAWQ8Czhw0lsC6L+vSR+bPzYNkPEs4NBJbwlg/X1Netj6+RmAjGcRB095CgAjjzW7b5vn5wDSZgyHT3vyAKOPNbtrm+fnAVJmHBfOeHIAY89v7p5tX4kCRM0ELo2YOYCJ57dwx3avxACiZhIXR8wswOTzWzpv53fjAEtmCpdHzRTAwitbOmuXdxMAETOLBqNmEmDhla2cs+u7SYBFM4cmY2YCIPLuds7Y7dMswIwnj0bTZhwg8u729dvrq3mAyf8V0GymPQ6w9ObWdXo8ATBuFtFwpjUKMHZpXT4EGPOX0HTWjAClW+pwP5A3S2g86bOgeIJtO0UgF0bzHqC9wa5ngVa0bwJn2OWBIPrPzMHnbdpiGToFwISwTWdDpiDBAJS2tuczEEZCKw4X2PM7MEQgCK/ZMw1dMpjwZ1v2BysqQxAiDXbcAaPImKrAIXZ8CXxCMAz32dEFXil88A0btlyGQUF6bDgH0mUpRqC8XW2fhRBSWjG4qLbfgyEGAXijthkIyGHAX2s6AKyYHCFYaqjlThhBznQZDqvly+AThCG4v5YAeCXxwjdr2HIZhiTxQ28N50KqLMkoVLar7nMQQlIrCpdU9wcwRKEL3qpuDgKyGPD3qg4EKyZLGOKN1dwFI8iaLsMR1XwFfMIwAA9WEwSvNF74dhVbFmFIGj/0V3EeJCvSjENl+7VegSDSWktw6Vp/BEMcuuDtteYgKI8B/1jjILDi8nRDvHG1u2EYeTMlOHK1r4JXIDbBw6uFhPLAd1fZqgTDEvlh/SrnQ6Ii0ThYO654FQKIvAiXr/gTGDJ1wrsr5iEokwH/UkodDJW4TD2QbFTqHhhE5mwJjlbqa+AVio3wiFJhwTzwPbV1CYal8sMGdQEkKlJNgrXTaxBA7AW44k9gyBWE94bAI5cPfpUHUy4v+OJgyBWC//RCn1jZDHzv81AZksoP3HGcBR1CZWYgvrX6BeCVyQs8rdQuk5BfL1EbYDYppU4rwExUnoEszO2lVj4JhMrSxCegeK5a/fuAIYzVATyr1twiBFaHLAbwC1XlAUsQn5AkVIaN21ajrqnAQFaOmSikjlTVfwD4xShsAOsWVWPjPwCPFF7gU1XzTqNQ6JHBD/y/uTZ1Qg5mliQYyMHcnsrOx4BQWX/xSSieo+z9HmBorxIAnlY2bxEEq113BvBzZfv+EUiM6C1Uhr6t7VOXlmEwq7PpKKSOUPV8F2jVWH4DWDerujb+HfDoywd8rOq84wgUe3XlBf7fVC91fA5m5/W0KQdTu6r63wt0l3QUm4Ti2cqJ3wEMDVUCwJPKkZsHwGrTjwH8TDl0vwikR3TTVYG+rZyiLi7DYFov01FIHaGc+zbQqpX8BrBuUg5u+ANg6sQHfKgcveMwFHv14QH+1+QsdVwWFhZ0sa4Ak7sqp98NhIt6iE1C8Szl/G8ChhYqAeBx5cKWVrDadGAAP1Wu3HcRMsPu66pA71buUBeVYTTltqkoxA9Wbn0D8Fnuym8E60bl2obfAaa7fMD7ysU7DEEx7CYT+Fejm9TxWcj0usdrwfguyt33AkUj7Y7ZVqBwqnL7VwGyrYa/zdH/+49hhMoAjyjXN/0EV7+uNNj0Wt49C7crPe7/djDmAmvm/0/toJwIVlA4IBIOAAAwPgCdASqAAIAAPjEUiUMiISEUyN58IAMEtgBmotC/mevKv50j8l/597w1ffkH8R/I/7q/5fp1TT+mvuj+z/uv48fRH+7f0n2I/nf2Cf0o/yHUA8wH83/sH7D+7x/cf8p/L/cP+vX6c/275AP6V/kOsf9AD+I/2H0tP2Z/+PyVfsl+5fwJ/zz/Bf97rAP/v1h/TX+Ydo386/Ij9t+2j8XevPmq+NXpDxL/XH7Z/Xv3I/sn7c/Bf+H8FfhLqBfhX8d/vv5gflzx7ea+YF7B/WP839vnOx9VfYA/Vr/X+rP/A8EXjd9oH2Afyb+t/5/7ovpa/hP+h/jvyy9pv5t/df+B/kvgE/l39P/3v979nT11fsX/9PdC/Xhwbtwfc4vkNKOJpfnujH+HnFZXkub9TcY/39DcEWgD1tn2Rwff6vl4ciZG2oSAq6W+ft05qlzyhIRYVD1ZfK3fznbO4VS+iwXNZbkTcazKFwl4qnBd2mvr38CZz5cyMrAj2pP8ESvWreHCkr5KD6pjKugWYgRNeiSWK/g2+toDYdyBILOJVxIgh98Ck9T6bZMzS1qOWgaMyg6m5al9mnPPaf5N95Skb334QUonoHnSRjAQGUSX4vcneY9LD4PvcmR9NFagWr9Exow0QBRLhWxu5kNZMrHTVTihRWzyiGmy4rPS3AD+/2Aad//m4Bp//bt6icg7RK3Vm693ntHOBrLY5h7hDW0sC9cGxEibW3Y57+yJf30XbJWTcCQSwZvpsnuFVtR6wLmhadWd8IcPcIx1FuVxhBE1Nl3Sf3mO8GXt08KDvdZ2WimFZ1YHFqi2ncVvb4ZkmtJ7+VzcCQTObwwSQV9Ty0An1RvXPyTE6MmeEZAF0DAGQnk4jwp8rxuWtARNXzqzOKh9nOsH7MhRmdEVqwNjaE2pB/hdygjuhByXn8SEJ0xiX/TG1V0rukC9TevhDijAiNCct5JQYXKcrpwWHe1o/xS8TwqykDXljwVfq9/Ae2reZWmHeV48v3BdiX+IYl2OEsLUH5Cf/w/swTyX/t3whFtx3fQ2NThwcew7cGFqsQYHV7kGZQGBnAtHrvRaEAWcvs0/YDSxJ0nhDh32DvMLqAAN+MCwsGZeyabet37Zvbwhi//cRmKnx6OMyLhglETc03wUh6K32k9dbprB8EEoOqwlEhF25Wgtqi6rMD7rlXYSw43RlSxen9n67IR1hU+RSRqelvojBqU6yvM+Khsd7OMZaczmQ14EAQMSIQla/SPD+FETYZg5syoTJ3b15sYe7rjCpVKfDFbEeERYT+QYtIQ98Jn7skVmtV9NvPy4i1bCNmuCvfKiElf0Ui34M+HIMdf8JZrViit9ajMAACTkGfJi/hweE50ScNbM8jhYarhwq7FTf9uY+6CiObtA2rxR9CO8/xRsHkxyaXfUqwGrhl22b7ijVsDN1oIALyGD7Z//bwZ7X+PabkyfuLCsy8tVhPpICAD/de/TeZ0QqqJrhn7OkdcIvyVB7PzFQdFPYoJg0AxHvXOr7hnQCxsuMpBwM6nEo5ICbrBtv/d7RTq2r6daMvFzqtie745zIDfrYgjwdSpKE8ipgXz5Cgg//4OHob85rdh4QE8vajJoshtPiSk7LH897lF1ENfC+yPXc3JWqrfcMcYTqvsChDmjzEyEmH9qOx5ZOHOX1J9jn2BGwt6CmlxM62nLngHnyx3jrOUZPP2Hnw07Vj1mI+ZCrZvk1aDLydIReYvwAZzk5/FIyRT7w+MwH/seBw94ONNgc8Qtxhf8IlzuKjtKzVoShRAIbA9288rhyabhPqJDH5HUhqRJDiMF/6dzXQaUSTKtMM3zz6yoOCYA9oJRQxEM2QNE1KJnzDUP5tkodrfztKbzqmoN92qrx7oWr+xRIITbffuJljDHX85RRe6jWXXI6EExTyfWJPuo21oT/aNghALGfzPlMlLh94nRB8jsmAPCy2sf3oMgVN1cgbqEkqeV/ZEgLLOa6oHBM7h2OJh/8ISReC7nhSRKcYbZDjO2gNifFV79d6gsofc14O+JupbGIvGqZD946vZPeZwjfof1mWTrTYW2ZbfKQKdXO30AeX/mW+MUpHjpQNqQAISqS3WC1MYL76u9stKdCOZJBf2/PzwTD4heGONxi2nhn9MwusCVahLxeAqWvvOGGOeMEbtUh2fuFsUhEjWMLc6KI3MdUh5ks3v4bVPCDpYVyRUWXrI2SZKADzQwVsnnxmFY9MM6QHKiY90s7RrYCGj4Lqn67V6S4yV0CcZvBxv3kU3ehyd4B7XEAMEsdrjb4ZjQJIiC2doNT/Cflzw7zVv9sBgnrIDwP+dmN7lqoSJkIM7xrwCSWys06JeHEJ2ciUv9FHN/f4mN1etxNGSpJ80BC8OdWUwuUT8m0W18CH/rzeH5F2SOprYmJnK4uQwWQikdSKFRTgq3/kM2Ye6AVh0f+ap+4pqpTvyviskGT9EEYvEk6D6Vibl9XX5HPlhOatHTOxFMW3Iw2gyUMiHk2L+Rqqylr+K8P5MzYrSDWkafdkU3uPO6di5SvnEKvuT1xyjpCSJmQbb2JQ5Ko9Xwloddp/kpF4ECqMiugCBj2sviFAXuDyoEl38dk2bDTEgCSvU3Nkyz/o3w52/iq8SpvxX3MZZBfF4JaQPB2njhU89AKKXSxBCOwlCwJOPQRQzAHarx6txJZInSz8MYklUi7vCpJuZb/Mq8+BPBpoekAOk8whygMSdx4hon5NHd2rCYrygqef7jHb4mITtm8AZqadDNEqcpr8Cxu3g+r8lT3s9BQ8foQBVDuneyIc5vaky/xWdxbpLSGHsp0JRXGJaeo43JEBqfXeV4McUwhFqICspkseeStdaq461LxfbxycK4s5+HlPF6YeIK5lOLAwNoay6luZMEwLTsDZBs+b9Ojtdct/SGIE0OcsRl01foqe9BNUyKvaimqkpgglSExNHj/5ijvwVWR0VVSfgfQSql2EZOpBRU8q7i7w6dViKJLZ6qt8U2CZRUidrjGaQuyoyzVcZ3pp5PyZTn6GXBEomspZIlB7o7JRJ3dUrWH7gCWYJ5dKLS/M8XOAEPJkpyhNQV9J9e1ni56QQXxQlUVMZdxtpe7jo35DiFlLZ49MQUulvIvR/7EscI5BpFkbWVburdfKFhj9fOfI8wzYJl9lsYhvHOR7T4AziuzSo/MAZd6rOxcrmcVTsWOCjwEHoljOKG33akt9WdhaAngQqN6ss9oFva2jyScZhnXD1RlXEW8gKHyObW+5kaAIT55lMloE7VA6fYFmacHsbeeBMp40gvkc0KI7Zxs0I1xayJP1jj8Ijbu1h1an2kCA9M9Bnsz9/4sMquFFD10y65zkVaaAssf+3nSRNtfWLTBvOUU2M5RSJo+WapelGB+sXWrEmnAXTBXL5YozOk8IjaAXLdE9IkoH5OMZN+FfN0Cx3Sg25qBFvWWBxQrEugTdVIiR4iDHIbW2fM80x423vrKnXV8WFVPSzRgvNo6gfclKtLcg5D6YcufUWYvh0pn//icIb+0PXMw7lcT1auA1oAH6/gH36u9h9+Lr396GMQZVxahJk7uaIoMwj4trvWjlFBfbrCYQbUAD8RqpEn7ofXk23UGAZ5nersKxbHzVt+HPSPUg2rJ03CW2QwHi8+7PYwzHVYfksCsy+LX+TcGdG7O4ITAmHg0hS6zWTBI9itrl83y1ukUovMINnREA/3H5QqO514521x6aBxfMjKmRBb///WhAEzej5EH/6pC5ZrrHQU/Dae7NGDktLg+qH+153phVUsv+tKJEZrAZ//DMC/eju+KzxsIkGwlLoTSap5lqx5JTlv4OdwXfm4wRa5WOFXv/nW45CLkplh8cFrl83XkiTRaJor+tbs7X4lCBk9yZBAvTbZypOGIj4eKzw0o3E/A3A/2mCH/hPkFuJSbzfsaq6tp57cU6xTvbJvtizxt2L0Z0SuJZwM/wl7BznYeL267/b/2uuvoCHu8oQtB1IJ4sb7b1scxLYProUqc/FKDtNB68jn51jAsc2Nq4PlfQXVnQQcxTED9HlMEljRhAkLAY+//M0EuTeG8H+/ERoEihcrs764CgDOH1AI/CGvvK9bwGxIFT8f6/eD3WDec3Xb2zkmaZlemqKANclaD3EwU44gqepW1IQvFylGbaNB+jJfCO4ZbQhNVi6383bnn425GHh2yJmVUFz2YRwnYCMf8S4dD26UFW9VkyyGjUZ9pnpiATRUYyEX24+7CS6MJntkrN8iOknRV3o90JhaUs6dQrltZGaXjJmsIET3calvO59zovZzpMtlKa3Sl5MOt6KAuDvgNtyYcrfKN5JetGB0Sbx87zjzLu2C1yGXHwn0QcLgfJIBDPwFyE07YXnu+6ntU5OiesfIXrm377z4EATXZ3zInP1l1EFkmbkoDreRZ+SdXc39d7kwwEf98CZR0mm+SAlzWPXRCjvKETQ40lmSnCn2+KUBz2PChgRiVzbOMisU5noVmNXgs5u6uJwQPKWxUwxQMstDG029+/P78KbtPC11Uh04UQOSiLnf/x9rf7v9SAaBZU6l/2eu2+VOvSyIcZirU/246ZVf6OfZO5tiqY/EDyph7nqIhg54Gza3OQOAMIsDGeOhw6qDbF7hXwqFD/QK3fboeRaDgfrO1TfSjDl6qBtoqnZZvwVqxxIYPrWryCVm6EvYjSNCzX6YINlf5HcDysb38FnN3aDxR8r7BzWvyZ6IMiN2nUd09Erz/eba4ss1Nkz1OQjdwnu0aO8IkWWr4sa7Bapqd47LdqeWJHKHT4bbAVd6F1z+niB8E7sAte7QAAAAAA==" vertex="1" parent="1">
                    <mxGeometry x="270" y="167" width="50" height="50" as="geometry"/>
                </mxCell>
                <mxCell id="8" value="" style="shape=image;verticalLabelPosition=bottom;verticalAlign=top;imageAspect=0;aspect=fixed;image=data:image/webp,UklGRiQgAABXRUJQVlA4WAoAAAAwAAAAfwAAfwAASUNDUEgMAAAAAAxITGlubwIQAABtbnRyUkdCIFhZWiAHzgACAAkABgAxAABhY3NwTVNGVAAAAABJRUMgc1JHQgAAAAAAAAAAAAAAAAAA9tYAAQAAAADTLUhQICAAAAAAAAAAAAAAAAAAAAAAAAAAAAAAAAAAAAAAAAAAAAAAAAAAAAAAAAAAAAAAABFjcHJ0AAABUAAAADNkZXNjAAABhAAAAGx3dHB0AAAB8AAAABRia3B0AAACBAAAABRyWFlaAAACGAAAABRnWFlaAAACLAAAABRiWFlaAAACQAAAABRkbW5kAAACVAAAAHBkbWRkAAACxAAAAIh2dWVkAAADTAAAAIZ2aWV3AAAD1AAAACRsdW1pAAAD+AAAABRtZWFzAAAEDAAAACR0ZWNoAAAEMAAAAAxyVFJDAAAEPAAACAxnVFJDAAAEPAAACAxiVFJDAAAEPAAACAx0ZXh0AAAAAENvcHlyaWdodCAoYykgMTk5OCBIZXdsZXR0LVBhY2thcmQgQ29tcGFueQAAZGVzYwAAAAAAAAASc1JHQiBJRUM2MTk2Ni0yLjEAAAAAAAAAAAAAABJzUkdCIElFQzYxOTY2LTIuMQAAAAAAAAAAAAAAAAAAAAAAAAAAAAAAAAAAAAAAAAAAAAAAAAAAAAAAAAAAAAAAAAAAWFlaIAAAAAAAAPNRAAEAAAABFsxYWVogAAAAAAAAAAAAAAAAAAAAAFhZWiAAAAAAAABvogAAOPUAAAOQWFlaIAAAAAAAAGKZAAC3hQAAGNpYWVogAAAAAAAAJKAAAA+EAAC2z2Rlc2MAAAAAAAAAFklFQyBodHRwOi8vd3d3LmllYy5jaAAAAAAAAAAAAAAAFklFQyBodHRwOi8vd3d3LmllYy5jaAAAAAAAAAAAAAAAAAAAAAAAAAAAAAAAAAAAAAAAAAAAAAAAAAAAAAAAAAAAAABkZXNjAAAAAAAAAC5JRUMgNjE5NjYtMi4xIERlZmF1bHQgUkdCIGNvbG91ciBzcGFjZSAtIHNSR0IAAAAAAAAAAAAAAC5JRUMgNjE5NjYtMi4xIERlZmF1bHQgUkdCIGNvbG91ciBzcGFjZSAtIHNSR0IAAAAAAAAAAAAAAAAAAAAAAAAAAAAAZGVzYwAAAAAAAAAsUmVmZXJlbmNlIFZpZXdpbmcgQ29uZGl0aW9uIGluIElFQzYxOTY2LTIuMQAAAAAAAAAAAAAALFJlZmVyZW5jZSBWaWV3aW5nIENvbmRpdGlvbiBpbiBJRUM2MTk2Ni0yLjEAAAAAAAAAAAAAAAAAAAAAAAAAAAAAAAAAAHZpZXcAAAAAABOk/gAUXy4AEM8UAAPtzAAEEwsAA1yeAAAAAVhZWiAAAAAAAEwJVgBQAAAAVx/nbWVhcwAAAAAAAAABAAAAAAAAAAAAAAAAAAAAAAAAAo8AAAACc2lnIAAAAABDUlQgY3VydgAAAAAAAAQAAAAABQAKAA8AFAAZAB4AIwAoAC0AMgA3ADsAQABFAEoATwBUAFkAXgBjAGgAbQByAHcAfACBAIYAiwCQAJUAmgCfAKQAqQCuALIAtwC8AMEAxgDLANAA1QDbAOAA5QDrAPAA9gD7AQEBBwENARMBGQEfASUBKwEyATgBPgFFAUwBUgFZAWABZwFuAXUBfAGDAYsBkgGaAaEBqQGxAbkBwQHJAdEB2QHhAekB8gH6AgMCDAIUAh0CJgIvAjgCQQJLAlQCXQJnAnECegKEAo4CmAKiAqwCtgLBAssC1QLgAusC9QMAAwsDFgMhAy0DOANDA08DWgNmA3IDfgOKA5YDogOuA7oDxwPTA+AD7AP5BAYEEwQgBC0EOwRIBFUEYwRxBH4EjASaBKgEtgTEBNME4QTwBP4FDQUcBSsFOgVJBVgFZwV3BYYFlgWmBbUFxQXVBeUF9gYGBhYGJwY3BkgGWQZqBnsGjAadBq8GwAbRBuMG9QcHBxkHKwc9B08HYQd0B4YHmQesB78H0gflB/gICwgfCDIIRghaCG4IggiWCKoIvgjSCOcI+wkQCSUJOglPCWQJeQmPCaQJugnPCeUJ+woRCicKPQpUCmoKgQqYCq4KxQrcCvMLCwsiCzkLUQtpC4ALmAuwC8gL4Qv5DBIMKgxDDFwMdQyODKcMwAzZDPMNDQ0mDUANWg10DY4NqQ3DDd4N+A4TDi4OSQ5kDn8Omw62DtIO7g8JDyUPQQ9eD3oPlg+zD88P7BAJECYQQxBhEH4QmxC5ENcQ9RETETERTxFtEYwRqhHJEegSBxImEkUSZBKEEqMSwxLjEwMTIxNDE2MTgxOkE8UT5RQGFCcUSRRqFIsUrRTOFPAVEhU0FVYVeBWbFb0V4BYDFiYWSRZsFo8WshbWFvoXHRdBF2UXiReuF9IX9xgbGEAYZRiKGK8Y1Rj6GSAZRRlrGZEZtxndGgQaKhpRGncanhrFGuwbFBs7G2MbihuyG9ocAhwqHFIcexyjHMwc9R0eHUcdcB2ZHcMd7B4WHkAeah6UHr4e6R8THz4faR+UH78f6iAVIEEgbCCYIMQg8CEcIUghdSGhIc4h+yInIlUigiKvIt0jCiM4I2YjlCPCI/AkHyRNJHwkqyTaJQklOCVoJZclxyX3JicmVyaHJrcm6CcYJ0kneierJ9woDSg/KHEooijUKQYpOClrKZ0p0CoCKjUqaCqbKs8rAis2K2krnSvRLAUsOSxuLKIs1y0MLUEtdi2rLeEuFi5MLoIuty7uLyQvWi+RL8cv/jA1MGwwpDDbMRIxSjGCMbox8jIqMmMymzLUMw0zRjN/M7gz8TQrNGU0njTYNRM1TTWHNcI1/TY3NnI2rjbpNyQ3YDecN9c4FDhQOIw4yDkFOUI5fzm8Ofk6Njp0OrI67zstO2s7qjvoPCc8ZTykPOM9Ij1hPaE94D4gPmA+oD7gPyE/YT+iP+JAI0BkQKZA50EpQWpBrEHuQjBCckK1QvdDOkN9Q8BEA0RHRIpEzkUSRVVFmkXeRiJGZ0arRvBHNUd7R8BIBUhLSJFI10kdSWNJqUnwSjdKfUrESwxLU0uaS+JMKkxyTLpNAk1KTZNN3E4lTm5Ot08AT0lPk0/dUCdQcVC7UQZRUFGbUeZSMVJ8UsdTE1NfU6pT9lRCVI9U21UoVXVVwlYPVlxWqVb3V0RXklfgWC9YfVjLWRpZaVm4WgdaVlqmWvVbRVuVW+VcNVyGXNZdJ114XcleGl5sXr1fD19hX7NgBWBXYKpg/GFPYaJh9WJJYpxi8GNDY5dj62RAZJRk6WU9ZZJl52Y9ZpJm6Gc9Z5Nn6Wg/aJZo7GlDaZpp8WpIap9q92tPa6dr/2xXbK9tCG1gbbluEm5rbsRvHm94b9FwK3CGcOBxOnGVcfByS3KmcwFzXXO4dBR0cHTMdSh1hXXhdj52m3b4d1Z3s3gReG54zHkqeYl553pGeqV7BHtje8J8IXyBfOF9QX2hfgF+Yn7CfyN/hH/lgEeAqIEKgWuBzYIwgpKC9INXg7qEHYSAhOOFR4Wrhg6GcobXhzuHn4gEiGmIzokziZmJ/opkisqLMIuWi/yMY4zKjTGNmI3/jmaOzo82j56QBpBukNaRP5GokhGSepLjk02TtpQglIqU9JVflcmWNJaflwqXdZfgmEyYuJkkmZCZ/JpomtWbQpuvnByciZz3nWSd0p5Anq6fHZ+Ln/qgaaDYoUehtqImopajBqN2o+akVqTHpTilqaYapoum/adup+CoUqjEqTepqaocqo+rAqt1q+msXKzQrUStuK4trqGvFq+LsACwdbDqsWCx1rJLssKzOLOutCW0nLUTtYq2AbZ5tvC3aLfguFm40blKucK6O7q1uy67p7whvJu9Fb2Pvgq+hL7/v3q/9cBwwOzBZ8Hjwl/C28NYw9TEUcTOxUvFyMZGxsPHQce/yD3IvMk6ybnKOMq3yzbLtsw1zLXNNc21zjbOts83z7jQOdC60TzRvtI/0sHTRNPG1EnUy9VO1dHWVdbY11zX4Nhk2OjZbNnx2nba+9uA3AXcit0Q3ZbeHN6i3ynfr+A24L3hROHM4lPi2+Nj4+vkc+T85YTmDeaW5x/nqegy6LzpRunQ6lvq5etw6/vshu0R7ZzuKO6070DvzPBY8OXxcvH/8ozzGfOn9DT0wvVQ9d72bfb794r4Gfio+Tj5x/pX+uf7d/wH/Jj9Kf26/kv+3P9t//9BTFBInAUAAAHwhW3b4eb//93Vy7Zt27Zt23693++XzaW3bdv2TFAG1aPaTGM2mGOhbTKZua/1iJgA5epzv7cxO9/7/hFK6EvaWd36y6kSXdJJ1f85XZiGG8Os7Dc9Hs8MK/9+hiCNt/QClP1DrLTC3az81zlCNF4bBqi0jVJlXxcr/dcK0HjrBoCif4wa+7ssAP+1mmu8dRNA0T+OjQNtFkDrtRpruW8AYNk/gc0DnRZA960Nemq5bwhg2TtLHYf8ZYCeWxv0s9l9wwAF7xx1HvKXAfrua9TLZo9NAWQ8Czhw0lsC6L+vSR+bPzYNkPEs4NBJbwlg/X1Netj6+RmAjGcRB095CgAjjzW7b5vn5wDSZgyHT3vyAKOPNbtrm+fnAVJmHBfOeHIAY89v7p5tX4kCRM0ELo2YOYCJ57dwx3avxACiZhIXR8wswOTzWzpv53fjAEtmCpdHzRTAwitbOmuXdxMAETOLBqNmEmDhla2cs+u7SYBFM4cmY2YCIPLuds7Y7dMswIwnj0bTZhwg8u729dvrq3mAyf8V0GymPQ6w9ObWdXo8ATBuFtFwpjUKMHZpXT4EGPOX0HTWjAClW+pwP5A3S2g86bOgeIJtO0UgF0bzHqC9wa5ngVa0bwJn2OWBIPrPzMHnbdpiGToFwISwTWdDpiDBAJS2tuczEEZCKw4X2PM7MEQgCK/ZMw1dMpjwZ1v2BysqQxAiDXbcAaPImKrAIXZ8CXxCMAz32dEFXil88A0btlyGQUF6bDgH0mUpRqC8XW2fhRBSWjG4qLbfgyEGAXijthkIyGHAX2s6AKyYHCFYaqjlThhBznQZDqvly+AThCG4v5YAeCXxwjdr2HIZhiTxQ28N50KqLMkoVLar7nMQQlIrCpdU9wcwRKEL3qpuDgKyGPD3qg4EKyZLGOKN1dwFI8iaLsMR1XwFfMIwAA9WEwSvNF74dhVbFmFIGj/0V3EeJCvSjENl+7VegSDSWktw6Vp/BEMcuuDtteYgKI8B/1jjILDi8nRDvHG1u2EYeTMlOHK1r4JXIDbBw6uFhPLAd1fZqgTDEvlh/SrnQ6Ii0ThYO654FQKIvAiXr/gTGDJ1wrsr5iEokwH/UkodDJW4TD2QbFTqHhhE5mwJjlbqa+AVio3wiFJhwTzwPbV1CYal8sMGdQEkKlJNgrXTaxBA7AW44k9gyBWE94bAI5cPfpUHUy4v+OJgyBWC//RCn1jZDHzv81AZksoP3HGcBR1CZWYgvrX6BeCVyQs8rdQuk5BfL1EbYDYppU4rwExUnoEszO2lVj4JhMrSxCegeK5a/fuAIYzVATyr1twiBFaHLAbwC1XlAUsQn5AkVIaN21ajrqnAQFaOmSikjlTVfwD4xShsAOsWVWPjPwCPFF7gU1XzTqNQ6JHBD/y/uTZ1Qg5mliQYyMHcnsrOx4BQWX/xSSieo+z9HmBorxIAnlY2bxEEq113BvBzZfv+EUiM6C1Uhr6t7VOXlmEwq7PpKKSOUPV8F2jVWH4DWDerujb+HfDoywd8rOq84wgUe3XlBf7fVC91fA5m5/W0KQdTu6r63wt0l3QUm4Ti2cqJ3wEMDVUCwJPKkZsHwGrTjwH8TDl0vwikR3TTVYG+rZyiLi7DYFov01FIHaGc+zbQqpX8BrBuUg5u+ANg6sQHfKgcveMwFHv14QH+1+QsdVwWFhZ0sa4Ak7sqp98NhIt6iE1C8Szl/G8ChhYqAeBx5cKWVrDadGAAP1Wu3HcRMsPu66pA71buUBeVYTTltqkoxA9Wbn0D8Fnuym8E60bl2obfAaa7fMD7ysU7DEEx7CYT+Fejm9TxWcj0usdrwfguyt33AkUj7Y7ZVqBwqnL7VwGyrYa/zdH/+49hhMoAjyjXN/0EV7+uNNj0Wt49C7crPe7/djDmAmvm/0/toJwIVlA4IBIOAAAwPgCdASqAAIAAPjEUiUMiISEUyN58IAMEtgBmotC/mevKv50j8l/597w1ffkH8R/I/7q/5fp1TT+mvuj+z/uv48fRH+7f0n2I/nf2Cf0o/yHUA8wH83/sH7D+7x/cf8p/L/cP+vX6c/275AP6V/kOsf9AD+I/2H0tP2Z/+PyVfsl+5fwJ/zz/Bf97rAP/v1h/TX+Ydo386/Ij9t+2j8XevPmq+NXpDxL/XH7Z/Xv3I/sn7c/Bf+H8FfhLqBfhX8d/vv5gflzx7ea+YF7B/WP839vnOx9VfYA/Vr/X+rP/A8EXjd9oH2Afyb+t/5/7ovpa/hP+h/jvyy9pv5t/df+B/kvgE/l39P/3v979nT11fsX/9PdC/Xhwbtwfc4vkNKOJpfnujH+HnFZXkub9TcY/39DcEWgD1tn2Rwff6vl4ciZG2oSAq6W+ft05qlzyhIRYVD1ZfK3fznbO4VS+iwXNZbkTcazKFwl4qnBd2mvr38CZz5cyMrAj2pP8ESvWreHCkr5KD6pjKugWYgRNeiSWK/g2+toDYdyBILOJVxIgh98Ck9T6bZMzS1qOWgaMyg6m5al9mnPPaf5N95Skb334QUonoHnSRjAQGUSX4vcneY9LD4PvcmR9NFagWr9Exow0QBRLhWxu5kNZMrHTVTihRWzyiGmy4rPS3AD+/2Aad//m4Bp//bt6icg7RK3Vm693ntHOBrLY5h7hDW0sC9cGxEibW3Y57+yJf30XbJWTcCQSwZvpsnuFVtR6wLmhadWd8IcPcIx1FuVxhBE1Nl3Sf3mO8GXt08KDvdZ2WimFZ1YHFqi2ncVvb4ZkmtJ7+VzcCQTObwwSQV9Ty0An1RvXPyTE6MmeEZAF0DAGQnk4jwp8rxuWtARNXzqzOKh9nOsH7MhRmdEVqwNjaE2pB/hdygjuhByXn8SEJ0xiX/TG1V0rukC9TevhDijAiNCct5JQYXKcrpwWHe1o/xS8TwqykDXljwVfq9/Ae2reZWmHeV48v3BdiX+IYl2OEsLUH5Cf/w/swTyX/t3whFtx3fQ2NThwcew7cGFqsQYHV7kGZQGBnAtHrvRaEAWcvs0/YDSxJ0nhDh32DvMLqAAN+MCwsGZeyabet37Zvbwhi//cRmKnx6OMyLhglETc03wUh6K32k9dbprB8EEoOqwlEhF25Wgtqi6rMD7rlXYSw43RlSxen9n67IR1hU+RSRqelvojBqU6yvM+Khsd7OMZaczmQ14EAQMSIQla/SPD+FETYZg5syoTJ3b15sYe7rjCpVKfDFbEeERYT+QYtIQ98Jn7skVmtV9NvPy4i1bCNmuCvfKiElf0Ui34M+HIMdf8JZrViit9ajMAACTkGfJi/hweE50ScNbM8jhYarhwq7FTf9uY+6CiObtA2rxR9CO8/xRsHkxyaXfUqwGrhl22b7ijVsDN1oIALyGD7Z//bwZ7X+PabkyfuLCsy8tVhPpICAD/de/TeZ0QqqJrhn7OkdcIvyVB7PzFQdFPYoJg0AxHvXOr7hnQCxsuMpBwM6nEo5ICbrBtv/d7RTq2r6daMvFzqtie745zIDfrYgjwdSpKE8ipgXz5Cgg//4OHob85rdh4QE8vajJoshtPiSk7LH897lF1ENfC+yPXc3JWqrfcMcYTqvsChDmjzEyEmH9qOx5ZOHOX1J9jn2BGwt6CmlxM62nLngHnyx3jrOUZPP2Hnw07Vj1mI+ZCrZvk1aDLydIReYvwAZzk5/FIyRT7w+MwH/seBw94ONNgc8Qtxhf8IlzuKjtKzVoShRAIbA9288rhyabhPqJDH5HUhqRJDiMF/6dzXQaUSTKtMM3zz6yoOCYA9oJRQxEM2QNE1KJnzDUP5tkodrfztKbzqmoN92qrx7oWr+xRIITbffuJljDHX85RRe6jWXXI6EExTyfWJPuo21oT/aNghALGfzPlMlLh94nRB8jsmAPCy2sf3oMgVN1cgbqEkqeV/ZEgLLOa6oHBM7h2OJh/8ISReC7nhSRKcYbZDjO2gNifFV79d6gsofc14O+JupbGIvGqZD946vZPeZwjfof1mWTrTYW2ZbfKQKdXO30AeX/mW+MUpHjpQNqQAISqS3WC1MYL76u9stKdCOZJBf2/PzwTD4heGONxi2nhn9MwusCVahLxeAqWvvOGGOeMEbtUh2fuFsUhEjWMLc6KI3MdUh5ks3v4bVPCDpYVyRUWXrI2SZKADzQwVsnnxmFY9MM6QHKiY90s7RrYCGj4Lqn67V6S4yV0CcZvBxv3kU3ehyd4B7XEAMEsdrjb4ZjQJIiC2doNT/Cflzw7zVv9sBgnrIDwP+dmN7lqoSJkIM7xrwCSWys06JeHEJ2ciUv9FHN/f4mN1etxNGSpJ80BC8OdWUwuUT8m0W18CH/rzeH5F2SOprYmJnK4uQwWQikdSKFRTgq3/kM2Ye6AVh0f+ap+4pqpTvyviskGT9EEYvEk6D6Vibl9XX5HPlhOatHTOxFMW3Iw2gyUMiHk2L+Rqqylr+K8P5MzYrSDWkafdkU3uPO6di5SvnEKvuT1xyjpCSJmQbb2JQ5Ko9Xwloddp/kpF4ECqMiugCBj2sviFAXuDyoEl38dk2bDTEgCSvU3Nkyz/o3w52/iq8SpvxX3MZZBfF4JaQPB2njhU89AKKXSxBCOwlCwJOPQRQzAHarx6txJZInSz8MYklUi7vCpJuZb/Mq8+BPBpoekAOk8whygMSdx4hon5NHd2rCYrygqef7jHb4mITtm8AZqadDNEqcpr8Cxu3g+r8lT3s9BQ8foQBVDuneyIc5vaky/xWdxbpLSGHsp0JRXGJaeo43JEBqfXeV4McUwhFqICspkseeStdaq461LxfbxycK4s5+HlPF6YeIK5lOLAwNoay6luZMEwLTsDZBs+b9Ojtdct/SGIE0OcsRl01foqe9BNUyKvaimqkpgglSExNHj/5ijvwVWR0VVSfgfQSql2EZOpBRU8q7i7w6dViKJLZ6qt8U2CZRUidrjGaQuyoyzVcZ3pp5PyZTn6GXBEomspZIlB7o7JRJ3dUrWH7gCWYJ5dKLS/M8XOAEPJkpyhNQV9J9e1ni56QQXxQlUVMZdxtpe7jo35DiFlLZ49MQUulvIvR/7EscI5BpFkbWVburdfKFhj9fOfI8wzYJl9lsYhvHOR7T4AziuzSo/MAZd6rOxcrmcVTsWOCjwEHoljOKG33akt9WdhaAngQqN6ss9oFva2jyScZhnXD1RlXEW8gKHyObW+5kaAIT55lMloE7VA6fYFmacHsbeeBMp40gvkc0KI7Zxs0I1xayJP1jj8Ijbu1h1an2kCA9M9Bnsz9/4sMquFFD10y65zkVaaAssf+3nSRNtfWLTBvOUU2M5RSJo+WapelGB+sXWrEmnAXTBXL5YozOk8IjaAXLdE9IkoH5OMZN+FfN0Cx3Sg25qBFvWWBxQrEugTdVIiR4iDHIbW2fM80x423vrKnXV8WFVPSzRgvNo6gfclKtLcg5D6YcufUWYvh0pn//icIb+0PXMw7lcT1auA1oAH6/gH36u9h9+Lr396GMQZVxahJk7uaIoMwj4trvWjlFBfbrCYQbUAD8RqpEn7ofXk23UGAZ5nersKxbHzVt+HPSPUg2rJ03CW2QwHi8+7PYwzHVYfksCsy+LX+TcGdG7O4ITAmHg0hS6zWTBI9itrl83y1ukUovMINnREA/3H5QqO514521x6aBxfMjKmRBb///WhAEzej5EH/6pC5ZrrHQU/Dae7NGDktLg+qH+153phVUsv+tKJEZrAZ//DMC/eju+KzxsIkGwlLoTSap5lqx5JTlv4OdwXfm4wRa5WOFXv/nW45CLkplh8cFrl83XkiTRaJor+tbs7X4lCBk9yZBAvTbZypOGIj4eKzw0o3E/A3A/2mCH/hPkFuJSbzfsaq6tp57cU6xTvbJvtizxt2L0Z0SuJZwM/wl7BznYeL267/b/2uuvoCHu8oQtB1IJ4sb7b1scxLYProUqc/FKDtNB68jn51jAsc2Nq4PlfQXVnQQcxTED9HlMEljRhAkLAY+//M0EuTeG8H+/ERoEihcrs764CgDOH1AI/CGvvK9bwGxIFT8f6/eD3WDec3Xb2zkmaZlemqKANclaD3EwU44gqepW1IQvFylGbaNB+jJfCO4ZbQhNVi6383bnn425GHh2yJmVUFz2YRwnYCMf8S4dD26UFW9VkyyGjUZ9pnpiATRUYyEX24+7CS6MJntkrN8iOknRV3o90JhaUs6dQrltZGaXjJmsIET3calvO59zovZzpMtlKa3Sl5MOt6KAuDvgNtyYcrfKN5JetGB0Sbx87zjzLu2C1yGXHwn0QcLgfJIBDPwFyE07YXnu+6ntU5OiesfIXrm377z4EATXZ3zInP1l1EFkmbkoDreRZ+SdXc39d7kwwEf98CZR0mm+SAlzWPXRCjvKETQ40lmSnCn2+KUBz2PChgRiVzbOMisU5noVmNXgs5u6uJwQPKWxUwxQMstDG029+/P78KbtPC11Uh04UQOSiLnf/x9rf7v9SAaBZU6l/2eu2+VOvSyIcZirU/246ZVf6OfZO5tiqY/EDyph7nqIhg54Gza3OQOAMIsDGeOhw6qDbF7hXwqFD/QK3fboeRaDgfrO1TfSjDl6qBtoqnZZvwVqxxIYPrWryCVm6EvYjSNCzX6YINlf5HcDysb38FnN3aDxR8r7BzWvyZ6IMiN2nUd09Erz/eba4ss1Nkz1OQjdwnu0aO8IkWWr4sa7Bapqd47LdqeWJHKHT4bbAVd6F1z+niB8E7sAte7QAAAAAA==" vertex="1" parent="1">
                    <mxGeometry x="280" y="167" width="50" height="50" as="geometry"/>
                </mxCell>
                <mxCell id="9" value="" style="shape=image;verticalLabelPosition=bottom;verticalAlign=top;imageAspect=0;aspect=fixed;image=data:image/webp,UklGRiQgAABXRUJQVlA4WAoAAAAwAAAAfwAAfwAASUNDUEgMAAAAAAxITGlubwIQAABtbnRyUkdCIFhZWiAHzgACAAkABgAxAABhY3NwTVNGVAAAAABJRUMgc1JHQgAAAAAAAAAAAAAAAAAA9tYAAQAAAADTLUhQICAAAAAAAAAAAAAAAAAAAAAAAAAAAAAAAAAAAAAAAAAAAAAAAAAAAAAAAAAAAAAAABFjcHJ0AAABUAAAADNkZXNjAAABhAAAAGx3dHB0AAAB8AAAABRia3B0AAACBAAAABRyWFlaAAACGAAAABRnWFlaAAACLAAAABRiWFlaAAACQAAAABRkbW5kAAACVAAAAHBkbWRkAAACxAAAAIh2dWVkAAADTAAAAIZ2aWV3AAAD1AAAACRsdW1pAAAD+AAAABRtZWFzAAAEDAAAACR0ZWNoAAAEMAAAAAxyVFJDAAAEPAAACAxnVFJDAAAEPAAACAxiVFJDAAAEPAAACAx0ZXh0AAAAAENvcHlyaWdodCAoYykgMTk5OCBIZXdsZXR0LVBhY2thcmQgQ29tcGFueQAAZGVzYwAAAAAAAAASc1JHQiBJRUM2MTk2Ni0yLjEAAAAAAAAAAAAAABJzUkdCIElFQzYxOTY2LTIuMQAAAAAAAAAAAAAAAAAAAAAAAAAAAAAAAAAAAAAAAAAAAAAAAAAAAAAAAAAAAAAAAAAAWFlaIAAAAAAAAPNRAAEAAAABFsxYWVogAAAAAAAAAAAAAAAAAAAAAFhZWiAAAAAAAABvogAAOPUAAAOQWFlaIAAAAAAAAGKZAAC3hQAAGNpYWVogAAAAAAAAJKAAAA+EAAC2z2Rlc2MAAAAAAAAAFklFQyBodHRwOi8vd3d3LmllYy5jaAAAAAAAAAAAAAAAFklFQyBodHRwOi8vd3d3LmllYy5jaAAAAAAAAAAAAAAAAAAAAAAAAAAAAAAAAAAAAAAAAAAAAAAAAAAAAAAAAAAAAABkZXNjAAAAAAAAAC5JRUMgNjE5NjYtMi4xIERlZmF1bHQgUkdCIGNvbG91ciBzcGFjZSAtIHNSR0IAAAAAAAAAAAAAAC5JRUMgNjE5NjYtMi4xIERlZmF1bHQgUkdCIGNvbG91ciBzcGFjZSAtIHNSR0IAAAAAAAAAAAAAAAAAAAAAAAAAAAAAZGVzYwAAAAAAAAAsUmVmZXJlbmNlIFZpZXdpbmcgQ29uZGl0aW9uIGluIElFQzYxOTY2LTIuMQAAAAAAAAAAAAAALFJlZmVyZW5jZSBWaWV3aW5nIENvbmRpdGlvbiBpbiBJRUM2MTk2Ni0yLjEAAAAAAAAAAAAAAAAAAAAAAAAAAAAAAAAAAHZpZXcAAAAAABOk/gAUXy4AEM8UAAPtzAAEEwsAA1yeAAAAAVhZWiAAAAAAAEwJVgBQAAAAVx/nbWVhcwAAAAAAAAABAAAAAAAAAAAAAAAAAAAAAAAAAo8AAAACc2lnIAAAAABDUlQgY3VydgAAAAAAAAQAAAAABQAKAA8AFAAZAB4AIwAoAC0AMgA3ADsAQABFAEoATwBUAFkAXgBjAGgAbQByAHcAfACBAIYAiwCQAJUAmgCfAKQAqQCuALIAtwC8AMEAxgDLANAA1QDbAOAA5QDrAPAA9gD7AQEBBwENARMBGQEfASUBKwEyATgBPgFFAUwBUgFZAWABZwFuAXUBfAGDAYsBkgGaAaEBqQGxAbkBwQHJAdEB2QHhAekB8gH6AgMCDAIUAh0CJgIvAjgCQQJLAlQCXQJnAnECegKEAo4CmAKiAqwCtgLBAssC1QLgAusC9QMAAwsDFgMhAy0DOANDA08DWgNmA3IDfgOKA5YDogOuA7oDxwPTA+AD7AP5BAYEEwQgBC0EOwRIBFUEYwRxBH4EjASaBKgEtgTEBNME4QTwBP4FDQUcBSsFOgVJBVgFZwV3BYYFlgWmBbUFxQXVBeUF9gYGBhYGJwY3BkgGWQZqBnsGjAadBq8GwAbRBuMG9QcHBxkHKwc9B08HYQd0B4YHmQesB78H0gflB/gICwgfCDIIRghaCG4IggiWCKoIvgjSCOcI+wkQCSUJOglPCWQJeQmPCaQJugnPCeUJ+woRCicKPQpUCmoKgQqYCq4KxQrcCvMLCwsiCzkLUQtpC4ALmAuwC8gL4Qv5DBIMKgxDDFwMdQyODKcMwAzZDPMNDQ0mDUANWg10DY4NqQ3DDd4N+A4TDi4OSQ5kDn8Omw62DtIO7g8JDyUPQQ9eD3oPlg+zD88P7BAJECYQQxBhEH4QmxC5ENcQ9RETETERTxFtEYwRqhHJEegSBxImEkUSZBKEEqMSwxLjEwMTIxNDE2MTgxOkE8UT5RQGFCcUSRRqFIsUrRTOFPAVEhU0FVYVeBWbFb0V4BYDFiYWSRZsFo8WshbWFvoXHRdBF2UXiReuF9IX9xgbGEAYZRiKGK8Y1Rj6GSAZRRlrGZEZtxndGgQaKhpRGncanhrFGuwbFBs7G2MbihuyG9ocAhwqHFIcexyjHMwc9R0eHUcdcB2ZHcMd7B4WHkAeah6UHr4e6R8THz4faR+UH78f6iAVIEEgbCCYIMQg8CEcIUghdSGhIc4h+yInIlUigiKvIt0jCiM4I2YjlCPCI/AkHyRNJHwkqyTaJQklOCVoJZclxyX3JicmVyaHJrcm6CcYJ0kneierJ9woDSg/KHEooijUKQYpOClrKZ0p0CoCKjUqaCqbKs8rAis2K2krnSvRLAUsOSxuLKIs1y0MLUEtdi2rLeEuFi5MLoIuty7uLyQvWi+RL8cv/jA1MGwwpDDbMRIxSjGCMbox8jIqMmMymzLUMw0zRjN/M7gz8TQrNGU0njTYNRM1TTWHNcI1/TY3NnI2rjbpNyQ3YDecN9c4FDhQOIw4yDkFOUI5fzm8Ofk6Njp0OrI67zstO2s7qjvoPCc8ZTykPOM9Ij1hPaE94D4gPmA+oD7gPyE/YT+iP+JAI0BkQKZA50EpQWpBrEHuQjBCckK1QvdDOkN9Q8BEA0RHRIpEzkUSRVVFmkXeRiJGZ0arRvBHNUd7R8BIBUhLSJFI10kdSWNJqUnwSjdKfUrESwxLU0uaS+JMKkxyTLpNAk1KTZNN3E4lTm5Ot08AT0lPk0/dUCdQcVC7UQZRUFGbUeZSMVJ8UsdTE1NfU6pT9lRCVI9U21UoVXVVwlYPVlxWqVb3V0RXklfgWC9YfVjLWRpZaVm4WgdaVlqmWvVbRVuVW+VcNVyGXNZdJ114XcleGl5sXr1fD19hX7NgBWBXYKpg/GFPYaJh9WJJYpxi8GNDY5dj62RAZJRk6WU9ZZJl52Y9ZpJm6Gc9Z5Nn6Wg/aJZo7GlDaZpp8WpIap9q92tPa6dr/2xXbK9tCG1gbbluEm5rbsRvHm94b9FwK3CGcOBxOnGVcfByS3KmcwFzXXO4dBR0cHTMdSh1hXXhdj52m3b4d1Z3s3gReG54zHkqeYl553pGeqV7BHtje8J8IXyBfOF9QX2hfgF+Yn7CfyN/hH/lgEeAqIEKgWuBzYIwgpKC9INXg7qEHYSAhOOFR4Wrhg6GcobXhzuHn4gEiGmIzokziZmJ/opkisqLMIuWi/yMY4zKjTGNmI3/jmaOzo82j56QBpBukNaRP5GokhGSepLjk02TtpQglIqU9JVflcmWNJaflwqXdZfgmEyYuJkkmZCZ/JpomtWbQpuvnByciZz3nWSd0p5Anq6fHZ+Ln/qgaaDYoUehtqImopajBqN2o+akVqTHpTilqaYapoum/adup+CoUqjEqTepqaocqo+rAqt1q+msXKzQrUStuK4trqGvFq+LsACwdbDqsWCx1rJLssKzOLOutCW0nLUTtYq2AbZ5tvC3aLfguFm40blKucK6O7q1uy67p7whvJu9Fb2Pvgq+hL7/v3q/9cBwwOzBZ8Hjwl/C28NYw9TEUcTOxUvFyMZGxsPHQce/yD3IvMk6ybnKOMq3yzbLtsw1zLXNNc21zjbOts83z7jQOdC60TzRvtI/0sHTRNPG1EnUy9VO1dHWVdbY11zX4Nhk2OjZbNnx2nba+9uA3AXcit0Q3ZbeHN6i3ynfr+A24L3hROHM4lPi2+Nj4+vkc+T85YTmDeaW5x/nqegy6LzpRunQ6lvq5etw6/vshu0R7ZzuKO6070DvzPBY8OXxcvH/8ozzGfOn9DT0wvVQ9d72bfb794r4Gfio+Tj5x/pX+uf7d/wH/Jj9Kf26/kv+3P9t//9BTFBInAUAAAHwhW3b4eb//93Vy7Zt27Zt23693++XzaW3bdv2TFAG1aPaTGM2mGOhbTKZua/1iJgA5epzv7cxO9/7/hFK6EvaWd36y6kSXdJJ1f85XZiGG8Os7Dc9Hs8MK/9+hiCNt/QClP1DrLTC3az81zlCNF4bBqi0jVJlXxcr/dcK0HjrBoCif4wa+7ssAP+1mmu8dRNA0T+OjQNtFkDrtRpruW8AYNk/gc0DnRZA960Nemq5bwhg2TtLHYf8ZYCeWxv0s9l9wwAF7xx1HvKXAfrua9TLZo9NAWQ8Czhw0lsC6L+vSR+bPzYNkPEs4NBJbwlg/X1Netj6+RmAjGcRB095CgAjjzW7b5vn5wDSZgyHT3vyAKOPNbtrm+fnAVJmHBfOeHIAY89v7p5tX4kCRM0ELo2YOYCJ57dwx3avxACiZhIXR8wswOTzWzpv53fjAEtmCpdHzRTAwitbOmuXdxMAETOLBqNmEmDhla2cs+u7SYBFM4cmY2YCIPLuds7Y7dMswIwnj0bTZhwg8u729dvrq3mAyf8V0GymPQ6w9ObWdXo8ATBuFtFwpjUKMHZpXT4EGPOX0HTWjAClW+pwP5A3S2g86bOgeIJtO0UgF0bzHqC9wa5ngVa0bwJn2OWBIPrPzMHnbdpiGToFwISwTWdDpiDBAJS2tuczEEZCKw4X2PM7MEQgCK/ZMw1dMpjwZ1v2BysqQxAiDXbcAaPImKrAIXZ8CXxCMAz32dEFXil88A0btlyGQUF6bDgH0mUpRqC8XW2fhRBSWjG4qLbfgyEGAXijthkIyGHAX2s6AKyYHCFYaqjlThhBznQZDqvly+AThCG4v5YAeCXxwjdr2HIZhiTxQ28N50KqLMkoVLar7nMQQlIrCpdU9wcwRKEL3qpuDgKyGPD3qg4EKyZLGOKN1dwFI8iaLsMR1XwFfMIwAA9WEwSvNF74dhVbFmFIGj/0V3EeJCvSjENl+7VegSDSWktw6Vp/BEMcuuDtteYgKI8B/1jjILDi8nRDvHG1u2EYeTMlOHK1r4JXIDbBw6uFhPLAd1fZqgTDEvlh/SrnQ6Ii0ThYO654FQKIvAiXr/gTGDJ1wrsr5iEokwH/UkodDJW4TD2QbFTqHhhE5mwJjlbqa+AVio3wiFJhwTzwPbV1CYal8sMGdQEkKlJNgrXTaxBA7AW44k9gyBWE94bAI5cPfpUHUy4v+OJgyBWC//RCn1jZDHzv81AZksoP3HGcBR1CZWYgvrX6BeCVyQs8rdQuk5BfL1EbYDYppU4rwExUnoEszO2lVj4JhMrSxCegeK5a/fuAIYzVATyr1twiBFaHLAbwC1XlAUsQn5AkVIaN21ajrqnAQFaOmSikjlTVfwD4xShsAOsWVWPjPwCPFF7gU1XzTqNQ6JHBD/y/uTZ1Qg5mliQYyMHcnsrOx4BQWX/xSSieo+z9HmBorxIAnlY2bxEEq113BvBzZfv+EUiM6C1Uhr6t7VOXlmEwq7PpKKSOUPV8F2jVWH4DWDerujb+HfDoywd8rOq84wgUe3XlBf7fVC91fA5m5/W0KQdTu6r63wt0l3QUm4Ti2cqJ3wEMDVUCwJPKkZsHwGrTjwH8TDl0vwikR3TTVYG+rZyiLi7DYFov01FIHaGc+zbQqpX8BrBuUg5u+ANg6sQHfKgcveMwFHv14QH+1+QsdVwWFhZ0sa4Ak7sqp98NhIt6iE1C8Szl/G8ChhYqAeBx5cKWVrDadGAAP1Wu3HcRMsPu66pA71buUBeVYTTltqkoxA9Wbn0D8Fnuym8E60bl2obfAaa7fMD7ysU7DEEx7CYT+Fejm9TxWcj0usdrwfguyt33AkUj7Y7ZVqBwqnL7VwGyrYa/zdH/+49hhMoAjyjXN/0EV7+uNNj0Wt49C7crPe7/djDmAmvm/0/toJwIVlA4IBIOAAAwPgCdASqAAIAAPjEUiUMiISEUyN58IAMEtgBmotC/mevKv50j8l/597w1ffkH8R/I/7q/5fp1TT+mvuj+z/uv48fRH+7f0n2I/nf2Cf0o/yHUA8wH83/sH7D+7x/cf8p/L/cP+vX6c/275AP6V/kOsf9AD+I/2H0tP2Z/+PyVfsl+5fwJ/zz/Bf97rAP/v1h/TX+Ydo386/Ij9t+2j8XevPmq+NXpDxL/XH7Z/Xv3I/sn7c/Bf+H8FfhLqBfhX8d/vv5gflzx7ea+YF7B/WP839vnOx9VfYA/Vr/X+rP/A8EXjd9oH2Afyb+t/5/7ovpa/hP+h/jvyy9pv5t/df+B/kvgE/l39P/3v979nT11fsX/9PdC/Xhwbtwfc4vkNKOJpfnujH+HnFZXkub9TcY/39DcEWgD1tn2Rwff6vl4ciZG2oSAq6W+ft05qlzyhIRYVD1ZfK3fznbO4VS+iwXNZbkTcazKFwl4qnBd2mvr38CZz5cyMrAj2pP8ESvWreHCkr5KD6pjKugWYgRNeiSWK/g2+toDYdyBILOJVxIgh98Ck9T6bZMzS1qOWgaMyg6m5al9mnPPaf5N95Skb334QUonoHnSRjAQGUSX4vcneY9LD4PvcmR9NFagWr9Exow0QBRLhWxu5kNZMrHTVTihRWzyiGmy4rPS3AD+/2Aad//m4Bp//bt6icg7RK3Vm693ntHOBrLY5h7hDW0sC9cGxEibW3Y57+yJf30XbJWTcCQSwZvpsnuFVtR6wLmhadWd8IcPcIx1FuVxhBE1Nl3Sf3mO8GXt08KDvdZ2WimFZ1YHFqi2ncVvb4ZkmtJ7+VzcCQTObwwSQV9Ty0An1RvXPyTE6MmeEZAF0DAGQnk4jwp8rxuWtARNXzqzOKh9nOsH7MhRmdEVqwNjaE2pB/hdygjuhByXn8SEJ0xiX/TG1V0rukC9TevhDijAiNCct5JQYXKcrpwWHe1o/xS8TwqykDXljwVfq9/Ae2reZWmHeV48v3BdiX+IYl2OEsLUH5Cf/w/swTyX/t3whFtx3fQ2NThwcew7cGFqsQYHV7kGZQGBnAtHrvRaEAWcvs0/YDSxJ0nhDh32DvMLqAAN+MCwsGZeyabet37Zvbwhi//cRmKnx6OMyLhglETc03wUh6K32k9dbprB8EEoOqwlEhF25Wgtqi6rMD7rlXYSw43RlSxen9n67IR1hU+RSRqelvojBqU6yvM+Khsd7OMZaczmQ14EAQMSIQla/SPD+FETYZg5syoTJ3b15sYe7rjCpVKfDFbEeERYT+QYtIQ98Jn7skVmtV9NvPy4i1bCNmuCvfKiElf0Ui34M+HIMdf8JZrViit9ajMAACTkGfJi/hweE50ScNbM8jhYarhwq7FTf9uY+6CiObtA2rxR9CO8/xRsHkxyaXfUqwGrhl22b7ijVsDN1oIALyGD7Z//bwZ7X+PabkyfuLCsy8tVhPpICAD/de/TeZ0QqqJrhn7OkdcIvyVB7PzFQdFPYoJg0AxHvXOr7hnQCxsuMpBwM6nEo5ICbrBtv/d7RTq2r6daMvFzqtie745zIDfrYgjwdSpKE8ipgXz5Cgg//4OHob85rdh4QE8vajJoshtPiSk7LH897lF1ENfC+yPXc3JWqrfcMcYTqvsChDmjzEyEmH9qOx5ZOHOX1J9jn2BGwt6CmlxM62nLngHnyx3jrOUZPP2Hnw07Vj1mI+ZCrZvk1aDLydIReYvwAZzk5/FIyRT7w+MwH/seBw94ONNgc8Qtxhf8IlzuKjtKzVoShRAIbA9288rhyabhPqJDH5HUhqRJDiMF/6dzXQaUSTKtMM3zz6yoOCYA9oJRQxEM2QNE1KJnzDUP5tkodrfztKbzqmoN92qrx7oWr+xRIITbffuJljDHX85RRe6jWXXI6EExTyfWJPuo21oT/aNghALGfzPlMlLh94nRB8jsmAPCy2sf3oMgVN1cgbqEkqeV/ZEgLLOa6oHBM7h2OJh/8ISReC7nhSRKcYbZDjO2gNifFV79d6gsofc14O+JupbGIvGqZD946vZPeZwjfof1mWTrTYW2ZbfKQKdXO30AeX/mW+MUpHjpQNqQAISqS3WC1MYL76u9stKdCOZJBf2/PzwTD4heGONxi2nhn9MwusCVahLxeAqWvvOGGOeMEbtUh2fuFsUhEjWMLc6KI3MdUh5ks3v4bVPCDpYVyRUWXrI2SZKADzQwVsnnxmFY9MM6QHKiY90s7RrYCGj4Lqn67V6S4yV0CcZvBxv3kU3ehyd4B7XEAMEsdrjb4ZjQJIiC2doNT/Cflzw7zVv9sBgnrIDwP+dmN7lqoSJkIM7xrwCSWys06JeHEJ2ciUv9FHN/f4mN1etxNGSpJ80BC8OdWUwuUT8m0W18CH/rzeH5F2SOprYmJnK4uQwWQikdSKFRTgq3/kM2Ye6AVh0f+ap+4pqpTvyviskGT9EEYvEk6D6Vibl9XX5HPlhOatHTOxFMW3Iw2gyUMiHk2L+Rqqylr+K8P5MzYrSDWkafdkU3uPO6di5SvnEKvuT1xyjpCSJmQbb2JQ5Ko9Xwloddp/kpF4ECqMiugCBj2sviFAXuDyoEl38dk2bDTEgCSvU3Nkyz/o3w52/iq8SpvxX3MZZBfF4JaQPB2njhU89AKKXSxBCOwlCwJOPQRQzAHarx6txJZInSz8MYklUi7vCpJuZb/Mq8+BPBpoekAOk8whygMSdx4hon5NHd2rCYrygqef7jHb4mITtm8AZqadDNEqcpr8Cxu3g+r8lT3s9BQ8foQBVDuneyIc5vaky/xWdxbpLSGHsp0JRXGJaeo43JEBqfXeV4McUwhFqICspkseeStdaq461LxfbxycK4s5+HlPF6YeIK5lOLAwNoay6luZMEwLTsDZBs+b9Ojtdct/SGIE0OcsRl01foqe9BNUyKvaimqkpgglSExNHj/5ijvwVWR0VVSfgfQSql2EZOpBRU8q7i7w6dViKJLZ6qt8U2CZRUidrjGaQuyoyzVcZ3pp5PyZTn6GXBEomspZIlB7o7JRJ3dUrWH7gCWYJ5dKLS/M8XOAEPJkpyhNQV9J9e1ni56QQXxQlUVMZdxtpe7jo35DiFlLZ49MQUulvIvR/7EscI5BpFkbWVburdfKFhj9fOfI8wzYJl9lsYhvHOR7T4AziuzSo/MAZd6rOxcrmcVTsWOCjwEHoljOKG33akt9WdhaAngQqN6ss9oFva2jyScZhnXD1RlXEW8gKHyObW+5kaAIT55lMloE7VA6fYFmacHsbeeBMp40gvkc0KI7Zxs0I1xayJP1jj8Ijbu1h1an2kCA9M9Bnsz9/4sMquFFD10y65zkVaaAssf+3nSRNtfWLTBvOUU2M5RSJo+WapelGB+sXWrEmnAXTBXL5YozOk8IjaAXLdE9IkoH5OMZN+FfN0Cx3Sg25qBFvWWBxQrEugTdVIiR4iDHIbW2fM80x423vrKnXV8WFVPSzRgvNo6gfclKtLcg5D6YcufUWYvh0pn//icIb+0PXMw7lcT1auA1oAH6/gH36u9h9+Lr396GMQZVxahJk7uaIoMwj4trvWjlFBfbrCYQbUAD8RqpEn7ofXk23UGAZ5nersKxbHzVt+HPSPUg2rJ03CW2QwHi8+7PYwzHVYfksCsy+LX+TcGdG7O4ITAmHg0hS6zWTBI9itrl83y1ukUovMINnREA/3H5QqO514521x6aBxfMjKmRBb///WhAEzej5EH/6pC5ZrrHQU/Dae7NGDktLg+qH+153phVUsv+tKJEZrAZ//DMC/eju+KzxsIkGwlLoTSap5lqx5JTlv4OdwXfm4wRa5WOFXv/nW45CLkplh8cFrl83XkiTRaJor+tbs7X4lCBk9yZBAvTbZypOGIj4eKzw0o3E/A3A/2mCH/hPkFuJSbzfsaq6tp57cU6xTvbJvtizxt2L0Z0SuJZwM/wl7BznYeL267/b/2uuvoCHu8oQtB1IJ4sb7b1scxLYProUqc/FKDtNB68jn51jAsc2Nq4PlfQXVnQQcxTED9HlMEljRhAkLAY+//M0EuTeG8H+/ERoEihcrs764CgDOH1AI/CGvvK9bwGxIFT8f6/eD3WDec3Xb2zkmaZlemqKANclaD3EwU44gqepW1IQvFylGbaNB+jJfCO4ZbQhNVi6383bnn425GHh2yJmVUFz2YRwnYCMf8S4dD26UFW9VkyyGjUZ9pnpiATRUYyEX24+7CS6MJntkrN8iOknRV3o90JhaUs6dQrltZGaXjJmsIET3calvO59zovZzpMtlKa3Sl5MOt6KAuDvgNtyYcrfKN5JetGB0Sbx87zjzLu2C1yGXHwn0QcLgfJIBDPwFyE07YXnu+6ntU5OiesfIXrm377z4EATXZ3zInP1l1EFkmbkoDreRZ+SdXc39d7kwwEf98CZR0mm+SAlzWPXRCjvKETQ40lmSnCn2+KUBz2PChgRiVzbOMisU5noVmNXgs5u6uJwQPKWxUwxQMstDG029+/P78KbtPC11Uh04UQOSiLnf/x9rf7v9SAaBZU6l/2eu2+VOvSyIcZirU/246ZVf6OfZO5tiqY/EDyph7nqIhg54Gza3OQOAMIsDGeOhw6qDbF7hXwqFD/QK3fboeRaDgfrO1TfSjDl6qBtoqnZZvwVqxxIYPrWryCVm6EvYjSNCzX6YINlf5HcDysb38FnN3aDxR8r7BzWvyZ6IMiN2nUd09Erz/eba4ss1Nkz1OQjdwnu0aO8IkWWr4sa7Bapqd47LdqeWJHKHT4bbAVd6F1z+niB8E7sAte7QAAAAAA==" vertex="1" parent="1">
                    <mxGeometry x="290" y="167" width="50" height="50" as="geometry"/>
                </mxCell>
                <mxCell id="10" value="" style="shape=image;verticalLabelPosition=bottom;verticalAlign=top;imageAspect=0;aspect=fixed;image=data:image/webp,UklGRiQgAABXRUJQVlA4WAoAAAAwAAAAfwAAfwAASUNDUEgMAAAAAAxITGlubwIQAABtbnRyUkdCIFhZWiAHzgACAAkABgAxAABhY3NwTVNGVAAAAABJRUMgc1JHQgAAAAAAAAAAAAAAAAAA9tYAAQAAAADTLUhQICAAAAAAAAAAAAAAAAAAAAAAAAAAAAAAAAAAAAAAAAAAAAAAAAAAAAAAAAAAAAAAABFjcHJ0AAABUAAAADNkZXNjAAABhAAAAGx3dHB0AAAB8AAAABRia3B0AAACBAAAABRyWFlaAAACGAAAABRnWFlaAAACLAAAABRiWFlaAAACQAAAABRkbW5kAAACVAAAAHBkbWRkAAACxAAAAIh2dWVkAAADTAAAAIZ2aWV3AAAD1AAAACRsdW1pAAAD+AAAABRtZWFzAAAEDAAAACR0ZWNoAAAEMAAAAAxyVFJDAAAEPAAACAxnVFJDAAAEPAAACAxiVFJDAAAEPAAACAx0ZXh0AAAAAENvcHlyaWdodCAoYykgMTk5OCBIZXdsZXR0LVBhY2thcmQgQ29tcGFueQAAZGVzYwAAAAAAAAASc1JHQiBJRUM2MTk2Ni0yLjEAAAAAAAAAAAAAABJzUkdCIElFQzYxOTY2LTIuMQAAAAAAAAAAAAAAAAAAAAAAAAAAAAAAAAAAAAAAAAAAAAAAAAAAAAAAAAAAAAAAAAAAWFlaIAAAAAAAAPNRAAEAAAABFsxYWVogAAAAAAAAAAAAAAAAAAAAAFhZWiAAAAAAAABvogAAOPUAAAOQWFlaIAAAAAAAAGKZAAC3hQAAGNpYWVogAAAAAAAAJKAAAA+EAAC2z2Rlc2MAAAAAAAAAFklFQyBodHRwOi8vd3d3LmllYy5jaAAAAAAAAAAAAAAAFklFQyBodHRwOi8vd3d3LmllYy5jaAAAAAAAAAAAAAAAAAAAAAAAAAAAAAAAAAAAAAAAAAAAAAAAAAAAAAAAAAAAAABkZXNjAAAAAAAAAC5JRUMgNjE5NjYtMi4xIERlZmF1bHQgUkdCIGNvbG91ciBzcGFjZSAtIHNSR0IAAAAAAAAAAAAAAC5JRUMgNjE5NjYtMi4xIERlZmF1bHQgUkdCIGNvbG91ciBzcGFjZSAtIHNSR0IAAAAAAAAAAAAAAAAAAAAAAAAAAAAAZGVzYwAAAAAAAAAsUmVmZXJlbmNlIFZpZXdpbmcgQ29uZGl0aW9uIGluIElFQzYxOTY2LTIuMQAAAAAAAAAAAAAALFJlZmVyZW5jZSBWaWV3aW5nIENvbmRpdGlvbiBpbiBJRUM2MTk2Ni0yLjEAAAAAAAAAAAAAAAAAAAAAAAAAAAAAAAAAAHZpZXcAAAAAABOk/gAUXy4AEM8UAAPtzAAEEwsAA1yeAAAAAVhZWiAAAAAAAEwJVgBQAAAAVx/nbWVhcwAAAAAAAAABAAAAAAAAAAAAAAAAAAAAAAAAAo8AAAACc2lnIAAAAABDUlQgY3VydgAAAAAAAAQAAAAABQAKAA8AFAAZAB4AIwAoAC0AMgA3ADsAQABFAEoATwBUAFkAXgBjAGgAbQByAHcAfACBAIYAiwCQAJUAmgCfAKQAqQCuALIAtwC8AMEAxgDLANAA1QDbAOAA5QDrAPAA9gD7AQEBBwENARMBGQEfASUBKwEyATgBPgFFAUwBUgFZAWABZwFuAXUBfAGDAYsBkgGaAaEBqQGxAbkBwQHJAdEB2QHhAekB8gH6AgMCDAIUAh0CJgIvAjgCQQJLAlQCXQJnAnECegKEAo4CmAKiAqwCtgLBAssC1QLgAusC9QMAAwsDFgMhAy0DOANDA08DWgNmA3IDfgOKA5YDogOuA7oDxwPTA+AD7AP5BAYEEwQgBC0EOwRIBFUEYwRxBH4EjASaBKgEtgTEBNME4QTwBP4FDQUcBSsFOgVJBVgFZwV3BYYFlgWmBbUFxQXVBeUF9gYGBhYGJwY3BkgGWQZqBnsGjAadBq8GwAbRBuMG9QcHBxkHKwc9B08HYQd0B4YHmQesB78H0gflB/gICwgfCDIIRghaCG4IggiWCKoIvgjSCOcI+wkQCSUJOglPCWQJeQmPCaQJugnPCeUJ+woRCicKPQpUCmoKgQqYCq4KxQrcCvMLCwsiCzkLUQtpC4ALmAuwC8gL4Qv5DBIMKgxDDFwMdQyODKcMwAzZDPMNDQ0mDUANWg10DY4NqQ3DDd4N+A4TDi4OSQ5kDn8Omw62DtIO7g8JDyUPQQ9eD3oPlg+zD88P7BAJECYQQxBhEH4QmxC5ENcQ9RETETERTxFtEYwRqhHJEegSBxImEkUSZBKEEqMSwxLjEwMTIxNDE2MTgxOkE8UT5RQGFCcUSRRqFIsUrRTOFPAVEhU0FVYVeBWbFb0V4BYDFiYWSRZsFo8WshbWFvoXHRdBF2UXiReuF9IX9xgbGEAYZRiKGK8Y1Rj6GSAZRRlrGZEZtxndGgQaKhpRGncanhrFGuwbFBs7G2MbihuyG9ocAhwqHFIcexyjHMwc9R0eHUcdcB2ZHcMd7B4WHkAeah6UHr4e6R8THz4faR+UH78f6iAVIEEgbCCYIMQg8CEcIUghdSGhIc4h+yInIlUigiKvIt0jCiM4I2YjlCPCI/AkHyRNJHwkqyTaJQklOCVoJZclxyX3JicmVyaHJrcm6CcYJ0kneierJ9woDSg/KHEooijUKQYpOClrKZ0p0CoCKjUqaCqbKs8rAis2K2krnSvRLAUsOSxuLKIs1y0MLUEtdi2rLeEuFi5MLoIuty7uLyQvWi+RL8cv/jA1MGwwpDDbMRIxSjGCMbox8jIqMmMymzLUMw0zRjN/M7gz8TQrNGU0njTYNRM1TTWHNcI1/TY3NnI2rjbpNyQ3YDecN9c4FDhQOIw4yDkFOUI5fzm8Ofk6Njp0OrI67zstO2s7qjvoPCc8ZTykPOM9Ij1hPaE94D4gPmA+oD7gPyE/YT+iP+JAI0BkQKZA50EpQWpBrEHuQjBCckK1QvdDOkN9Q8BEA0RHRIpEzkUSRVVFmkXeRiJGZ0arRvBHNUd7R8BIBUhLSJFI10kdSWNJqUnwSjdKfUrESwxLU0uaS+JMKkxyTLpNAk1KTZNN3E4lTm5Ot08AT0lPk0/dUCdQcVC7UQZRUFGbUeZSMVJ8UsdTE1NfU6pT9lRCVI9U21UoVXVVwlYPVlxWqVb3V0RXklfgWC9YfVjLWRpZaVm4WgdaVlqmWvVbRVuVW+VcNVyGXNZdJ114XcleGl5sXr1fD19hX7NgBWBXYKpg/GFPYaJh9WJJYpxi8GNDY5dj62RAZJRk6WU9ZZJl52Y9ZpJm6Gc9Z5Nn6Wg/aJZo7GlDaZpp8WpIap9q92tPa6dr/2xXbK9tCG1gbbluEm5rbsRvHm94b9FwK3CGcOBxOnGVcfByS3KmcwFzXXO4dBR0cHTMdSh1hXXhdj52m3b4d1Z3s3gReG54zHkqeYl553pGeqV7BHtje8J8IXyBfOF9QX2hfgF+Yn7CfyN/hH/lgEeAqIEKgWuBzYIwgpKC9INXg7qEHYSAhOOFR4Wrhg6GcobXhzuHn4gEiGmIzokziZmJ/opkisqLMIuWi/yMY4zKjTGNmI3/jmaOzo82j56QBpBukNaRP5GokhGSepLjk02TtpQglIqU9JVflcmWNJaflwqXdZfgmEyYuJkkmZCZ/JpomtWbQpuvnByciZz3nWSd0p5Anq6fHZ+Ln/qgaaDYoUehtqImopajBqN2o+akVqTHpTilqaYapoum/adup+CoUqjEqTepqaocqo+rAqt1q+msXKzQrUStuK4trqGvFq+LsACwdbDqsWCx1rJLssKzOLOutCW0nLUTtYq2AbZ5tvC3aLfguFm40blKucK6O7q1uy67p7whvJu9Fb2Pvgq+hL7/v3q/9cBwwOzBZ8Hjwl/C28NYw9TEUcTOxUvFyMZGxsPHQce/yD3IvMk6ybnKOMq3yzbLtsw1zLXNNc21zjbOts83z7jQOdC60TzRvtI/0sHTRNPG1EnUy9VO1dHWVdbY11zX4Nhk2OjZbNnx2nba+9uA3AXcit0Q3ZbeHN6i3ynfr+A24L3hROHM4lPi2+Nj4+vkc+T85YTmDeaW5x/nqegy6LzpRunQ6lvq5etw6/vshu0R7ZzuKO6070DvzPBY8OXxcvH/8ozzGfOn9DT0wvVQ9d72bfb794r4Gfio+Tj5x/pX+uf7d/wH/Jj9Kf26/kv+3P9t//9BTFBInAUAAAHwhW3b4eb//93Vy7Zt27Zt23693++XzaW3bdv2TFAG1aPaTGM2mGOhbTKZua/1iJgA5epzv7cxO9/7/hFK6EvaWd36y6kSXdJJ1f85XZiGG8Os7Dc9Hs8MK/9+hiCNt/QClP1DrLTC3az81zlCNF4bBqi0jVJlXxcr/dcK0HjrBoCif4wa+7ssAP+1mmu8dRNA0T+OjQNtFkDrtRpruW8AYNk/gc0DnRZA960Nemq5bwhg2TtLHYf8ZYCeWxv0s9l9wwAF7xx1HvKXAfrua9TLZo9NAWQ8Czhw0lsC6L+vSR+bPzYNkPEs4NBJbwlg/X1Netj6+RmAjGcRB095CgAjjzW7b5vn5wDSZgyHT3vyAKOPNbtrm+fnAVJmHBfOeHIAY89v7p5tX4kCRM0ELo2YOYCJ57dwx3avxACiZhIXR8wswOTzWzpv53fjAEtmCpdHzRTAwitbOmuXdxMAETOLBqNmEmDhla2cs+u7SYBFM4cmY2YCIPLuds7Y7dMswIwnj0bTZhwg8u729dvrq3mAyf8V0GymPQ6w9ObWdXo8ATBuFtFwpjUKMHZpXT4EGPOX0HTWjAClW+pwP5A3S2g86bOgeIJtO0UgF0bzHqC9wa5ngVa0bwJn2OWBIPrPzMHnbdpiGToFwISwTWdDpiDBAJS2tuczEEZCKw4X2PM7MEQgCK/ZMw1dMpjwZ1v2BysqQxAiDXbcAaPImKrAIXZ8CXxCMAz32dEFXil88A0btlyGQUF6bDgH0mUpRqC8XW2fhRBSWjG4qLbfgyEGAXijthkIyGHAX2s6AKyYHCFYaqjlThhBznQZDqvly+AThCG4v5YAeCXxwjdr2HIZhiTxQ28N50KqLMkoVLar7nMQQlIrCpdU9wcwRKEL3qpuDgKyGPD3qg4EKyZLGOKN1dwFI8iaLsMR1XwFfMIwAA9WEwSvNF74dhVbFmFIGj/0V3EeJCvSjENl+7VegSDSWktw6Vp/BEMcuuDtteYgKI8B/1jjILDi8nRDvHG1u2EYeTMlOHK1r4JXIDbBw6uFhPLAd1fZqgTDEvlh/SrnQ6Ii0ThYO654FQKIvAiXr/gTGDJ1wrsr5iEokwH/UkodDJW4TD2QbFTqHhhE5mwJjlbqa+AVio3wiFJhwTzwPbV1CYal8sMGdQEkKlJNgrXTaxBA7AW44k9gyBWE94bAI5cPfpUHUy4v+OJgyBWC//RCn1jZDHzv81AZksoP3HGcBR1CZWYgvrX6BeCVyQs8rdQuk5BfL1EbYDYppU4rwExUnoEszO2lVj4JhMrSxCegeK5a/fuAIYzVATyr1twiBFaHLAbwC1XlAUsQn5AkVIaN21ajrqnAQFaOmSikjlTVfwD4xShsAOsWVWPjPwCPFF7gU1XzTqNQ6JHBD/y/uTZ1Qg5mliQYyMHcnsrOx4BQWX/xSSieo+z9HmBorxIAnlY2bxEEq113BvBzZfv+EUiM6C1Uhr6t7VOXlmEwq7PpKKSOUPV8F2jVWH4DWDerujb+HfDoywd8rOq84wgUe3XlBf7fVC91fA5m5/W0KQdTu6r63wt0l3QUm4Ti2cqJ3wEMDVUCwJPKkZsHwGrTjwH8TDl0vwikR3TTVYG+rZyiLi7DYFov01FIHaGc+zbQqpX8BrBuUg5u+ANg6sQHfKgcveMwFHv14QH+1+QsdVwWFhZ0sa4Ak7sqp98NhIt6iE1C8Szl/G8ChhYqAeBx5cKWVrDadGAAP1Wu3HcRMsPu66pA71buUBeVYTTltqkoxA9Wbn0D8Fnuym8E60bl2obfAaa7fMD7ysU7DEEx7CYT+Fejm9TxWcj0usdrwfguyt33AkUj7Y7ZVqBwqnL7VwGyrYa/zdH/+49hhMoAjyjXN/0EV7+uNNj0Wt49C7crPe7/djDmAmvm/0/toJwIVlA4IBIOAAAwPgCdASqAAIAAPjEUiUMiISEUyN58IAMEtgBmotC/mevKv50j8l/597w1ffkH8R/I/7q/5fp1TT+mvuj+z/uv48fRH+7f0n2I/nf2Cf0o/yHUA8wH83/sH7D+7x/cf8p/L/cP+vX6c/275AP6V/kOsf9AD+I/2H0tP2Z/+PyVfsl+5fwJ/zz/Bf97rAP/v1h/TX+Ydo386/Ij9t+2j8XevPmq+NXpDxL/XH7Z/Xv3I/sn7c/Bf+H8FfhLqBfhX8d/vv5gflzx7ea+YF7B/WP839vnOx9VfYA/Vr/X+rP/A8EXjd9oH2Afyb+t/5/7ovpa/hP+h/jvyy9pv5t/df+B/kvgE/l39P/3v979nT11fsX/9PdC/Xhwbtwfc4vkNKOJpfnujH+HnFZXkub9TcY/39DcEWgD1tn2Rwff6vl4ciZG2oSAq6W+ft05qlzyhIRYVD1ZfK3fznbO4VS+iwXNZbkTcazKFwl4qnBd2mvr38CZz5cyMrAj2pP8ESvWreHCkr5KD6pjKugWYgRNeiSWK/g2+toDYdyBILOJVxIgh98Ck9T6bZMzS1qOWgaMyg6m5al9mnPPaf5N95Skb334QUonoHnSRjAQGUSX4vcneY9LD4PvcmR9NFagWr9Exow0QBRLhWxu5kNZMrHTVTihRWzyiGmy4rPS3AD+/2Aad//m4Bp//bt6icg7RK3Vm693ntHOBrLY5h7hDW0sC9cGxEibW3Y57+yJf30XbJWTcCQSwZvpsnuFVtR6wLmhadWd8IcPcIx1FuVxhBE1Nl3Sf3mO8GXt08KDvdZ2WimFZ1YHFqi2ncVvb4ZkmtJ7+VzcCQTObwwSQV9Ty0An1RvXPyTE6MmeEZAF0DAGQnk4jwp8rxuWtARNXzqzOKh9nOsH7MhRmdEVqwNjaE2pB/hdygjuhByXn8SEJ0xiX/TG1V0rukC9TevhDijAiNCct5JQYXKcrpwWHe1o/xS8TwqykDXljwVfq9/Ae2reZWmHeV48v3BdiX+IYl2OEsLUH5Cf/w/swTyX/t3whFtx3fQ2NThwcew7cGFqsQYHV7kGZQGBnAtHrvRaEAWcvs0/YDSxJ0nhDh32DvMLqAAN+MCwsGZeyabet37Zvbwhi//cRmKnx6OMyLhglETc03wUh6K32k9dbprB8EEoOqwlEhF25Wgtqi6rMD7rlXYSw43RlSxen9n67IR1hU+RSRqelvojBqU6yvM+Khsd7OMZaczmQ14EAQMSIQla/SPD+FETYZg5syoTJ3b15sYe7rjCpVKfDFbEeERYT+QYtIQ98Jn7skVmtV9NvPy4i1bCNmuCvfKiElf0Ui34M+HIMdf8JZrViit9ajMAACTkGfJi/hweE50ScNbM8jhYarhwq7FTf9uY+6CiObtA2rxR9CO8/xRsHkxyaXfUqwGrhl22b7ijVsDN1oIALyGD7Z//bwZ7X+PabkyfuLCsy8tVhPpICAD/de/TeZ0QqqJrhn7OkdcIvyVB7PzFQdFPYoJg0AxHvXOr7hnQCxsuMpBwM6nEo5ICbrBtv/d7RTq2r6daMvFzqtie745zIDfrYgjwdSpKE8ipgXz5Cgg//4OHob85rdh4QE8vajJoshtPiSk7LH897lF1ENfC+yPXc3JWqrfcMcYTqvsChDmjzEyEmH9qOx5ZOHOX1J9jn2BGwt6CmlxM62nLngHnyx3jrOUZPP2Hnw07Vj1mI+ZCrZvk1aDLydIReYvwAZzk5/FIyRT7w+MwH/seBw94ONNgc8Qtxhf8IlzuKjtKzVoShRAIbA9288rhyabhPqJDH5HUhqRJDiMF/6dzXQaUSTKtMM3zz6yoOCYA9oJRQxEM2QNE1KJnzDUP5tkodrfztKbzqmoN92qrx7oWr+xRIITbffuJljDHX85RRe6jWXXI6EExTyfWJPuo21oT/aNghALGfzPlMlLh94nRB8jsmAPCy2sf3oMgVN1cgbqEkqeV/ZEgLLOa6oHBM7h2OJh/8ISReC7nhSRKcYbZDjO2gNifFV79d6gsofc14O+JupbGIvGqZD946vZPeZwjfof1mWTrTYW2ZbfKQKdXO30AeX/mW+MUpHjpQNqQAISqS3WC1MYL76u9stKdCOZJBf2/PzwTD4heGONxi2nhn9MwusCVahLxeAqWvvOGGOeMEbtUh2fuFsUhEjWMLc6KI3MdUh5ks3v4bVPCDpYVyRUWXrI2SZKADzQwVsnnxmFY9MM6QHKiY90s7RrYCGj4Lqn67V6S4yV0CcZvBxv3kU3ehyd4B7XEAMEsdrjb4ZjQJIiC2doNT/Cflzw7zVv9sBgnrIDwP+dmN7lqoSJkIM7xrwCSWys06JeHEJ2ciUv9FHN/f4mN1etxNGSpJ80BC8OdWUwuUT8m0W18CH/rzeH5F2SOprYmJnK4uQwWQikdSKFRTgq3/kM2Ye6AVh0f+ap+4pqpTvyviskGT9EEYvEk6D6Vibl9XX5HPlhOatHTOxFMW3Iw2gyUMiHk2L+Rqqylr+K8P5MzYrSDWkafdkU3uPO6di5SvnEKvuT1xyjpCSJmQbb2JQ5Ko9Xwloddp/kpF4ECqMiugCBj2sviFAXuDyoEl38dk2bDTEgCSvU3Nkyz/o3w52/iq8SpvxX3MZZBfF4JaQPB2njhU89AKKXSxBCOwlCwJOPQRQzAHarx6txJZInSz8MYklUi7vCpJuZb/Mq8+BPBpoekAOk8whygMSdx4hon5NHd2rCYrygqef7jHb4mITtm8AZqadDNEqcpr8Cxu3g+r8lT3s9BQ8foQBVDuneyIc5vaky/xWdxbpLSGHsp0JRXGJaeo43JEBqfXeV4McUwhFqICspkseeStdaq461LxfbxycK4s5+HlPF6YeIK5lOLAwNoay6luZMEwLTsDZBs+b9Ojtdct/SGIE0OcsRl01foqe9BNUyKvaimqkpgglSExNHj/5ijvwVWR0VVSfgfQSql2EZOpBRU8q7i7w6dViKJLZ6qt8U2CZRUidrjGaQuyoyzVcZ3pp5PyZTn6GXBEomspZIlB7o7JRJ3dUrWH7gCWYJ5dKLS/M8XOAEPJkpyhNQV9J9e1ni56QQXxQlUVMZdxtpe7jo35DiFlLZ49MQUulvIvR/7EscI5BpFkbWVburdfKFhj9fOfI8wzYJl9lsYhvHOR7T4AziuzSo/MAZd6rOxcrmcVTsWOCjwEHoljOKG33akt9WdhaAngQqN6ss9oFva2jyScZhnXD1RlXEW8gKHyObW+5kaAIT55lMloE7VA6fYFmacHsbeeBMp40gvkc0KI7Zxs0I1xayJP1jj8Ijbu1h1an2kCA9M9Bnsz9/4sMquFFD10y65zkVaaAssf+3nSRNtfWLTBvOUU2M5RSJo+WapelGB+sXWrEmnAXTBXL5YozOk8IjaAXLdE9IkoH5OMZN+FfN0Cx3Sg25qBFvWWBxQrEugTdVIiR4iDHIbW2fM80x423vrKnXV8WFVPSzRgvNo6gfclKtLcg5D6YcufUWYvh0pn//icIb+0PXMw7lcT1auA1oAH6/gH36u9h9+Lr396GMQZVxahJk7uaIoMwj4trvWjlFBfbrCYQbUAD8RqpEn7ofXk23UGAZ5nersKxbHzVt+HPSPUg2rJ03CW2QwHi8+7PYwzHVYfksCsy+LX+TcGdG7O4ITAmHg0hS6zWTBI9itrl83y1ukUovMINnREA/3H5QqO514521x6aBxfMjKmRBb///WhAEzej5EH/6pC5ZrrHQU/Dae7NGDktLg+qH+153phVUsv+tKJEZrAZ//DMC/eju+KzxsIkGwlLoTSap5lqx5JTlv4OdwXfm4wRa5WOFXv/nW45CLkplh8cFrl83XkiTRaJor+tbs7X4lCBk9yZBAvTbZypOGIj4eKzw0o3E/A3A/2mCH/hPkFuJSbzfsaq6tp57cU6xTvbJvtizxt2L0Z0SuJZwM/wl7BznYeL267/b/2uuvoCHu8oQtB1IJ4sb7b1scxLYProUqc/FKDtNB68jn51jAsc2Nq4PlfQXVnQQcxTED9HlMEljRhAkLAY+//M0EuTeG8H+/ERoEihcrs764CgDOH1AI/CGvvK9bwGxIFT8f6/eD3WDec3Xb2zkmaZlemqKANclaD3EwU44gqepW1IQvFylGbaNB+jJfCO4ZbQhNVi6383bnn425GHh2yJmVUFz2YRwnYCMf8S4dD26UFW9VkyyGjUZ9pnpiATRUYyEX24+7CS6MJntkrN8iOknRV3o90JhaUs6dQrltZGaXjJmsIET3calvO59zovZzpMtlKa3Sl5MOt6KAuDvgNtyYcrfKN5JetGB0Sbx87zjzLu2C1yGXHwn0QcLgfJIBDPwFyE07YXnu+6ntU5OiesfIXrm377z4EATXZ3zInP1l1EFkmbkoDreRZ+SdXc39d7kwwEf98CZR0mm+SAlzWPXRCjvKETQ40lmSnCn2+KUBz2PChgRiVzbOMisU5noVmNXgs5u6uJwQPKWxUwxQMstDG029+/P78KbtPC11Uh04UQOSiLnf/x9rf7v9SAaBZU6l/2eu2+VOvSyIcZirU/246ZVf6OfZO5tiqY/EDyph7nqIhg54Gza3OQOAMIsDGeOhw6qDbF7hXwqFD/QK3fboeRaDgfrO1TfSjDl6qBtoqnZZvwVqxxIYPrWryCVm6EvYjSNCzX6YINlf5HcDysb38FnN3aDxR8r7BzWvyZ6IMiN2nUd09Erz/eba4ss1Nkz1OQjdwnu0aO8IkWWr4sa7Bapqd47LdqeWJHKHT4bbAVd6F1z+niB8E7sAte7QAAAAAA==" vertex="1" parent="1">
                    <mxGeometry x="300" y="167" width="50" height="50" as="geometry"/>
                </mxCell>
                <mxCell id="11" value="" style="shape=image;verticalLabelPosition=bottom;verticalAlign=top;imageAspect=0;aspect=fixed;image=data:image/webp,UklGRiQgAABXRUJQVlA4WAoAAAAwAAAAfwAAfwAASUNDUEgMAAAAAAxITGlubwIQAABtbnRyUkdCIFhZWiAHzgACAAkABgAxAABhY3NwTVNGVAAAAABJRUMgc1JHQgAAAAAAAAAAAAAAAAAA9tYAAQAAAADTLUhQICAAAAAAAAAAAAAAAAAAAAAAAAAAAAAAAAAAAAAAAAAAAAAAAAAAAAAAAAAAAAAAABFjcHJ0AAABUAAAADNkZXNjAAABhAAAAGx3dHB0AAAB8AAAABRia3B0AAACBAAAABRyWFlaAAACGAAAABRnWFlaAAACLAAAABRiWFlaAAACQAAAABRkbW5kAAACVAAAAHBkbWRkAAACxAAAAIh2dWVkAAADTAAAAIZ2aWV3AAAD1AAAACRsdW1pAAAD+AAAABRtZWFzAAAEDAAAACR0ZWNoAAAEMAAAAAxyVFJDAAAEPAAACAxnVFJDAAAEPAAACAxiVFJDAAAEPAAACAx0ZXh0AAAAAENvcHlyaWdodCAoYykgMTk5OCBIZXdsZXR0LVBhY2thcmQgQ29tcGFueQAAZGVzYwAAAAAAAAASc1JHQiBJRUM2MTk2Ni0yLjEAAAAAAAAAAAAAABJzUkdCIElFQzYxOTY2LTIuMQAAAAAAAAAAAAAAAAAAAAAAAAAAAAAAAAAAAAAAAAAAAAAAAAAAAAAAAAAAAAAAAAAAWFlaIAAAAAAAAPNRAAEAAAABFsxYWVogAAAAAAAAAAAAAAAAAAAAAFhZWiAAAAAAAABvogAAOPUAAAOQWFlaIAAAAAAAAGKZAAC3hQAAGNpYWVogAAAAAAAAJKAAAA+EAAC2z2Rlc2MAAAAAAAAAFklFQyBodHRwOi8vd3d3LmllYy5jaAAAAAAAAAAAAAAAFklFQyBodHRwOi8vd3d3LmllYy5jaAAAAAAAAAAAAAAAAAAAAAAAAAAAAAAAAAAAAAAAAAAAAAAAAAAAAAAAAAAAAABkZXNjAAAAAAAAAC5JRUMgNjE5NjYtMi4xIERlZmF1bHQgUkdCIGNvbG91ciBzcGFjZSAtIHNSR0IAAAAAAAAAAAAAAC5JRUMgNjE5NjYtMi4xIERlZmF1bHQgUkdCIGNvbG91ciBzcGFjZSAtIHNSR0IAAAAAAAAAAAAAAAAAAAAAAAAAAAAAZGVzYwAAAAAAAAAsUmVmZXJlbmNlIFZpZXdpbmcgQ29uZGl0aW9uIGluIElFQzYxOTY2LTIuMQAAAAAAAAAAAAAALFJlZmVyZW5jZSBWaWV3aW5nIENvbmRpdGlvbiBpbiBJRUM2MTk2Ni0yLjEAAAAAAAAAAAAAAAAAAAAAAAAAAAAAAAAAAHZpZXcAAAAAABOk/gAUXy4AEM8UAAPtzAAEEwsAA1yeAAAAAVhZWiAAAAAAAEwJVgBQAAAAVx/nbWVhcwAAAAAAAAABAAAAAAAAAAAAAAAAAAAAAAAAAo8AAAACc2lnIAAAAABDUlQgY3VydgAAAAAAAAQAAAAABQAKAA8AFAAZAB4AIwAoAC0AMgA3ADsAQABFAEoATwBUAFkAXgBjAGgAbQByAHcAfACBAIYAiwCQAJUAmgCfAKQAqQCuALIAtwC8AMEAxgDLANAA1QDbAOAA5QDrAPAA9gD7AQEBBwENARMBGQEfASUBKwEyATgBPgFFAUwBUgFZAWABZwFuAXUBfAGDAYsBkgGaAaEBqQGxAbkBwQHJAdEB2QHhAekB8gH6AgMCDAIUAh0CJgIvAjgCQQJLAlQCXQJnAnECegKEAo4CmAKiAqwCtgLBAssC1QLgAusC9QMAAwsDFgMhAy0DOANDA08DWgNmA3IDfgOKA5YDogOuA7oDxwPTA+AD7AP5BAYEEwQgBC0EOwRIBFUEYwRxBH4EjASaBKgEtgTEBNME4QTwBP4FDQUcBSsFOgVJBVgFZwV3BYYFlgWmBbUFxQXVBeUF9gYGBhYGJwY3BkgGWQZqBnsGjAadBq8GwAbRBuMG9QcHBxkHKwc9B08HYQd0B4YHmQesB78H0gflB/gICwgfCDIIRghaCG4IggiWCKoIvgjSCOcI+wkQCSUJOglPCWQJeQmPCaQJugnPCeUJ+woRCicKPQpUCmoKgQqYCq4KxQrcCvMLCwsiCzkLUQtpC4ALmAuwC8gL4Qv5DBIMKgxDDFwMdQyODKcMwAzZDPMNDQ0mDUANWg10DY4NqQ3DDd4N+A4TDi4OSQ5kDn8Omw62DtIO7g8JDyUPQQ9eD3oPlg+zD88P7BAJECYQQxBhEH4QmxC5ENcQ9RETETERTxFtEYwRqhHJEegSBxImEkUSZBKEEqMSwxLjEwMTIxNDE2MTgxOkE8UT5RQGFCcUSRRqFIsUrRTOFPAVEhU0FVYVeBWbFb0V4BYDFiYWSRZsFo8WshbWFvoXHRdBF2UXiReuF9IX9xgbGEAYZRiKGK8Y1Rj6GSAZRRlrGZEZtxndGgQaKhpRGncanhrFGuwbFBs7G2MbihuyG9ocAhwqHFIcexyjHMwc9R0eHUcdcB2ZHcMd7B4WHkAeah6UHr4e6R8THz4faR+UH78f6iAVIEEgbCCYIMQg8CEcIUghdSGhIc4h+yInIlUigiKvIt0jCiM4I2YjlCPCI/AkHyRNJHwkqyTaJQklOCVoJZclxyX3JicmVyaHJrcm6CcYJ0kneierJ9woDSg/KHEooijUKQYpOClrKZ0p0CoCKjUqaCqbKs8rAis2K2krnSvRLAUsOSxuLKIs1y0MLUEtdi2rLeEuFi5MLoIuty7uLyQvWi+RL8cv/jA1MGwwpDDbMRIxSjGCMbox8jIqMmMymzLUMw0zRjN/M7gz8TQrNGU0njTYNRM1TTWHNcI1/TY3NnI2rjbpNyQ3YDecN9c4FDhQOIw4yDkFOUI5fzm8Ofk6Njp0OrI67zstO2s7qjvoPCc8ZTykPOM9Ij1hPaE94D4gPmA+oD7gPyE/YT+iP+JAI0BkQKZA50EpQWpBrEHuQjBCckK1QvdDOkN9Q8BEA0RHRIpEzkUSRVVFmkXeRiJGZ0arRvBHNUd7R8BIBUhLSJFI10kdSWNJqUnwSjdKfUrESwxLU0uaS+JMKkxyTLpNAk1KTZNN3E4lTm5Ot08AT0lPk0/dUCdQcVC7UQZRUFGbUeZSMVJ8UsdTE1NfU6pT9lRCVI9U21UoVXVVwlYPVlxWqVb3V0RXklfgWC9YfVjLWRpZaVm4WgdaVlqmWvVbRVuVW+VcNVyGXNZdJ114XcleGl5sXr1fD19hX7NgBWBXYKpg/GFPYaJh9WJJYpxi8GNDY5dj62RAZJRk6WU9ZZJl52Y9ZpJm6Gc9Z5Nn6Wg/aJZo7GlDaZpp8WpIap9q92tPa6dr/2xXbK9tCG1gbbluEm5rbsRvHm94b9FwK3CGcOBxOnGVcfByS3KmcwFzXXO4dBR0cHTMdSh1hXXhdj52m3b4d1Z3s3gReG54zHkqeYl553pGeqV7BHtje8J8IXyBfOF9QX2hfgF+Yn7CfyN/hH/lgEeAqIEKgWuBzYIwgpKC9INXg7qEHYSAhOOFR4Wrhg6GcobXhzuHn4gEiGmIzokziZmJ/opkisqLMIuWi/yMY4zKjTGNmI3/jmaOzo82j56QBpBukNaRP5GokhGSepLjk02TtpQglIqU9JVflcmWNJaflwqXdZfgmEyYuJkkmZCZ/JpomtWbQpuvnByciZz3nWSd0p5Anq6fHZ+Ln/qgaaDYoUehtqImopajBqN2o+akVqTHpTilqaYapoum/adup+CoUqjEqTepqaocqo+rAqt1q+msXKzQrUStuK4trqGvFq+LsACwdbDqsWCx1rJLssKzOLOutCW0nLUTtYq2AbZ5tvC3aLfguFm40blKucK6O7q1uy67p7whvJu9Fb2Pvgq+hL7/v3q/9cBwwOzBZ8Hjwl/C28NYw9TEUcTOxUvFyMZGxsPHQce/yD3IvMk6ybnKOMq3yzbLtsw1zLXNNc21zjbOts83z7jQOdC60TzRvtI/0sHTRNPG1EnUy9VO1dHWVdbY11zX4Nhk2OjZbNnx2nba+9uA3AXcit0Q3ZbeHN6i3ynfr+A24L3hROHM4lPi2+Nj4+vkc+T85YTmDeaW5x/nqegy6LzpRunQ6lvq5etw6/vshu0R7ZzuKO6070DvzPBY8OXxcvH/8ozzGfOn9DT0wvVQ9d72bfb794r4Gfio+Tj5x/pX+uf7d/wH/Jj9Kf26/kv+3P9t//9BTFBInAUAAAHwhW3b4eb//93Vy7Zt27Zt23693++XzaW3bdv2TFAG1aPaTGM2mGOhbTKZua/1iJgA5epzv7cxO9/7/hFK6EvaWd36y6kSXdJJ1f85XZiGG8Os7Dc9Hs8MK/9+hiCNt/QClP1DrLTC3az81zlCNF4bBqi0jVJlXxcr/dcK0HjrBoCif4wa+7ssAP+1mmu8dRNA0T+OjQNtFkDrtRpruW8AYNk/gc0DnRZA960Nemq5bwhg2TtLHYf8ZYCeWxv0s9l9wwAF7xx1HvKXAfrua9TLZo9NAWQ8Czhw0lsC6L+vSR+bPzYNkPEs4NBJbwlg/X1Netj6+RmAjGcRB095CgAjjzW7b5vn5wDSZgyHT3vyAKOPNbtrm+fnAVJmHBfOeHIAY89v7p5tX4kCRM0ELo2YOYCJ57dwx3avxACiZhIXR8wswOTzWzpv53fjAEtmCpdHzRTAwitbOmuXdxMAETOLBqNmEmDhla2cs+u7SYBFM4cmY2YCIPLuds7Y7dMswIwnj0bTZhwg8u729dvrq3mAyf8V0GymPQ6w9ObWdXo8ATBuFtFwpjUKMHZpXT4EGPOX0HTWjAClW+pwP5A3S2g86bOgeIJtO0UgF0bzHqC9wa5ngVa0bwJn2OWBIPrPzMHnbdpiGToFwISwTWdDpiDBAJS2tuczEEZCKw4X2PM7MEQgCK/ZMw1dMpjwZ1v2BysqQxAiDXbcAaPImKrAIXZ8CXxCMAz32dEFXil88A0btlyGQUF6bDgH0mUpRqC8XW2fhRBSWjG4qLbfgyEGAXijthkIyGHAX2s6AKyYHCFYaqjlThhBznQZDqvly+AThCG4v5YAeCXxwjdr2HIZhiTxQ28N50KqLMkoVLar7nMQQlIrCpdU9wcwRKEL3qpuDgKyGPD3qg4EKyZLGOKN1dwFI8iaLsMR1XwFfMIwAA9WEwSvNF74dhVbFmFIGj/0V3EeJCvSjENl+7VegSDSWktw6Vp/BEMcuuDtteYgKI8B/1jjILDi8nRDvHG1u2EYeTMlOHK1r4JXIDbBw6uFhPLAd1fZqgTDEvlh/SrnQ6Ii0ThYO654FQKIvAiXr/gTGDJ1wrsr5iEokwH/UkodDJW4TD2QbFTqHhhE5mwJjlbqa+AVio3wiFJhwTzwPbV1CYal8sMGdQEkKlJNgrXTaxBA7AW44k9gyBWE94bAI5cPfpUHUy4v+OJgyBWC//RCn1jZDHzv81AZksoP3HGcBR1CZWYgvrX6BeCVyQs8rdQuk5BfL1EbYDYppU4rwExUnoEszO2lVj4JhMrSxCegeK5a/fuAIYzVATyr1twiBFaHLAbwC1XlAUsQn5AkVIaN21ajrqnAQFaOmSikjlTVfwD4xShsAOsWVWPjPwCPFF7gU1XzTqNQ6JHBD/y/uTZ1Qg5mliQYyMHcnsrOx4BQWX/xSSieo+z9HmBorxIAnlY2bxEEq113BvBzZfv+EUiM6C1Uhr6t7VOXlmEwq7PpKKSOUPV8F2jVWH4DWDerujb+HfDoywd8rOq84wgUe3XlBf7fVC91fA5m5/W0KQdTu6r63wt0l3QUm4Ti2cqJ3wEMDVUCwJPKkZsHwGrTjwH8TDl0vwikR3TTVYG+rZyiLi7DYFov01FIHaGc+zbQqpX8BrBuUg5u+ANg6sQHfKgcveMwFHv14QH+1+QsdVwWFhZ0sa4Ak7sqp98NhIt6iE1C8Szl/G8ChhYqAeBx5cKWVrDadGAAP1Wu3HcRMsPu66pA71buUBeVYTTltqkoxA9Wbn0D8Fnuym8E60bl2obfAaa7fMD7ysU7DEEx7CYT+Fejm9TxWcj0usdrwfguyt33AkUj7Y7ZVqBwqnL7VwGyrYa/zdH/+49hhMoAjyjXN/0EV7+uNNj0Wt49C7crPe7/djDmAmvm/0/toJwIVlA4IBIOAAAwPgCdASqAAIAAPjEUiUMiISEUyN58IAMEtgBmotC/mevKv50j8l/597w1ffkH8R/I/7q/5fp1TT+mvuj+z/uv48fRH+7f0n2I/nf2Cf0o/yHUA8wH83/sH7D+7x/cf8p/L/cP+vX6c/275AP6V/kOsf9AD+I/2H0tP2Z/+PyVfsl+5fwJ/zz/Bf97rAP/v1h/TX+Ydo386/Ij9t+2j8XevPmq+NXpDxL/XH7Z/Xv3I/sn7c/Bf+H8FfhLqBfhX8d/vv5gflzx7ea+YF7B/WP839vnOx9VfYA/Vr/X+rP/A8EXjd9oH2Afyb+t/5/7ovpa/hP+h/jvyy9pv5t/df+B/kvgE/l39P/3v979nT11fsX/9PdC/Xhwbtwfc4vkNKOJpfnujH+HnFZXkub9TcY/39DcEWgD1tn2Rwff6vl4ciZG2oSAq6W+ft05qlzyhIRYVD1ZfK3fznbO4VS+iwXNZbkTcazKFwl4qnBd2mvr38CZz5cyMrAj2pP8ESvWreHCkr5KD6pjKugWYgRNeiSWK/g2+toDYdyBILOJVxIgh98Ck9T6bZMzS1qOWgaMyg6m5al9mnPPaf5N95Skb334QUonoHnSRjAQGUSX4vcneY9LD4PvcmR9NFagWr9Exow0QBRLhWxu5kNZMrHTVTihRWzyiGmy4rPS3AD+/2Aad//m4Bp//bt6icg7RK3Vm693ntHOBrLY5h7hDW0sC9cGxEibW3Y57+yJf30XbJWTcCQSwZvpsnuFVtR6wLmhadWd8IcPcIx1FuVxhBE1Nl3Sf3mO8GXt08KDvdZ2WimFZ1YHFqi2ncVvb4ZkmtJ7+VzcCQTObwwSQV9Ty0An1RvXPyTE6MmeEZAF0DAGQnk4jwp8rxuWtARNXzqzOKh9nOsH7MhRmdEVqwNjaE2pB/hdygjuhByXn8SEJ0xiX/TG1V0rukC9TevhDijAiNCct5JQYXKcrpwWHe1o/xS8TwqykDXljwVfq9/Ae2reZWmHeV48v3BdiX+IYl2OEsLUH5Cf/w/swTyX/t3whFtx3fQ2NThwcew7cGFqsQYHV7kGZQGBnAtHrvRaEAWcvs0/YDSxJ0nhDh32DvMLqAAN+MCwsGZeyabet37Zvbwhi//cRmKnx6OMyLhglETc03wUh6K32k9dbprB8EEoOqwlEhF25Wgtqi6rMD7rlXYSw43RlSxen9n67IR1hU+RSRqelvojBqU6yvM+Khsd7OMZaczmQ14EAQMSIQla/SPD+FETYZg5syoTJ3b15sYe7rjCpVKfDFbEeERYT+QYtIQ98Jn7skVmtV9NvPy4i1bCNmuCvfKiElf0Ui34M+HIMdf8JZrViit9ajMAACTkGfJi/hweE50ScNbM8jhYarhwq7FTf9uY+6CiObtA2rxR9CO8/xRsHkxyaXfUqwGrhl22b7ijVsDN1oIALyGD7Z//bwZ7X+PabkyfuLCsy8tVhPpICAD/de/TeZ0QqqJrhn7OkdcIvyVB7PzFQdFPYoJg0AxHvXOr7hnQCxsuMpBwM6nEo5ICbrBtv/d7RTq2r6daMvFzqtie745zIDfrYgjwdSpKE8ipgXz5Cgg//4OHob85rdh4QE8vajJoshtPiSk7LH897lF1ENfC+yPXc3JWqrfcMcYTqvsChDmjzEyEmH9qOx5ZOHOX1J9jn2BGwt6CmlxM62nLngHnyx3jrOUZPP2Hnw07Vj1mI+ZCrZvk1aDLydIReYvwAZzk5/FIyRT7w+MwH/seBw94ONNgc8Qtxhf8IlzuKjtKzVoShRAIbA9288rhyabhPqJDH5HUhqRJDiMF/6dzXQaUSTKtMM3zz6yoOCYA9oJRQxEM2QNE1KJnzDUP5tkodrfztKbzqmoN92qrx7oWr+xRIITbffuJljDHX85RRe6jWXXI6EExTyfWJPuo21oT/aNghALGfzPlMlLh94nRB8jsmAPCy2sf3oMgVN1cgbqEkqeV/ZEgLLOa6oHBM7h2OJh/8ISReC7nhSRKcYbZDjO2gNifFV79d6gsofc14O+JupbGIvGqZD946vZPeZwjfof1mWTrTYW2ZbfKQKdXO30AeX/mW+MUpHjpQNqQAISqS3WC1MYL76u9stKdCOZJBf2/PzwTD4heGONxi2nhn9MwusCVahLxeAqWvvOGGOeMEbtUh2fuFsUhEjWMLc6KI3MdUh5ks3v4bVPCDpYVyRUWXrI2SZKADzQwVsnnxmFY9MM6QHKiY90s7RrYCGj4Lqn67V6S4yV0CcZvBxv3kU3ehyd4B7XEAMEsdrjb4ZjQJIiC2doNT/Cflzw7zVv9sBgnrIDwP+dmN7lqoSJkIM7xrwCSWys06JeHEJ2ciUv9FHN/f4mN1etxNGSpJ80BC8OdWUwuUT8m0W18CH/rzeH5F2SOprYmJnK4uQwWQikdSKFRTgq3/kM2Ye6AVh0f+ap+4pqpTvyviskGT9EEYvEk6D6Vibl9XX5HPlhOatHTOxFMW3Iw2gyUMiHk2L+Rqqylr+K8P5MzYrSDWkafdkU3uPO6di5SvnEKvuT1xyjpCSJmQbb2JQ5Ko9Xwloddp/kpF4ECqMiugCBj2sviFAXuDyoEl38dk2bDTEgCSvU3Nkyz/o3w52/iq8SpvxX3MZZBfF4JaQPB2njhU89AKKXSxBCOwlCwJOPQRQzAHarx6txJZInSz8MYklUi7vCpJuZb/Mq8+BPBpoekAOk8whygMSdx4hon5NHd2rCYrygqef7jHb4mITtm8AZqadDNEqcpr8Cxu3g+r8lT3s9BQ8foQBVDuneyIc5vaky/xWdxbpLSGHsp0JRXGJaeo43JEBqfXeV4McUwhFqICspkseeStdaq461LxfbxycK4s5+HlPF6YeIK5lOLAwNoay6luZMEwLTsDZBs+b9Ojtdct/SGIE0OcsRl01foqe9BNUyKvaimqkpgglSExNHj/5ijvwVWR0VVSfgfQSql2EZOpBRU8q7i7w6dViKJLZ6qt8U2CZRUidrjGaQuyoyzVcZ3pp5PyZTn6GXBEomspZIlB7o7JRJ3dUrWH7gCWYJ5dKLS/M8XOAEPJkpyhNQV9J9e1ni56QQXxQlUVMZdxtpe7jo35DiFlLZ49MQUulvIvR/7EscI5BpFkbWVburdfKFhj9fOfI8wzYJl9lsYhvHOR7T4AziuzSo/MAZd6rOxcrmcVTsWOCjwEHoljOKG33akt9WdhaAngQqN6ss9oFva2jyScZhnXD1RlXEW8gKHyObW+5kaAIT55lMloE7VA6fYFmacHsbeeBMp40gvkc0KI7Zxs0I1xayJP1jj8Ijbu1h1an2kCA9M9Bnsz9/4sMquFFD10y65zkVaaAssf+3nSRNtfWLTBvOUU2M5RSJo+WapelGB+sXWrEmnAXTBXL5YozOk8IjaAXLdE9IkoH5OMZN+FfN0Cx3Sg25qBFvWWBxQrEugTdVIiR4iDHIbW2fM80x423vrKnXV8WFVPSzRgvNo6gfclKtLcg5D6YcufUWYvh0pn//icIb+0PXMw7lcT1auA1oAH6/gH36u9h9+Lr396GMQZVxahJk7uaIoMwj4trvWjlFBfbrCYQbUAD8RqpEn7ofXk23UGAZ5nersKxbHzVt+HPSPUg2rJ03CW2QwHi8+7PYwzHVYfksCsy+LX+TcGdG7O4ITAmHg0hS6zWTBI9itrl83y1ukUovMINnREA/3H5QqO514521x6aBxfMjKmRBb///WhAEzej5EH/6pC5ZrrHQU/Dae7NGDktLg+qH+153phVUsv+tKJEZrAZ//DMC/eju+KzxsIkGwlLoTSap5lqx5JTlv4OdwXfm4wRa5WOFXv/nW45CLkplh8cFrl83XkiTRaJor+tbs7X4lCBk9yZBAvTbZypOGIj4eKzw0o3E/A3A/2mCH/hPkFuJSbzfsaq6tp57cU6xTvbJvtizxt2L0Z0SuJZwM/wl7BznYeL267/b/2uuvoCHu8oQtB1IJ4sb7b1scxLYProUqc/FKDtNB68jn51jAsc2Nq4PlfQXVnQQcxTED9HlMEljRhAkLAY+//M0EuTeG8H+/ERoEihcrs764CgDOH1AI/CGvvK9bwGxIFT8f6/eD3WDec3Xb2zkmaZlemqKANclaD3EwU44gqepW1IQvFylGbaNB+jJfCO4ZbQhNVi6383bnn425GHh2yJmVUFz2YRwnYCMf8S4dD26UFW9VkyyGjUZ9pnpiATRUYyEX24+7CS6MJntkrN8iOknRV3o90JhaUs6dQrltZGaXjJmsIET3calvO59zovZzpMtlKa3Sl5MOt6KAuDvgNtyYcrfKN5JetGB0Sbx87zjzLu2C1yGXHwn0QcLgfJIBDPwFyE07YXnu+6ntU5OiesfIXrm377z4EATXZ3zInP1l1EFkmbkoDreRZ+SdXc39d7kwwEf98CZR0mm+SAlzWPXRCjvKETQ40lmSnCn2+KUBz2PChgRiVzbOMisU5noVmNXgs5u6uJwQPKWxUwxQMstDG029+/P78KbtPC11Uh04UQOSiLnf/x9rf7v9SAaBZU6l/2eu2+VOvSyIcZirU/246ZVf6OfZO5tiqY/EDyph7nqIhg54Gza3OQOAMIsDGeOhw6qDbF7hXwqFD/QK3fboeRaDgfrO1TfSjDl6qBtoqnZZvwVqxxIYPrWryCVm6EvYjSNCzX6YINlf5HcDysb38FnN3aDxR8r7BzWvyZ6IMiN2nUd09Erz/eba4ss1Nkz1OQjdwnu0aO8IkWWr4sa7Bapqd47LdqeWJHKHT4bbAVd6F1z+niB8E7sAte7QAAAAAA==" vertex="1" parent="1">
                    <mxGeometry x="310" y="167" width="50" height="50" as="geometry"/>
                </mxCell>
                <mxCell id="12" value="リソース状況によりPodが新規で追加される" style="text;html=1;strokeColor=none;fillColor=none;align=center;verticalAlign=middle;whiteSpace=wrap;rounded=0;" vertex="1" parent="1">
                    <mxGeometry x="80" y="107" width="270" height="20" as="geometry"/>
                </mxCell>
                <mxCell id="13" value="" style="rounded=0;whiteSpace=wrap;html=1;" vertex="1" parent="1">
                    <mxGeometry x="40" y="330" width="320" height="180" as="geometry"/>
                </mxCell>
                <mxCell id="14" value="" style="shape=image;verticalLabelPosition=bottom;verticalAlign=top;imageAspect=0;aspect=fixed;image=data:image/webp,UklGRiQgAABXRUJQVlA4WAoAAAAwAAAAfwAAfwAASUNDUEgMAAAAAAxITGlubwIQAABtbnRyUkdCIFhZWiAHzgACAAkABgAxAABhY3NwTVNGVAAAAABJRUMgc1JHQgAAAAAAAAAAAAAAAAAA9tYAAQAAAADTLUhQICAAAAAAAAAAAAAAAAAAAAAAAAAAAAAAAAAAAAAAAAAAAAAAAAAAAAAAAAAAAAAAABFjcHJ0AAABUAAAADNkZXNjAAABhAAAAGx3dHB0AAAB8AAAABRia3B0AAACBAAAABRyWFlaAAACGAAAABRnWFlaAAACLAAAABRiWFlaAAACQAAAABRkbW5kAAACVAAAAHBkbWRkAAACxAAAAIh2dWVkAAADTAAAAIZ2aWV3AAAD1AAAACRsdW1pAAAD+AAAABRtZWFzAAAEDAAAACR0ZWNoAAAEMAAAAAxyVFJDAAAEPAAACAxnVFJDAAAEPAAACAxiVFJDAAAEPAAACAx0ZXh0AAAAAENvcHlyaWdodCAoYykgMTk5OCBIZXdsZXR0LVBhY2thcmQgQ29tcGFueQAAZGVzYwAAAAAAAAASc1JHQiBJRUM2MTk2Ni0yLjEAAAAAAAAAAAAAABJzUkdCIElFQzYxOTY2LTIuMQAAAAAAAAAAAAAAAAAAAAAAAAAAAAAAAAAAAAAAAAAAAAAAAAAAAAAAAAAAAAAAAAAAWFlaIAAAAAAAAPNRAAEAAAABFsxYWVogAAAAAAAAAAAAAAAAAAAAAFhZWiAAAAAAAABvogAAOPUAAAOQWFlaIAAAAAAAAGKZAAC3hQAAGNpYWVogAAAAAAAAJKAAAA+EAAC2z2Rlc2MAAAAAAAAAFklFQyBodHRwOi8vd3d3LmllYy5jaAAAAAAAAAAAAAAAFklFQyBodHRwOi8vd3d3LmllYy5jaAAAAAAAAAAAAAAAAAAAAAAAAAAAAAAAAAAAAAAAAAAAAAAAAAAAAAAAAAAAAABkZXNjAAAAAAAAAC5JRUMgNjE5NjYtMi4xIERlZmF1bHQgUkdCIGNvbG91ciBzcGFjZSAtIHNSR0IAAAAAAAAAAAAAAC5JRUMgNjE5NjYtMi4xIERlZmF1bHQgUkdCIGNvbG91ciBzcGFjZSAtIHNSR0IAAAAAAAAAAAAAAAAAAAAAAAAAAAAAZGVzYwAAAAAAAAAsUmVmZXJlbmNlIFZpZXdpbmcgQ29uZGl0aW9uIGluIElFQzYxOTY2LTIuMQAAAAAAAAAAAAAALFJlZmVyZW5jZSBWaWV3aW5nIENvbmRpdGlvbiBpbiBJRUM2MTk2Ni0yLjEAAAAAAAAAAAAAAAAAAAAAAAAAAAAAAAAAAHZpZXcAAAAAABOk/gAUXy4AEM8UAAPtzAAEEwsAA1yeAAAAAVhZWiAAAAAAAEwJVgBQAAAAVx/nbWVhcwAAAAAAAAABAAAAAAAAAAAAAAAAAAAAAAAAAo8AAAACc2lnIAAAAABDUlQgY3VydgAAAAAAAAQAAAAABQAKAA8AFAAZAB4AIwAoAC0AMgA3ADsAQABFAEoATwBUAFkAXgBjAGgAbQByAHcAfACBAIYAiwCQAJUAmgCfAKQAqQCuALIAtwC8AMEAxgDLANAA1QDbAOAA5QDrAPAA9gD7AQEBBwENARMBGQEfASUBKwEyATgBPgFFAUwBUgFZAWABZwFuAXUBfAGDAYsBkgGaAaEBqQGxAbkBwQHJAdEB2QHhAekB8gH6AgMCDAIUAh0CJgIvAjgCQQJLAlQCXQJnAnECegKEAo4CmAKiAqwCtgLBAssC1QLgAusC9QMAAwsDFgMhAy0DOANDA08DWgNmA3IDfgOKA5YDogOuA7oDxwPTA+AD7AP5BAYEEwQgBC0EOwRIBFUEYwRxBH4EjASaBKgEtgTEBNME4QTwBP4FDQUcBSsFOgVJBVgFZwV3BYYFlgWmBbUFxQXVBeUF9gYGBhYGJwY3BkgGWQZqBnsGjAadBq8GwAbRBuMG9QcHBxkHKwc9B08HYQd0B4YHmQesB78H0gflB/gICwgfCDIIRghaCG4IggiWCKoIvgjSCOcI+wkQCSUJOglPCWQJeQmPCaQJugnPCeUJ+woRCicKPQpUCmoKgQqYCq4KxQrcCvMLCwsiCzkLUQtpC4ALmAuwC8gL4Qv5DBIMKgxDDFwMdQyODKcMwAzZDPMNDQ0mDUANWg10DY4NqQ3DDd4N+A4TDi4OSQ5kDn8Omw62DtIO7g8JDyUPQQ9eD3oPlg+zD88P7BAJECYQQxBhEH4QmxC5ENcQ9RETETERTxFtEYwRqhHJEegSBxImEkUSZBKEEqMSwxLjEwMTIxNDE2MTgxOkE8UT5RQGFCcUSRRqFIsUrRTOFPAVEhU0FVYVeBWbFb0V4BYDFiYWSRZsFo8WshbWFvoXHRdBF2UXiReuF9IX9xgbGEAYZRiKGK8Y1Rj6GSAZRRlrGZEZtxndGgQaKhpRGncanhrFGuwbFBs7G2MbihuyG9ocAhwqHFIcexyjHMwc9R0eHUcdcB2ZHcMd7B4WHkAeah6UHr4e6R8THz4faR+UH78f6iAVIEEgbCCYIMQg8CEcIUghdSGhIc4h+yInIlUigiKvIt0jCiM4I2YjlCPCI/AkHyRNJHwkqyTaJQklOCVoJZclxyX3JicmVyaHJrcm6CcYJ0kneierJ9woDSg/KHEooijUKQYpOClrKZ0p0CoCKjUqaCqbKs8rAis2K2krnSvRLAUsOSxuLKIs1y0MLUEtdi2rLeEuFi5MLoIuty7uLyQvWi+RL8cv/jA1MGwwpDDbMRIxSjGCMbox8jIqMmMymzLUMw0zRjN/M7gz8TQrNGU0njTYNRM1TTWHNcI1/TY3NnI2rjbpNyQ3YDecN9c4FDhQOIw4yDkFOUI5fzm8Ofk6Njp0OrI67zstO2s7qjvoPCc8ZTykPOM9Ij1hPaE94D4gPmA+oD7gPyE/YT+iP+JAI0BkQKZA50EpQWpBrEHuQjBCckK1QvdDOkN9Q8BEA0RHRIpEzkUSRVVFmkXeRiJGZ0arRvBHNUd7R8BIBUhLSJFI10kdSWNJqUnwSjdKfUrESwxLU0uaS+JMKkxyTLpNAk1KTZNN3E4lTm5Ot08AT0lPk0/dUCdQcVC7UQZRUFGbUeZSMVJ8UsdTE1NfU6pT9lRCVI9U21UoVXVVwlYPVlxWqVb3V0RXklfgWC9YfVjLWRpZaVm4WgdaVlqmWvVbRVuVW+VcNVyGXNZdJ114XcleGl5sXr1fD19hX7NgBWBXYKpg/GFPYaJh9WJJYpxi8GNDY5dj62RAZJRk6WU9ZZJl52Y9ZpJm6Gc9Z5Nn6Wg/aJZo7GlDaZpp8WpIap9q92tPa6dr/2xXbK9tCG1gbbluEm5rbsRvHm94b9FwK3CGcOBxOnGVcfByS3KmcwFzXXO4dBR0cHTMdSh1hXXhdj52m3b4d1Z3s3gReG54zHkqeYl553pGeqV7BHtje8J8IXyBfOF9QX2hfgF+Yn7CfyN/hH/lgEeAqIEKgWuBzYIwgpKC9INXg7qEHYSAhOOFR4Wrhg6GcobXhzuHn4gEiGmIzokziZmJ/opkisqLMIuWi/yMY4zKjTGNmI3/jmaOzo82j56QBpBukNaRP5GokhGSepLjk02TtpQglIqU9JVflcmWNJaflwqXdZfgmEyYuJkkmZCZ/JpomtWbQpuvnByciZz3nWSd0p5Anq6fHZ+Ln/qgaaDYoUehtqImopajBqN2o+akVqTHpTilqaYapoum/adup+CoUqjEqTepqaocqo+rAqt1q+msXKzQrUStuK4trqGvFq+LsACwdbDqsWCx1rJLssKzOLOutCW0nLUTtYq2AbZ5tvC3aLfguFm40blKucK6O7q1uy67p7whvJu9Fb2Pvgq+hL7/v3q/9cBwwOzBZ8Hjwl/C28NYw9TEUcTOxUvFyMZGxsPHQce/yD3IvMk6ybnKOMq3yzbLtsw1zLXNNc21zjbOts83z7jQOdC60TzRvtI/0sHTRNPG1EnUy9VO1dHWVdbY11zX4Nhk2OjZbNnx2nba+9uA3AXcit0Q3ZbeHN6i3ynfr+A24L3hROHM4lPi2+Nj4+vkc+T85YTmDeaW5x/nqegy6LzpRunQ6lvq5etw6/vshu0R7ZzuKO6070DvzPBY8OXxcvH/8ozzGfOn9DT0wvVQ9d72bfb794r4Gfio+Tj5x/pX+uf7d/wH/Jj9Kf26/kv+3P9t//9BTFBInAUAAAHwhW3b4eb//93Vy7Zt27Zt23693++XzaW3bdv2TFAG1aPaTGM2mGOhbTKZua/1iJgA5epzv7cxO9/7/hFK6EvaWd36y6kSXdJJ1f85XZiGG8Os7Dc9Hs8MK/9+hiCNt/QClP1DrLTC3az81zlCNF4bBqi0jVJlXxcr/dcK0HjrBoCif4wa+7ssAP+1mmu8dRNA0T+OjQNtFkDrtRpruW8AYNk/gc0DnRZA960Nemq5bwhg2TtLHYf8ZYCeWxv0s9l9wwAF7xx1HvKXAfrua9TLZo9NAWQ8Czhw0lsC6L+vSR+bPzYNkPEs4NBJbwlg/X1Netj6+RmAjGcRB095CgAjjzW7b5vn5wDSZgyHT3vyAKOPNbtrm+fnAVJmHBfOeHIAY89v7p5tX4kCRM0ELo2YOYCJ57dwx3avxACiZhIXR8wswOTzWzpv53fjAEtmCpdHzRTAwitbOmuXdxMAETOLBqNmEmDhla2cs+u7SYBFM4cmY2YCIPLuds7Y7dMswIwnj0bTZhwg8u729dvrq3mAyf8V0GymPQ6w9ObWdXo8ATBuFtFwpjUKMHZpXT4EGPOX0HTWjAClW+pwP5A3S2g86bOgeIJtO0UgF0bzHqC9wa5ngVa0bwJn2OWBIPrPzMHnbdpiGToFwISwTWdDpiDBAJS2tuczEEZCKw4X2PM7MEQgCK/ZMw1dMpjwZ1v2BysqQxAiDXbcAaPImKrAIXZ8CXxCMAz32dEFXil88A0btlyGQUF6bDgH0mUpRqC8XW2fhRBSWjG4qLbfgyEGAXijthkIyGHAX2s6AKyYHCFYaqjlThhBznQZDqvly+AThCG4v5YAeCXxwjdr2HIZhiTxQ28N50KqLMkoVLar7nMQQlIrCpdU9wcwRKEL3qpuDgKyGPD3qg4EKyZLGOKN1dwFI8iaLsMR1XwFfMIwAA9WEwSvNF74dhVbFmFIGj/0V3EeJCvSjENl+7VegSDSWktw6Vp/BEMcuuDtteYgKI8B/1jjILDi8nRDvHG1u2EYeTMlOHK1r4JXIDbBw6uFhPLAd1fZqgTDEvlh/SrnQ6Ii0ThYO654FQKIvAiXr/gTGDJ1wrsr5iEokwH/UkodDJW4TD2QbFTqHhhE5mwJjlbqa+AVio3wiFJhwTzwPbV1CYal8sMGdQEkKlJNgrXTaxBA7AW44k9gyBWE94bAI5cPfpUHUy4v+OJgyBWC//RCn1jZDHzv81AZksoP3HGcBR1CZWYgvrX6BeCVyQs8rdQuk5BfL1EbYDYppU4rwExUnoEszO2lVj4JhMrSxCegeK5a/fuAIYzVATyr1twiBFaHLAbwC1XlAUsQn5AkVIaN21ajrqnAQFaOmSikjlTVfwD4xShsAOsWVWPjPwCPFF7gU1XzTqNQ6JHBD/y/uTZ1Qg5mliQYyMHcnsrOx4BQWX/xSSieo+z9HmBorxIAnlY2bxEEq113BvBzZfv+EUiM6C1Uhr6t7VOXlmEwq7PpKKSOUPV8F2jVWH4DWDerujb+HfDoywd8rOq84wgUe3XlBf7fVC91fA5m5/W0KQdTu6r63wt0l3QUm4Ti2cqJ3wEMDVUCwJPKkZsHwGrTjwH8TDl0vwikR3TTVYG+rZyiLi7DYFov01FIHaGc+zbQqpX8BrBuUg5u+ANg6sQHfKgcveMwFHv14QH+1+QsdVwWFhZ0sa4Ak7sqp98NhIt6iE1C8Szl/G8ChhYqAeBx5cKWVrDadGAAP1Wu3HcRMsPu66pA71buUBeVYTTltqkoxA9Wbn0D8Fnuym8E60bl2obfAaa7fMD7ysU7DEEx7CYT+Fejm9TxWcj0usdrwfguyt33AkUj7Y7ZVqBwqnL7VwGyrYa/zdH/+49hhMoAjyjXN/0EV7+uNNj0Wt49C7crPe7/djDmAmvm/0/toJwIVlA4IBIOAAAwPgCdASqAAIAAPjEUiUMiISEUyN58IAMEtgBmotC/mevKv50j8l/597w1ffkH8R/I/7q/5fp1TT+mvuj+z/uv48fRH+7f0n2I/nf2Cf0o/yHUA8wH83/sH7D+7x/cf8p/L/cP+vX6c/275AP6V/kOsf9AD+I/2H0tP2Z/+PyVfsl+5fwJ/zz/Bf97rAP/v1h/TX+Ydo386/Ij9t+2j8XevPmq+NXpDxL/XH7Z/Xv3I/sn7c/Bf+H8FfhLqBfhX8d/vv5gflzx7ea+YF7B/WP839vnOx9VfYA/Vr/X+rP/A8EXjd9oH2Afyb+t/5/7ovpa/hP+h/jvyy9pv5t/df+B/kvgE/l39P/3v979nT11fsX/9PdC/Xhwbtwfc4vkNKOJpfnujH+HnFZXkub9TcY/39DcEWgD1tn2Rwff6vl4ciZG2oSAq6W+ft05qlzyhIRYVD1ZfK3fznbO4VS+iwXNZbkTcazKFwl4qnBd2mvr38CZz5cyMrAj2pP8ESvWreHCkr5KD6pjKugWYgRNeiSWK/g2+toDYdyBILOJVxIgh98Ck9T6bZMzS1qOWgaMyg6m5al9mnPPaf5N95Skb334QUonoHnSRjAQGUSX4vcneY9LD4PvcmR9NFagWr9Exow0QBRLhWxu5kNZMrHTVTihRWzyiGmy4rPS3AD+/2Aad//m4Bp//bt6icg7RK3Vm693ntHOBrLY5h7hDW0sC9cGxEibW3Y57+yJf30XbJWTcCQSwZvpsnuFVtR6wLmhadWd8IcPcIx1FuVxhBE1Nl3Sf3mO8GXt08KDvdZ2WimFZ1YHFqi2ncVvb4ZkmtJ7+VzcCQTObwwSQV9Ty0An1RvXPyTE6MmeEZAF0DAGQnk4jwp8rxuWtARNXzqzOKh9nOsH7MhRmdEVqwNjaE2pB/hdygjuhByXn8SEJ0xiX/TG1V0rukC9TevhDijAiNCct5JQYXKcrpwWHe1o/xS8TwqykDXljwVfq9/Ae2reZWmHeV48v3BdiX+IYl2OEsLUH5Cf/w/swTyX/t3whFtx3fQ2NThwcew7cGFqsQYHV7kGZQGBnAtHrvRaEAWcvs0/YDSxJ0nhDh32DvMLqAAN+MCwsGZeyabet37Zvbwhi//cRmKnx6OMyLhglETc03wUh6K32k9dbprB8EEoOqwlEhF25Wgtqi6rMD7rlXYSw43RlSxen9n67IR1hU+RSRqelvojBqU6yvM+Khsd7OMZaczmQ14EAQMSIQla/SPD+FETYZg5syoTJ3b15sYe7rjCpVKfDFbEeERYT+QYtIQ98Jn7skVmtV9NvPy4i1bCNmuCvfKiElf0Ui34M+HIMdf8JZrViit9ajMAACTkGfJi/hweE50ScNbM8jhYarhwq7FTf9uY+6CiObtA2rxR9CO8/xRsHkxyaXfUqwGrhl22b7ijVsDN1oIALyGD7Z//bwZ7X+PabkyfuLCsy8tVhPpICAD/de/TeZ0QqqJrhn7OkdcIvyVB7PzFQdFPYoJg0AxHvXOr7hnQCxsuMpBwM6nEo5ICbrBtv/d7RTq2r6daMvFzqtie745zIDfrYgjwdSpKE8ipgXz5Cgg//4OHob85rdh4QE8vajJoshtPiSk7LH897lF1ENfC+yPXc3JWqrfcMcYTqvsChDmjzEyEmH9qOx5ZOHOX1J9jn2BGwt6CmlxM62nLngHnyx3jrOUZPP2Hnw07Vj1mI+ZCrZvk1aDLydIReYvwAZzk5/FIyRT7w+MwH/seBw94ONNgc8Qtxhf8IlzuKjtKzVoShRAIbA9288rhyabhPqJDH5HUhqRJDiMF/6dzXQaUSTKtMM3zz6yoOCYA9oJRQxEM2QNE1KJnzDUP5tkodrfztKbzqmoN92qrx7oWr+xRIITbffuJljDHX85RRe6jWXXI6EExTyfWJPuo21oT/aNghALGfzPlMlLh94nRB8jsmAPCy2sf3oMgVN1cgbqEkqeV/ZEgLLOa6oHBM7h2OJh/8ISReC7nhSRKcYbZDjO2gNifFV79d6gsofc14O+JupbGIvGqZD946vZPeZwjfof1mWTrTYW2ZbfKQKdXO30AeX/mW+MUpHjpQNqQAISqS3WC1MYL76u9stKdCOZJBf2/PzwTD4heGONxi2nhn9MwusCVahLxeAqWvvOGGOeMEbtUh2fuFsUhEjWMLc6KI3MdUh5ks3v4bVPCDpYVyRUWXrI2SZKADzQwVsnnxmFY9MM6QHKiY90s7RrYCGj4Lqn67V6S4yV0CcZvBxv3kU3ehyd4B7XEAMEsdrjb4ZjQJIiC2doNT/Cflzw7zVv9sBgnrIDwP+dmN7lqoSJkIM7xrwCSWys06JeHEJ2ciUv9FHN/f4mN1etxNGSpJ80BC8OdWUwuUT8m0W18CH/rzeH5F2SOprYmJnK4uQwWQikdSKFRTgq3/kM2Ye6AVh0f+ap+4pqpTvyviskGT9EEYvEk6D6Vibl9XX5HPlhOatHTOxFMW3Iw2gyUMiHk2L+Rqqylr+K8P5MzYrSDWkafdkU3uPO6di5SvnEKvuT1xyjpCSJmQbb2JQ5Ko9Xwloddp/kpF4ECqMiugCBj2sviFAXuDyoEl38dk2bDTEgCSvU3Nkyz/o3w52/iq8SpvxX3MZZBfF4JaQPB2njhU89AKKXSxBCOwlCwJOPQRQzAHarx6txJZInSz8MYklUi7vCpJuZb/Mq8+BPBpoekAOk8whygMSdx4hon5NHd2rCYrygqef7jHb4mITtm8AZqadDNEqcpr8Cxu3g+r8lT3s9BQ8foQBVDuneyIc5vaky/xWdxbpLSGHsp0JRXGJaeo43JEBqfXeV4McUwhFqICspkseeStdaq461LxfbxycK4s5+HlPF6YeIK5lOLAwNoay6luZMEwLTsDZBs+b9Ojtdct/SGIE0OcsRl01foqe9BNUyKvaimqkpgglSExNHj/5ijvwVWR0VVSfgfQSql2EZOpBRU8q7i7w6dViKJLZ6qt8U2CZRUidrjGaQuyoyzVcZ3pp5PyZTn6GXBEomspZIlB7o7JRJ3dUrWH7gCWYJ5dKLS/M8XOAEPJkpyhNQV9J9e1ni56QQXxQlUVMZdxtpe7jo35DiFlLZ49MQUulvIvR/7EscI5BpFkbWVburdfKFhj9fOfI8wzYJl9lsYhvHOR7T4AziuzSo/MAZd6rOxcrmcVTsWOCjwEHoljOKG33akt9WdhaAngQqN6ss9oFva2jyScZhnXD1RlXEW8gKHyObW+5kaAIT55lMloE7VA6fYFmacHsbeeBMp40gvkc0KI7Zxs0I1xayJP1jj8Ijbu1h1an2kCA9M9Bnsz9/4sMquFFD10y65zkVaaAssf+3nSRNtfWLTBvOUU2M5RSJo+WapelGB+sXWrEmnAXTBXL5YozOk8IjaAXLdE9IkoH5OMZN+FfN0Cx3Sg25qBFvWWBxQrEugTdVIiR4iDHIbW2fM80x423vrKnXV8WFVPSzRgvNo6gfclKtLcg5D6YcufUWYvh0pn//icIb+0PXMw7lcT1auA1oAH6/gH36u9h9+Lr396GMQZVxahJk7uaIoMwj4trvWjlFBfbrCYQbUAD8RqpEn7ofXk23UGAZ5nersKxbHzVt+HPSPUg2rJ03CW2QwHi8+7PYwzHVYfksCsy+LX+TcGdG7O4ITAmHg0hS6zWTBI9itrl83y1ukUovMINnREA/3H5QqO514521x6aBxfMjKmRBb///WhAEzej5EH/6pC5ZrrHQU/Dae7NGDktLg+qH+153phVUsv+tKJEZrAZ//DMC/eju+KzxsIkGwlLoTSap5lqx5JTlv4OdwXfm4wRa5WOFXv/nW45CLkplh8cFrl83XkiTRaJor+tbs7X4lCBk9yZBAvTbZypOGIj4eKzw0o3E/A3A/2mCH/hPkFuJSbzfsaq6tp57cU6xTvbJvtizxt2L0Z0SuJZwM/wl7BznYeL267/b/2uuvoCHu8oQtB1IJ4sb7b1scxLYProUqc/FKDtNB68jn51jAsc2Nq4PlfQXVnQQcxTED9HlMEljRhAkLAY+//M0EuTeG8H+/ERoEihcrs764CgDOH1AI/CGvvK9bwGxIFT8f6/eD3WDec3Xb2zkmaZlemqKANclaD3EwU44gqepW1IQvFylGbaNB+jJfCO4ZbQhNVi6383bnn425GHh2yJmVUFz2YRwnYCMf8S4dD26UFW9VkyyGjUZ9pnpiATRUYyEX24+7CS6MJntkrN8iOknRV3o90JhaUs6dQrltZGaXjJmsIET3calvO59zovZzpMtlKa3Sl5MOt6KAuDvgNtyYcrfKN5JetGB0Sbx87zjzLu2C1yGXHwn0QcLgfJIBDPwFyE07YXnu+6ntU5OiesfIXrm377z4EATXZ3zInP1l1EFkmbkoDreRZ+SdXc39d7kwwEf98CZR0mm+SAlzWPXRCjvKETQ40lmSnCn2+KUBz2PChgRiVzbOMisU5noVmNXgs5u6uJwQPKWxUwxQMstDG029+/P78KbtPC11Uh04UQOSiLnf/x9rf7v9SAaBZU6l/2eu2+VOvSyIcZirU/246ZVf6OfZO5tiqY/EDyph7nqIhg54Gza3OQOAMIsDGeOhw6qDbF7hXwqFD/QK3fboeRaDgfrO1TfSjDl6qBtoqnZZvwVqxxIYPrWryCVm6EvYjSNCzX6YINlf5HcDysb38FnN3aDxR8r7BzWvyZ6IMiN2nUd09Erz/eba4ss1Nkz1OQjdwnu0aO8IkWWr4sa7Bapqd47LdqeWJHKHT4bbAVd6F1z+niB8E7sAte7QAAAAAA==" vertex="1" parent="1">
                    <mxGeometry x="60" y="417" width="50" height="50" as="geometry"/>
                </mxCell>
                <mxCell id="15" value="" style="endArrow=none;dashed=1;html=1;dashPattern=1 3;strokeWidth=2;" edge="1" parent="1">
                    <mxGeometry width="50" height="50" relative="1" as="geometry">
                        <mxPoint x="187" y="441.5" as="sourcePoint"/>
                        <mxPoint x="247" y="441.5" as="targetPoint"/>
                    </mxGeometry>
                </mxCell>
                <mxCell id="16" value="" style="shape=image;verticalLabelPosition=bottom;verticalAlign=top;imageAspect=0;aspect=fixed;image=data:image/webp,UklGRiQgAABXRUJQVlA4WAoAAAAwAAAAfwAAfwAASUNDUEgMAAAAAAxITGlubwIQAABtbnRyUkdCIFhZWiAHzgACAAkABgAxAABhY3NwTVNGVAAAAABJRUMgc1JHQgAAAAAAAAAAAAAAAAAA9tYAAQAAAADTLUhQICAAAAAAAAAAAAAAAAAAAAAAAAAAAAAAAAAAAAAAAAAAAAAAAAAAAAAAAAAAAAAAABFjcHJ0AAABUAAAADNkZXNjAAABhAAAAGx3dHB0AAAB8AAAABRia3B0AAACBAAAABRyWFlaAAACGAAAABRnWFlaAAACLAAAABRiWFlaAAACQAAAABRkbW5kAAACVAAAAHBkbWRkAAACxAAAAIh2dWVkAAADTAAAAIZ2aWV3AAAD1AAAACRsdW1pAAAD+AAAABRtZWFzAAAEDAAAACR0ZWNoAAAEMAAAAAxyVFJDAAAEPAAACAxnVFJDAAAEPAAACAxiVFJDAAAEPAAACAx0ZXh0AAAAAENvcHlyaWdodCAoYykgMTk5OCBIZXdsZXR0LVBhY2thcmQgQ29tcGFueQAAZGVzYwAAAAAAAAASc1JHQiBJRUM2MTk2Ni0yLjEAAAAAAAAAAAAAABJzUkdCIElFQzYxOTY2LTIuMQAAAAAAAAAAAAAAAAAAAAAAAAAAAAAAAAAAAAAAAAAAAAAAAAAAAAAAAAAAAAAAAAAAWFlaIAAAAAAAAPNRAAEAAAABFsxYWVogAAAAAAAAAAAAAAAAAAAAAFhZWiAAAAAAAABvogAAOPUAAAOQWFlaIAAAAAAAAGKZAAC3hQAAGNpYWVogAAAAAAAAJKAAAA+EAAC2z2Rlc2MAAAAAAAAAFklFQyBodHRwOi8vd3d3LmllYy5jaAAAAAAAAAAAAAAAFklFQyBodHRwOi8vd3d3LmllYy5jaAAAAAAAAAAAAAAAAAAAAAAAAAAAAAAAAAAAAAAAAAAAAAAAAAAAAAAAAAAAAABkZXNjAAAAAAAAAC5JRUMgNjE5NjYtMi4xIERlZmF1bHQgUkdCIGNvbG91ciBzcGFjZSAtIHNSR0IAAAAAAAAAAAAAAC5JRUMgNjE5NjYtMi4xIERlZmF1bHQgUkdCIGNvbG91ciBzcGFjZSAtIHNSR0IAAAAAAAAAAAAAAAAAAAAAAAAAAAAAZGVzYwAAAAAAAAAsUmVmZXJlbmNlIFZpZXdpbmcgQ29uZGl0aW9uIGluIElFQzYxOTY2LTIuMQAAAAAAAAAAAAAALFJlZmVyZW5jZSBWaWV3aW5nIENvbmRpdGlvbiBpbiBJRUM2MTk2Ni0yLjEAAAAAAAAAAAAAAAAAAAAAAAAAAAAAAAAAAHZpZXcAAAAAABOk/gAUXy4AEM8UAAPtzAAEEwsAA1yeAAAAAVhZWiAAAAAAAEwJVgBQAAAAVx/nbWVhcwAAAAAAAAABAAAAAAAAAAAAAAAAAAAAAAAAAo8AAAACc2lnIAAAAABDUlQgY3VydgAAAAAAAAQAAAAABQAKAA8AFAAZAB4AIwAoAC0AMgA3ADsAQABFAEoATwBUAFkAXgBjAGgAbQByAHcAfACBAIYAiwCQAJUAmgCfAKQAqQCuALIAtwC8AMEAxgDLANAA1QDbAOAA5QDrAPAA9gD7AQEBBwENARMBGQEfASUBKwEyATgBPgFFAUwBUgFZAWABZwFuAXUBfAGDAYsBkgGaAaEBqQGxAbkBwQHJAdEB2QHhAekB8gH6AgMCDAIUAh0CJgIvAjgCQQJLAlQCXQJnAnECegKEAo4CmAKiAqwCtgLBAssC1QLgAusC9QMAAwsDFgMhAy0DOANDA08DWgNmA3IDfgOKA5YDogOuA7oDxwPTA+AD7AP5BAYEEwQgBC0EOwRIBFUEYwRxBH4EjASaBKgEtgTEBNME4QTwBP4FDQUcBSsFOgVJBVgFZwV3BYYFlgWmBbUFxQXVBeUF9gYGBhYGJwY3BkgGWQZqBnsGjAadBq8GwAbRBuMG9QcHBxkHKwc9B08HYQd0B4YHmQesB78H0gflB/gICwgfCDIIRghaCG4IggiWCKoIvgjSCOcI+wkQCSUJOglPCWQJeQmPCaQJugnPCeUJ+woRCicKPQpUCmoKgQqYCq4KxQrcCvMLCwsiCzkLUQtpC4ALmAuwC8gL4Qv5DBIMKgxDDFwMdQyODKcMwAzZDPMNDQ0mDUANWg10DY4NqQ3DDd4N+A4TDi4OSQ5kDn8Omw62DtIO7g8JDyUPQQ9eD3oPlg+zD88P7BAJECYQQxBhEH4QmxC5ENcQ9RETETERTxFtEYwRqhHJEegSBxImEkUSZBKEEqMSwxLjEwMTIxNDE2MTgxOkE8UT5RQGFCcUSRRqFIsUrRTOFPAVEhU0FVYVeBWbFb0V4BYDFiYWSRZsFo8WshbWFvoXHRdBF2UXiReuF9IX9xgbGEAYZRiKGK8Y1Rj6GSAZRRlrGZEZtxndGgQaKhpRGncanhrFGuwbFBs7G2MbihuyG9ocAhwqHFIcexyjHMwc9R0eHUcdcB2ZHcMd7B4WHkAeah6UHr4e6R8THz4faR+UH78f6iAVIEEgbCCYIMQg8CEcIUghdSGhIc4h+yInIlUigiKvIt0jCiM4I2YjlCPCI/AkHyRNJHwkqyTaJQklOCVoJZclxyX3JicmVyaHJrcm6CcYJ0kneierJ9woDSg/KHEooijUKQYpOClrKZ0p0CoCKjUqaCqbKs8rAis2K2krnSvRLAUsOSxuLKIs1y0MLUEtdi2rLeEuFi5MLoIuty7uLyQvWi+RL8cv/jA1MGwwpDDbMRIxSjGCMbox8jIqMmMymzLUMw0zRjN/M7gz8TQrNGU0njTYNRM1TTWHNcI1/TY3NnI2rjbpNyQ3YDecN9c4FDhQOIw4yDkFOUI5fzm8Ofk6Njp0OrI67zstO2s7qjvoPCc8ZTykPOM9Ij1hPaE94D4gPmA+oD7gPyE/YT+iP+JAI0BkQKZA50EpQWpBrEHuQjBCckK1QvdDOkN9Q8BEA0RHRIpEzkUSRVVFmkXeRiJGZ0arRvBHNUd7R8BIBUhLSJFI10kdSWNJqUnwSjdKfUrESwxLU0uaS+JMKkxyTLpNAk1KTZNN3E4lTm5Ot08AT0lPk0/dUCdQcVC7UQZRUFGbUeZSMVJ8UsdTE1NfU6pT9lRCVI9U21UoVXVVwlYPVlxWqVb3V0RXklfgWC9YfVjLWRpZaVm4WgdaVlqmWvVbRVuVW+VcNVyGXNZdJ114XcleGl5sXr1fD19hX7NgBWBXYKpg/GFPYaJh9WJJYpxi8GNDY5dj62RAZJRk6WU9ZZJl52Y9ZpJm6Gc9Z5Nn6Wg/aJZo7GlDaZpp8WpIap9q92tPa6dr/2xXbK9tCG1gbbluEm5rbsRvHm94b9FwK3CGcOBxOnGVcfByS3KmcwFzXXO4dBR0cHTMdSh1hXXhdj52m3b4d1Z3s3gReG54zHkqeYl553pGeqV7BHtje8J8IXyBfOF9QX2hfgF+Yn7CfyN/hH/lgEeAqIEKgWuBzYIwgpKC9INXg7qEHYSAhOOFR4Wrhg6GcobXhzuHn4gEiGmIzokziZmJ/opkisqLMIuWi/yMY4zKjTGNmI3/jmaOzo82j56QBpBukNaRP5GokhGSepLjk02TtpQglIqU9JVflcmWNJaflwqXdZfgmEyYuJkkmZCZ/JpomtWbQpuvnByciZz3nWSd0p5Anq6fHZ+Ln/qgaaDYoUehtqImopajBqN2o+akVqTHpTilqaYapoum/adup+CoUqjEqTepqaocqo+rAqt1q+msXKzQrUStuK4trqGvFq+LsACwdbDqsWCx1rJLssKzOLOutCW0nLUTtYq2AbZ5tvC3aLfguFm40blKucK6O7q1uy67p7whvJu9Fb2Pvgq+hL7/v3q/9cBwwOzBZ8Hjwl/C28NYw9TEUcTOxUvFyMZGxsPHQce/yD3IvMk6ybnKOMq3yzbLtsw1zLXNNc21zjbOts83z7jQOdC60TzRvtI/0sHTRNPG1EnUy9VO1dHWVdbY11zX4Nhk2OjZbNnx2nba+9uA3AXcit0Q3ZbeHN6i3ynfr+A24L3hROHM4lPi2+Nj4+vkc+T85YTmDeaW5x/nqegy6LzpRunQ6lvq5etw6/vshu0R7ZzuKO6070DvzPBY8OXxcvH/8ozzGfOn9DT0wvVQ9d72bfb794r4Gfio+Tj5x/pX+uf7d/wH/Jj9Kf26/kv+3P9t//9BTFBInAUAAAHwhW3b4eb//93Vy7Zt27Zt23693++XzaW3bdv2TFAG1aPaTGM2mGOhbTKZua/1iJgA5epzv7cxO9/7/hFK6EvaWd36y6kSXdJJ1f85XZiGG8Os7Dc9Hs8MK/9+hiCNt/QClP1DrLTC3az81zlCNF4bBqi0jVJlXxcr/dcK0HjrBoCif4wa+7ssAP+1mmu8dRNA0T+OjQNtFkDrtRpruW8AYNk/gc0DnRZA960Nemq5bwhg2TtLHYf8ZYCeWxv0s9l9wwAF7xx1HvKXAfrua9TLZo9NAWQ8Czhw0lsC6L+vSR+bPzYNkPEs4NBJbwlg/X1Netj6+RmAjGcRB095CgAjjzW7b5vn5wDSZgyHT3vyAKOPNbtrm+fnAVJmHBfOeHIAY89v7p5tX4kCRM0ELo2YOYCJ57dwx3avxACiZhIXR8wswOTzWzpv53fjAEtmCpdHzRTAwitbOmuXdxMAETOLBqNmEmDhla2cs+u7SYBFM4cmY2YCIPLuds7Y7dMswIwnj0bTZhwg8u729dvrq3mAyf8V0GymPQ6w9ObWdXo8ATBuFtFwpjUKMHZpXT4EGPOX0HTWjAClW+pwP5A3S2g86bOgeIJtO0UgF0bzHqC9wa5ngVa0bwJn2OWBIPrPzMHnbdpiGToFwISwTWdDpiDBAJS2tuczEEZCKw4X2PM7MEQgCK/ZMw1dMpjwZ1v2BysqQxAiDXbcAaPImKrAIXZ8CXxCMAz32dEFXil88A0btlyGQUF6bDgH0mUpRqC8XW2fhRBSWjG4qLbfgyEGAXijthkIyGHAX2s6AKyYHCFYaqjlThhBznQZDqvly+AThCG4v5YAeCXxwjdr2HIZhiTxQ28N50KqLMkoVLar7nMQQlIrCpdU9wcwRKEL3qpuDgKyGPD3qg4EKyZLGOKN1dwFI8iaLsMR1XwFfMIwAA9WEwSvNF74dhVbFmFIGj/0V3EeJCvSjENl+7VegSDSWktw6Vp/BEMcuuDtteYgKI8B/1jjILDi8nRDvHG1u2EYeTMlOHK1r4JXIDbBw6uFhPLAd1fZqgTDEvlh/SrnQ6Ii0ThYO654FQKIvAiXr/gTGDJ1wrsr5iEokwH/UkodDJW4TD2QbFTqHhhE5mwJjlbqa+AVio3wiFJhwTzwPbV1CYal8sMGdQEkKlJNgrXTaxBA7AW44k9gyBWE94bAI5cPfpUHUy4v+OJgyBWC//RCn1jZDHzv81AZksoP3HGcBR1CZWYgvrX6BeCVyQs8rdQuk5BfL1EbYDYppU4rwExUnoEszO2lVj4JhMrSxCegeK5a/fuAIYzVATyr1twiBFaHLAbwC1XlAUsQn5AkVIaN21ajrqnAQFaOmSikjlTVfwD4xShsAOsWVWPjPwCPFF7gU1XzTqNQ6JHBD/y/uTZ1Qg5mliQYyMHcnsrOx4BQWX/xSSieo+z9HmBorxIAnlY2bxEEq113BvBzZfv+EUiM6C1Uhr6t7VOXlmEwq7PpKKSOUPV8F2jVWH4DWDerujb+HfDoywd8rOq84wgUe3XlBf7fVC91fA5m5/W0KQdTu6r63wt0l3QUm4Ti2cqJ3wEMDVUCwJPKkZsHwGrTjwH8TDl0vwikR3TTVYG+rZyiLi7DYFov01FIHaGc+zbQqpX8BrBuUg5u+ANg6sQHfKgcveMwFHv14QH+1+QsdVwWFhZ0sa4Ak7sqp98NhIt6iE1C8Szl/G8ChhYqAeBx5cKWVrDadGAAP1Wu3HcRMsPu66pA71buUBeVYTTltqkoxA9Wbn0D8Fnuym8E60bl2obfAaa7fMD7ysU7DEEx7CYT+Fejm9TxWcj0usdrwfguyt33AkUj7Y7ZVqBwqnL7VwGyrYa/zdH/+49hhMoAjyjXN/0EV7+uNNj0Wt49C7crPe7/djDmAmvm/0/toJwIVlA4IBIOAAAwPgCdASqAAIAAPjEUiUMiISEUyN58IAMEtgBmotC/mevKv50j8l/597w1ffkH8R/I/7q/5fp1TT+mvuj+z/uv48fRH+7f0n2I/nf2Cf0o/yHUA8wH83/sH7D+7x/cf8p/L/cP+vX6c/275AP6V/kOsf9AD+I/2H0tP2Z/+PyVfsl+5fwJ/zz/Bf97rAP/v1h/TX+Ydo386/Ij9t+2j8XevPmq+NXpDxL/XH7Z/Xv3I/sn7c/Bf+H8FfhLqBfhX8d/vv5gflzx7ea+YF7B/WP839vnOx9VfYA/Vr/X+rP/A8EXjd9oH2Afyb+t/5/7ovpa/hP+h/jvyy9pv5t/df+B/kvgE/l39P/3v979nT11fsX/9PdC/Xhwbtwfc4vkNKOJpfnujH+HnFZXkub9TcY/39DcEWgD1tn2Rwff6vl4ciZG2oSAq6W+ft05qlzyhIRYVD1ZfK3fznbO4VS+iwXNZbkTcazKFwl4qnBd2mvr38CZz5cyMrAj2pP8ESvWreHCkr5KD6pjKugWYgRNeiSWK/g2+toDYdyBILOJVxIgh98Ck9T6bZMzS1qOWgaMyg6m5al9mnPPaf5N95Skb334QUonoHnSRjAQGUSX4vcneY9LD4PvcmR9NFagWr9Exow0QBRLhWxu5kNZMrHTVTihRWzyiGmy4rPS3AD+/2Aad//m4Bp//bt6icg7RK3Vm693ntHOBrLY5h7hDW0sC9cGxEibW3Y57+yJf30XbJWTcCQSwZvpsnuFVtR6wLmhadWd8IcPcIx1FuVxhBE1Nl3Sf3mO8GXt08KDvdZ2WimFZ1YHFqi2ncVvb4ZkmtJ7+VzcCQTObwwSQV9Ty0An1RvXPyTE6MmeEZAF0DAGQnk4jwp8rxuWtARNXzqzOKh9nOsH7MhRmdEVqwNjaE2pB/hdygjuhByXn8SEJ0xiX/TG1V0rukC9TevhDijAiNCct5JQYXKcrpwWHe1o/xS8TwqykDXljwVfq9/Ae2reZWmHeV48v3BdiX+IYl2OEsLUH5Cf/w/swTyX/t3whFtx3fQ2NThwcew7cGFqsQYHV7kGZQGBnAtHrvRaEAWcvs0/YDSxJ0nhDh32DvMLqAAN+MCwsGZeyabet37Zvbwhi//cRmKnx6OMyLhglETc03wUh6K32k9dbprB8EEoOqwlEhF25Wgtqi6rMD7rlXYSw43RlSxen9n67IR1hU+RSRqelvojBqU6yvM+Khsd7OMZaczmQ14EAQMSIQla/SPD+FETYZg5syoTJ3b15sYe7rjCpVKfDFbEeERYT+QYtIQ98Jn7skVmtV9NvPy4i1bCNmuCvfKiElf0Ui34M+HIMdf8JZrViit9ajMAACTkGfJi/hweE50ScNbM8jhYarhwq7FTf9uY+6CiObtA2rxR9CO8/xRsHkxyaXfUqwGrhl22b7ijVsDN1oIALyGD7Z//bwZ7X+PabkyfuLCsy8tVhPpICAD/de/TeZ0QqqJrhn7OkdcIvyVB7PzFQdFPYoJg0AxHvXOr7hnQCxsuMpBwM6nEo5ICbrBtv/d7RTq2r6daMvFzqtie745zIDfrYgjwdSpKE8ipgXz5Cgg//4OHob85rdh4QE8vajJoshtPiSk7LH897lF1ENfC+yPXc3JWqrfcMcYTqvsChDmjzEyEmH9qOx5ZOHOX1J9jn2BGwt6CmlxM62nLngHnyx3jrOUZPP2Hnw07Vj1mI+ZCrZvk1aDLydIReYvwAZzk5/FIyRT7w+MwH/seBw94ONNgc8Qtxhf8IlzuKjtKzVoShRAIbA9288rhyabhPqJDH5HUhqRJDiMF/6dzXQaUSTKtMM3zz6yoOCYA9oJRQxEM2QNE1KJnzDUP5tkodrfztKbzqmoN92qrx7oWr+xRIITbffuJljDHX85RRe6jWXXI6EExTyfWJPuo21oT/aNghALGfzPlMlLh94nRB8jsmAPCy2sf3oMgVN1cgbqEkqeV/ZEgLLOa6oHBM7h2OJh/8ISReC7nhSRKcYbZDjO2gNifFV79d6gsofc14O+JupbGIvGqZD946vZPeZwjfof1mWTrTYW2ZbfKQKdXO30AeX/mW+MUpHjpQNqQAISqS3WC1MYL76u9stKdCOZJBf2/PzwTD4heGONxi2nhn9MwusCVahLxeAqWvvOGGOeMEbtUh2fuFsUhEjWMLc6KI3MdUh5ks3v4bVPCDpYVyRUWXrI2SZKADzQwVsnnxmFY9MM6QHKiY90s7RrYCGj4Lqn67V6S4yV0CcZvBxv3kU3ehyd4B7XEAMEsdrjb4ZjQJIiC2doNT/Cflzw7zVv9sBgnrIDwP+dmN7lqoSJkIM7xrwCSWys06JeHEJ2ciUv9FHN/f4mN1etxNGSpJ80BC8OdWUwuUT8m0W18CH/rzeH5F2SOprYmJnK4uQwWQikdSKFRTgq3/kM2Ye6AVh0f+ap+4pqpTvyviskGT9EEYvEk6D6Vibl9XX5HPlhOatHTOxFMW3Iw2gyUMiHk2L+Rqqylr+K8P5MzYrSDWkafdkU3uPO6di5SvnEKvuT1xyjpCSJmQbb2JQ5Ko9Xwloddp/kpF4ECqMiugCBj2sviFAXuDyoEl38dk2bDTEgCSvU3Nkyz/o3w52/iq8SpvxX3MZZBfF4JaQPB2njhU89AKKXSxBCOwlCwJOPQRQzAHarx6txJZInSz8MYklUi7vCpJuZb/Mq8+BPBpoekAOk8whygMSdx4hon5NHd2rCYrygqef7jHb4mITtm8AZqadDNEqcpr8Cxu3g+r8lT3s9BQ8foQBVDuneyIc5vaky/xWdxbpLSGHsp0JRXGJaeo43JEBqfXeV4McUwhFqICspkseeStdaq461LxfbxycK4s5+HlPF6YeIK5lOLAwNoay6luZMEwLTsDZBs+b9Ojtdct/SGIE0OcsRl01foqe9BNUyKvaimqkpgglSExNHj/5ijvwVWR0VVSfgfQSql2EZOpBRU8q7i7w6dViKJLZ6qt8U2CZRUidrjGaQuyoyzVcZ3pp5PyZTn6GXBEomspZIlB7o7JRJ3dUrWH7gCWYJ5dKLS/M8XOAEPJkpyhNQV9J9e1ni56QQXxQlUVMZdxtpe7jo35DiFlLZ49MQUulvIvR/7EscI5BpFkbWVburdfKFhj9fOfI8wzYJl9lsYhvHOR7T4AziuzSo/MAZd6rOxcrmcVTsWOCjwEHoljOKG33akt9WdhaAngQqN6ss9oFva2jyScZhnXD1RlXEW8gKHyObW+5kaAIT55lMloE7VA6fYFmacHsbeeBMp40gvkc0KI7Zxs0I1xayJP1jj8Ijbu1h1an2kCA9M9Bnsz9/4sMquFFD10y65zkVaaAssf+3nSRNtfWLTBvOUU2M5RSJo+WapelGB+sXWrEmnAXTBXL5YozOk8IjaAXLdE9IkoH5OMZN+FfN0Cx3Sg25qBFvWWBxQrEugTdVIiR4iDHIbW2fM80x423vrKnXV8WFVPSzRgvNo6gfclKtLcg5D6YcufUWYvh0pn//icIb+0PXMw7lcT1auA1oAH6/gH36u9h9+Lr396GMQZVxahJk7uaIoMwj4trvWjlFBfbrCYQbUAD8RqpEn7ofXk23UGAZ5nersKxbHzVt+HPSPUg2rJ03CW2QwHi8+7PYwzHVYfksCsy+LX+TcGdG7O4ITAmHg0hS6zWTBI9itrl83y1ukUovMINnREA/3H5QqO514521x6aBxfMjKmRBb///WhAEzej5EH/6pC5ZrrHQU/Dae7NGDktLg+qH+153phVUsv+tKJEZrAZ//DMC/eju+KzxsIkGwlLoTSap5lqx5JTlv4OdwXfm4wRa5WOFXv/nW45CLkplh8cFrl83XkiTRaJor+tbs7X4lCBk9yZBAvTbZypOGIj4eKzw0o3E/A3A/2mCH/hPkFuJSbzfsaq6tp57cU6xTvbJvtizxt2L0Z0SuJZwM/wl7BznYeL267/b/2uuvoCHu8oQtB1IJ4sb7b1scxLYProUqc/FKDtNB68jn51jAsc2Nq4PlfQXVnQQcxTED9HlMEljRhAkLAY+//M0EuTeG8H+/ERoEihcrs764CgDOH1AI/CGvvK9bwGxIFT8f6/eD3WDec3Xb2zkmaZlemqKANclaD3EwU44gqepW1IQvFylGbaNB+jJfCO4ZbQhNVi6383bnn425GHh2yJmVUFz2YRwnYCMf8S4dD26UFW9VkyyGjUZ9pnpiATRUYyEX24+7CS6MJntkrN8iOknRV3o90JhaUs6dQrltZGaXjJmsIET3calvO59zovZzpMtlKa3Sl5MOt6KAuDvgNtyYcrfKN5JetGB0Sbx87zjzLu2C1yGXHwn0QcLgfJIBDPwFyE07YXnu+6ntU5OiesfIXrm377z4EATXZ3zInP1l1EFkmbkoDreRZ+SdXc39d7kwwEf98CZR0mm+SAlzWPXRCjvKETQ40lmSnCn2+KUBz2PChgRiVzbOMisU5noVmNXgs5u6uJwQPKWxUwxQMstDG029+/P78KbtPC11Uh04UQOSiLnf/x9rf7v9SAaBZU6l/2eu2+VOvSyIcZirU/246ZVf6OfZO5tiqY/EDyph7nqIhg54Gza3OQOAMIsDGeOhw6qDbF7hXwqFD/QK3fboeRaDgfrO1TfSjDl6qBtoqnZZvwVqxxIYPrWryCVm6EvYjSNCzX6YINlf5HcDysb38FnN3aDxR8r7BzWvyZ6IMiN2nUd09Erz/eba4ss1Nkz1OQjdwnu0aO8IkWWr4sa7Bapqd47LdqeWJHKHT4bbAVd6F1z+niB8E7sAte7QAAAAAA==" vertex="1" parent="1">
                    <mxGeometry x="120" y="417" width="50" height="50" as="geometry"/>
                </mxCell>
                <mxCell id="17" value="" style="shape=image;verticalLabelPosition=bottom;verticalAlign=top;imageAspect=0;aspect=fixed;image=data:image/webp,UklGRiQgAABXRUJQVlA4WAoAAAAwAAAAfwAAfwAASUNDUEgMAAAAAAxITGlubwIQAABtbnRyUkdCIFhZWiAHzgACAAkABgAxAABhY3NwTVNGVAAAAABJRUMgc1JHQgAAAAAAAAAAAAAAAAAA9tYAAQAAAADTLUhQICAAAAAAAAAAAAAAAAAAAAAAAAAAAAAAAAAAAAAAAAAAAAAAAAAAAAAAAAAAAAAAABFjcHJ0AAABUAAAADNkZXNjAAABhAAAAGx3dHB0AAAB8AAAABRia3B0AAACBAAAABRyWFlaAAACGAAAABRnWFlaAAACLAAAABRiWFlaAAACQAAAABRkbW5kAAACVAAAAHBkbWRkAAACxAAAAIh2dWVkAAADTAAAAIZ2aWV3AAAD1AAAACRsdW1pAAAD+AAAABRtZWFzAAAEDAAAACR0ZWNoAAAEMAAAAAxyVFJDAAAEPAAACAxnVFJDAAAEPAAACAxiVFJDAAAEPAAACAx0ZXh0AAAAAENvcHlyaWdodCAoYykgMTk5OCBIZXdsZXR0LVBhY2thcmQgQ29tcGFueQAAZGVzYwAAAAAAAAASc1JHQiBJRUM2MTk2Ni0yLjEAAAAAAAAAAAAAABJzUkdCIElFQzYxOTY2LTIuMQAAAAAAAAAAAAAAAAAAAAAAAAAAAAAAAAAAAAAAAAAAAAAAAAAAAAAAAAAAAAAAAAAAWFlaIAAAAAAAAPNRAAEAAAABFsxYWVogAAAAAAAAAAAAAAAAAAAAAFhZWiAAAAAAAABvogAAOPUAAAOQWFlaIAAAAAAAAGKZAAC3hQAAGNpYWVogAAAAAAAAJKAAAA+EAAC2z2Rlc2MAAAAAAAAAFklFQyBodHRwOi8vd3d3LmllYy5jaAAAAAAAAAAAAAAAFklFQyBodHRwOi8vd3d3LmllYy5jaAAAAAAAAAAAAAAAAAAAAAAAAAAAAAAAAAAAAAAAAAAAAAAAAAAAAAAAAAAAAABkZXNjAAAAAAAAAC5JRUMgNjE5NjYtMi4xIERlZmF1bHQgUkdCIGNvbG91ciBzcGFjZSAtIHNSR0IAAAAAAAAAAAAAAC5JRUMgNjE5NjYtMi4xIERlZmF1bHQgUkdCIGNvbG91ciBzcGFjZSAtIHNSR0IAAAAAAAAAAAAAAAAAAAAAAAAAAAAAZGVzYwAAAAAAAAAsUmVmZXJlbmNlIFZpZXdpbmcgQ29uZGl0aW9uIGluIElFQzYxOTY2LTIuMQAAAAAAAAAAAAAALFJlZmVyZW5jZSBWaWV3aW5nIENvbmRpdGlvbiBpbiBJRUM2MTk2Ni0yLjEAAAAAAAAAAAAAAAAAAAAAAAAAAAAAAAAAAHZpZXcAAAAAABOk/gAUXy4AEM8UAAPtzAAEEwsAA1yeAAAAAVhZWiAAAAAAAEwJVgBQAAAAVx/nbWVhcwAAAAAAAAABAAAAAAAAAAAAAAAAAAAAAAAAAo8AAAACc2lnIAAAAABDUlQgY3VydgAAAAAAAAQAAAAABQAKAA8AFAAZAB4AIwAoAC0AMgA3ADsAQABFAEoATwBUAFkAXgBjAGgAbQByAHcAfACBAIYAiwCQAJUAmgCfAKQAqQCuALIAtwC8AMEAxgDLANAA1QDbAOAA5QDrAPAA9gD7AQEBBwENARMBGQEfASUBKwEyATgBPgFFAUwBUgFZAWABZwFuAXUBfAGDAYsBkgGaAaEBqQGxAbkBwQHJAdEB2QHhAekB8gH6AgMCDAIUAh0CJgIvAjgCQQJLAlQCXQJnAnECegKEAo4CmAKiAqwCtgLBAssC1QLgAusC9QMAAwsDFgMhAy0DOANDA08DWgNmA3IDfgOKA5YDogOuA7oDxwPTA+AD7AP5BAYEEwQgBC0EOwRIBFUEYwRxBH4EjASaBKgEtgTEBNME4QTwBP4FDQUcBSsFOgVJBVgFZwV3BYYFlgWmBbUFxQXVBeUF9gYGBhYGJwY3BkgGWQZqBnsGjAadBq8GwAbRBuMG9QcHBxkHKwc9B08HYQd0B4YHmQesB78H0gflB/gICwgfCDIIRghaCG4IggiWCKoIvgjSCOcI+wkQCSUJOglPCWQJeQmPCaQJugnPCeUJ+woRCicKPQpUCmoKgQqYCq4KxQrcCvMLCwsiCzkLUQtpC4ALmAuwC8gL4Qv5DBIMKgxDDFwMdQyODKcMwAzZDPMNDQ0mDUANWg10DY4NqQ3DDd4N+A4TDi4OSQ5kDn8Omw62DtIO7g8JDyUPQQ9eD3oPlg+zD88P7BAJECYQQxBhEH4QmxC5ENcQ9RETETERTxFtEYwRqhHJEegSBxImEkUSZBKEEqMSwxLjEwMTIxNDE2MTgxOkE8UT5RQGFCcUSRRqFIsUrRTOFPAVEhU0FVYVeBWbFb0V4BYDFiYWSRZsFo8WshbWFvoXHRdBF2UXiReuF9IX9xgbGEAYZRiKGK8Y1Rj6GSAZRRlrGZEZtxndGgQaKhpRGncanhrFGuwbFBs7G2MbihuyG9ocAhwqHFIcexyjHMwc9R0eHUcdcB2ZHcMd7B4WHkAeah6UHr4e6R8THz4faR+UH78f6iAVIEEgbCCYIMQg8CEcIUghdSGhIc4h+yInIlUigiKvIt0jCiM4I2YjlCPCI/AkHyRNJHwkqyTaJQklOCVoJZclxyX3JicmVyaHJrcm6CcYJ0kneierJ9woDSg/KHEooijUKQYpOClrKZ0p0CoCKjUqaCqbKs8rAis2K2krnSvRLAUsOSxuLKIs1y0MLUEtdi2rLeEuFi5MLoIuty7uLyQvWi+RL8cv/jA1MGwwpDDbMRIxSjGCMbox8jIqMmMymzLUMw0zRjN/M7gz8TQrNGU0njTYNRM1TTWHNcI1/TY3NnI2rjbpNyQ3YDecN9c4FDhQOIw4yDkFOUI5fzm8Ofk6Njp0OrI67zstO2s7qjvoPCc8ZTykPOM9Ij1hPaE94D4gPmA+oD7gPyE/YT+iP+JAI0BkQKZA50EpQWpBrEHuQjBCckK1QvdDOkN9Q8BEA0RHRIpEzkUSRVVFmkXeRiJGZ0arRvBHNUd7R8BIBUhLSJFI10kdSWNJqUnwSjdKfUrESwxLU0uaS+JMKkxyTLpNAk1KTZNN3E4lTm5Ot08AT0lPk0/dUCdQcVC7UQZRUFGbUeZSMVJ8UsdTE1NfU6pT9lRCVI9U21UoVXVVwlYPVlxWqVb3V0RXklfgWC9YfVjLWRpZaVm4WgdaVlqmWvVbRVuVW+VcNVyGXNZdJ114XcleGl5sXr1fD19hX7NgBWBXYKpg/GFPYaJh9WJJYpxi8GNDY5dj62RAZJRk6WU9ZZJl52Y9ZpJm6Gc9Z5Nn6Wg/aJZo7GlDaZpp8WpIap9q92tPa6dr/2xXbK9tCG1gbbluEm5rbsRvHm94b9FwK3CGcOBxOnGVcfByS3KmcwFzXXO4dBR0cHTMdSh1hXXhdj52m3b4d1Z3s3gReG54zHkqeYl553pGeqV7BHtje8J8IXyBfOF9QX2hfgF+Yn7CfyN/hH/lgEeAqIEKgWuBzYIwgpKC9INXg7qEHYSAhOOFR4Wrhg6GcobXhzuHn4gEiGmIzokziZmJ/opkisqLMIuWi/yMY4zKjTGNmI3/jmaOzo82j56QBpBukNaRP5GokhGSepLjk02TtpQglIqU9JVflcmWNJaflwqXdZfgmEyYuJkkmZCZ/JpomtWbQpuvnByciZz3nWSd0p5Anq6fHZ+Ln/qgaaDYoUehtqImopajBqN2o+akVqTHpTilqaYapoum/adup+CoUqjEqTepqaocqo+rAqt1q+msXKzQrUStuK4trqGvFq+LsACwdbDqsWCx1rJLssKzOLOutCW0nLUTtYq2AbZ5tvC3aLfguFm40blKucK6O7q1uy67p7whvJu9Fb2Pvgq+hL7/v3q/9cBwwOzBZ8Hjwl/C28NYw9TEUcTOxUvFyMZGxsPHQce/yD3IvMk6ybnKOMq3yzbLtsw1zLXNNc21zjbOts83z7jQOdC60TzRvtI/0sHTRNPG1EnUy9VO1dHWVdbY11zX4Nhk2OjZbNnx2nba+9uA3AXcit0Q3ZbeHN6i3ynfr+A24L3hROHM4lPi2+Nj4+vkc+T85YTmDeaW5x/nqegy6LzpRunQ6lvq5etw6/vshu0R7ZzuKO6070DvzPBY8OXxcvH/8ozzGfOn9DT0wvVQ9d72bfb794r4Gfio+Tj5x/pX+uf7d/wH/Jj9Kf26/kv+3P9t//9BTFBInAUAAAHwhW3b4eb//93Vy7Zt27Zt23693++XzaW3bdv2TFAG1aPaTGM2mGOhbTKZua/1iJgA5epzv7cxO9/7/hFK6EvaWd36y6kSXdJJ1f85XZiGG8Os7Dc9Hs8MK/9+hiCNt/QClP1DrLTC3az81zlCNF4bBqi0jVJlXxcr/dcK0HjrBoCif4wa+7ssAP+1mmu8dRNA0T+OjQNtFkDrtRpruW8AYNk/gc0DnRZA960Nemq5bwhg2TtLHYf8ZYCeWxv0s9l9wwAF7xx1HvKXAfrua9TLZo9NAWQ8Czhw0lsC6L+vSR+bPzYNkPEs4NBJbwlg/X1Netj6+RmAjGcRB095CgAjjzW7b5vn5wDSZgyHT3vyAKOPNbtrm+fnAVJmHBfOeHIAY89v7p5tX4kCRM0ELo2YOYCJ57dwx3avxACiZhIXR8wswOTzWzpv53fjAEtmCpdHzRTAwitbOmuXdxMAETOLBqNmEmDhla2cs+u7SYBFM4cmY2YCIPLuds7Y7dMswIwnj0bTZhwg8u729dvrq3mAyf8V0GymPQ6w9ObWdXo8ATBuFtFwpjUKMHZpXT4EGPOX0HTWjAClW+pwP5A3S2g86bOgeIJtO0UgF0bzHqC9wa5ngVa0bwJn2OWBIPrPzMHnbdpiGToFwISwTWdDpiDBAJS2tuczEEZCKw4X2PM7MEQgCK/ZMw1dMpjwZ1v2BysqQxAiDXbcAaPImKrAIXZ8CXxCMAz32dEFXil88A0btlyGQUF6bDgH0mUpRqC8XW2fhRBSWjG4qLbfgyEGAXijthkIyGHAX2s6AKyYHCFYaqjlThhBznQZDqvly+AThCG4v5YAeCXxwjdr2HIZhiTxQ28N50KqLMkoVLar7nMQQlIrCpdU9wcwRKEL3qpuDgKyGPD3qg4EKyZLGOKN1dwFI8iaLsMR1XwFfMIwAA9WEwSvNF74dhVbFmFIGj/0V3EeJCvSjENl+7VegSDSWktw6Vp/BEMcuuDtteYgKI8B/1jjILDi8nRDvHG1u2EYeTMlOHK1r4JXIDbBw6uFhPLAd1fZqgTDEvlh/SrnQ6Ii0ThYO654FQKIvAiXr/gTGDJ1wrsr5iEokwH/UkodDJW4TD2QbFTqHhhE5mwJjlbqa+AVio3wiFJhwTzwPbV1CYal8sMGdQEkKlJNgrXTaxBA7AW44k9gyBWE94bAI5cPfpUHUy4v+OJgyBWC//RCn1jZDHzv81AZksoP3HGcBR1CZWYgvrX6BeCVyQs8rdQuk5BfL1EbYDYppU4rwExUnoEszO2lVj4JhMrSxCegeK5a/fuAIYzVATyr1twiBFaHLAbwC1XlAUsQn5AkVIaN21ajrqnAQFaOmSikjlTVfwD4xShsAOsWVWPjPwCPFF7gU1XzTqNQ6JHBD/y/uTZ1Qg5mliQYyMHcnsrOx4BQWX/xSSieo+z9HmBorxIAnlY2bxEEq113BvBzZfv+EUiM6C1Uhr6t7VOXlmEwq7PpKKSOUPV8F2jVWH4DWDerujb+HfDoywd8rOq84wgUe3XlBf7fVC91fA5m5/W0KQdTu6r63wt0l3QUm4Ti2cqJ3wEMDVUCwJPKkZsHwGrTjwH8TDl0vwikR3TTVYG+rZyiLi7DYFov01FIHaGc+zbQqpX8BrBuUg5u+ANg6sQHfKgcveMwFHv14QH+1+QsdVwWFhZ0sa4Ak7sqp98NhIt6iE1C8Szl/G8ChhYqAeBx5cKWVrDadGAAP1Wu3HcRMsPu66pA71buUBeVYTTltqkoxA9Wbn0D8Fnuym8E60bl2obfAaa7fMD7ysU7DEEx7CYT+Fejm9TxWcj0usdrwfguyt33AkUj7Y7ZVqBwqnL7VwGyrYa/zdH/+49hhMoAjyjXN/0EV7+uNNj0Wt49C7crPe7/djDmAmvm/0/toJwIVlA4IBIOAAAwPgCdASqAAIAAPjEUiUMiISEUyN58IAMEtgBmotC/mevKv50j8l/597w1ffkH8R/I/7q/5fp1TT+mvuj+z/uv48fRH+7f0n2I/nf2Cf0o/yHUA8wH83/sH7D+7x/cf8p/L/cP+vX6c/275AP6V/kOsf9AD+I/2H0tP2Z/+PyVfsl+5fwJ/zz/Bf97rAP/v1h/TX+Ydo386/Ij9t+2j8XevPmq+NXpDxL/XH7Z/Xv3I/sn7c/Bf+H8FfhLqBfhX8d/vv5gflzx7ea+YF7B/WP839vnOx9VfYA/Vr/X+rP/A8EXjd9oH2Afyb+t/5/7ovpa/hP+h/jvyy9pv5t/df+B/kvgE/l39P/3v979nT11fsX/9PdC/Xhwbtwfc4vkNKOJpfnujH+HnFZXkub9TcY/39DcEWgD1tn2Rwff6vl4ciZG2oSAq6W+ft05qlzyhIRYVD1ZfK3fznbO4VS+iwXNZbkTcazKFwl4qnBd2mvr38CZz5cyMrAj2pP8ESvWreHCkr5KD6pjKugWYgRNeiSWK/g2+toDYdyBILOJVxIgh98Ck9T6bZMzS1qOWgaMyg6m5al9mnPPaf5N95Skb334QUonoHnSRjAQGUSX4vcneY9LD4PvcmR9NFagWr9Exow0QBRLhWxu5kNZMrHTVTihRWzyiGmy4rPS3AD+/2Aad//m4Bp//bt6icg7RK3Vm693ntHOBrLY5h7hDW0sC9cGxEibW3Y57+yJf30XbJWTcCQSwZvpsnuFVtR6wLmhadWd8IcPcIx1FuVxhBE1Nl3Sf3mO8GXt08KDvdZ2WimFZ1YHFqi2ncVvb4ZkmtJ7+VzcCQTObwwSQV9Ty0An1RvXPyTE6MmeEZAF0DAGQnk4jwp8rxuWtARNXzqzOKh9nOsH7MhRmdEVqwNjaE2pB/hdygjuhByXn8SEJ0xiX/TG1V0rukC9TevhDijAiNCct5JQYXKcrpwWHe1o/xS8TwqykDXljwVfq9/Ae2reZWmHeV48v3BdiX+IYl2OEsLUH5Cf/w/swTyX/t3whFtx3fQ2NThwcew7cGFqsQYHV7kGZQGBnAtHrvRaEAWcvs0/YDSxJ0nhDh32DvMLqAAN+MCwsGZeyabet37Zvbwhi//cRmKnx6OMyLhglETc03wUh6K32k9dbprB8EEoOqwlEhF25Wgtqi6rMD7rlXYSw43RlSxen9n67IR1hU+RSRqelvojBqU6yvM+Khsd7OMZaczmQ14EAQMSIQla/SPD+FETYZg5syoTJ3b15sYe7rjCpVKfDFbEeERYT+QYtIQ98Jn7skVmtV9NvPy4i1bCNmuCvfKiElf0Ui34M+HIMdf8JZrViit9ajMAACTkGfJi/hweE50ScNbM8jhYarhwq7FTf9uY+6CiObtA2rxR9CO8/xRsHkxyaXfUqwGrhl22b7ijVsDN1oIALyGD7Z//bwZ7X+PabkyfuLCsy8tVhPpICAD/de/TeZ0QqqJrhn7OkdcIvyVB7PzFQdFPYoJg0AxHvXOr7hnQCxsuMpBwM6nEo5ICbrBtv/d7RTq2r6daMvFzqtie745zIDfrYgjwdSpKE8ipgXz5Cgg//4OHob85rdh4QE8vajJoshtPiSk7LH897lF1ENfC+yPXc3JWqrfcMcYTqvsChDmjzEyEmH9qOx5ZOHOX1J9jn2BGwt6CmlxM62nLngHnyx3jrOUZPP2Hnw07Vj1mI+ZCrZvk1aDLydIReYvwAZzk5/FIyRT7w+MwH/seBw94ONNgc8Qtxhf8IlzuKjtKzVoShRAIbA9288rhyabhPqJDH5HUhqRJDiMF/6dzXQaUSTKtMM3zz6yoOCYA9oJRQxEM2QNE1KJnzDUP5tkodrfztKbzqmoN92qrx7oWr+xRIITbffuJljDHX85RRe6jWXXI6EExTyfWJPuo21oT/aNghALGfzPlMlLh94nRB8jsmAPCy2sf3oMgVN1cgbqEkqeV/ZEgLLOa6oHBM7h2OJh/8ISReC7nhSRKcYbZDjO2gNifFV79d6gsofc14O+JupbGIvGqZD946vZPeZwjfof1mWTrTYW2ZbfKQKdXO30AeX/mW+MUpHjpQNqQAISqS3WC1MYL76u9stKdCOZJBf2/PzwTD4heGONxi2nhn9MwusCVahLxeAqWvvOGGOeMEbtUh2fuFsUhEjWMLc6KI3MdUh5ks3v4bVPCDpYVyRUWXrI2SZKADzQwVsnnxmFY9MM6QHKiY90s7RrYCGj4Lqn67V6S4yV0CcZvBxv3kU3ehyd4B7XEAMEsdrjb4ZjQJIiC2doNT/Cflzw7zVv9sBgnrIDwP+dmN7lqoSJkIM7xrwCSWys06JeHEJ2ciUv9FHN/f4mN1etxNGSpJ80BC8OdWUwuUT8m0W18CH/rzeH5F2SOprYmJnK4uQwWQikdSKFRTgq3/kM2Ye6AVh0f+ap+4pqpTvyviskGT9EEYvEk6D6Vibl9XX5HPlhOatHTOxFMW3Iw2gyUMiHk2L+Rqqylr+K8P5MzYrSDWkafdkU3uPO6di5SvnEKvuT1xyjpCSJmQbb2JQ5Ko9Xwloddp/kpF4ECqMiugCBj2sviFAXuDyoEl38dk2bDTEgCSvU3Nkyz/o3w52/iq8SpvxX3MZZBfF4JaQPB2njhU89AKKXSxBCOwlCwJOPQRQzAHarx6txJZInSz8MYklUi7vCpJuZb/Mq8+BPBpoekAOk8whygMSdx4hon5NHd2rCYrygqef7jHb4mITtm8AZqadDNEqcpr8Cxu3g+r8lT3s9BQ8foQBVDuneyIc5vaky/xWdxbpLSGHsp0JRXGJaeo43JEBqfXeV4McUwhFqICspkseeStdaq461LxfbxycK4s5+HlPF6YeIK5lOLAwNoay6luZMEwLTsDZBs+b9Ojtdct/SGIE0OcsRl01foqe9BNUyKvaimqkpgglSExNHj/5ijvwVWR0VVSfgfQSql2EZOpBRU8q7i7w6dViKJLZ6qt8U2CZRUidrjGaQuyoyzVcZ3pp5PyZTn6GXBEomspZIlB7o7JRJ3dUrWH7gCWYJ5dKLS/M8XOAEPJkpyhNQV9J9e1ni56QQXxQlUVMZdxtpe7jo35DiFlLZ49MQUulvIvR/7EscI5BpFkbWVburdfKFhj9fOfI8wzYJl9lsYhvHOR7T4AziuzSo/MAZd6rOxcrmcVTsWOCjwEHoljOKG33akt9WdhaAngQqN6ss9oFva2jyScZhnXD1RlXEW8gKHyObW+5kaAIT55lMloE7VA6fYFmacHsbeeBMp40gvkc0KI7Zxs0I1xayJP1jj8Ijbu1h1an2kCA9M9Bnsz9/4sMquFFD10y65zkVaaAssf+3nSRNtfWLTBvOUU2M5RSJo+WapelGB+sXWrEmnAXTBXL5YozOk8IjaAXLdE9IkoH5OMZN+FfN0Cx3Sg25qBFvWWBxQrEugTdVIiR4iDHIbW2fM80x423vrKnXV8WFVPSzRgvNo6gfclKtLcg5D6YcufUWYvh0pn//icIb+0PXMw7lcT1auA1oAH6/gH36u9h9+Lr396GMQZVxahJk7uaIoMwj4trvWjlFBfbrCYQbUAD8RqpEn7ofXk23UGAZ5nersKxbHzVt+HPSPUg2rJ03CW2QwHi8+7PYwzHVYfksCsy+LX+TcGdG7O4ITAmHg0hS6zWTBI9itrl83y1ukUovMINnREA/3H5QqO514521x6aBxfMjKmRBb///WhAEzej5EH/6pC5ZrrHQU/Dae7NGDktLg+qH+153phVUsv+tKJEZrAZ//DMC/eju+KzxsIkGwlLoTSap5lqx5JTlv4OdwXfm4wRa5WOFXv/nW45CLkplh8cFrl83XkiTRaJor+tbs7X4lCBk9yZBAvTbZypOGIj4eKzw0o3E/A3A/2mCH/hPkFuJSbzfsaq6tp57cU6xTvbJvtizxt2L0Z0SuJZwM/wl7BznYeL267/b/2uuvoCHu8oQtB1IJ4sb7b1scxLYProUqc/FKDtNB68jn51jAsc2Nq4PlfQXVnQQcxTED9HlMEljRhAkLAY+//M0EuTeG8H+/ERoEihcrs764CgDOH1AI/CGvvK9bwGxIFT8f6/eD3WDec3Xb2zkmaZlemqKANclaD3EwU44gqepW1IQvFylGbaNB+jJfCO4ZbQhNVi6383bnn425GHh2yJmVUFz2YRwnYCMf8S4dD26UFW9VkyyGjUZ9pnpiATRUYyEX24+7CS6MJntkrN8iOknRV3o90JhaUs6dQrltZGaXjJmsIET3calvO59zovZzpMtlKa3Sl5MOt6KAuDvgNtyYcrfKN5JetGB0Sbx87zjzLu2C1yGXHwn0QcLgfJIBDPwFyE07YXnu+6ntU5OiesfIXrm377z4EATXZ3zInP1l1EFkmbkoDreRZ+SdXc39d7kwwEf98CZR0mm+SAlzWPXRCjvKETQ40lmSnCn2+KUBz2PChgRiVzbOMisU5noVmNXgs5u6uJwQPKWxUwxQMstDG029+/P78KbtPC11Uh04UQOSiLnf/x9rf7v9SAaBZU6l/2eu2+VOvSyIcZirU/246ZVf6OfZO5tiqY/EDyph7nqIhg54Gza3OQOAMIsDGeOhw6qDbF7hXwqFD/QK3fboeRaDgfrO1TfSjDl6qBtoqnZZvwVqxxIYPrWryCVm6EvYjSNCzX6YINlf5HcDysb38FnN3aDxR8r7BzWvyZ6IMiN2nUd09Erz/eba4ss1Nkz1OQjdwnu0aO8IkWWr4sa7Bapqd47LdqeWJHKHT4bbAVd6F1z+niB8E7sAte7QAAAAAA==" vertex="1" parent="1">
                    <mxGeometry x="260" y="417" width="50" height="50" as="geometry"/>
                </mxCell>
                <mxCell id="18" value="" style="shape=image;verticalLabelPosition=bottom;verticalAlign=top;imageAspect=0;aspect=fixed;image=data:image/webp,UklGRiQgAABXRUJQVlA4WAoAAAAwAAAAfwAAfwAASUNDUEgMAAAAAAxITGlubwIQAABtbnRyUkdCIFhZWiAHzgACAAkABgAxAABhY3NwTVNGVAAAAABJRUMgc1JHQgAAAAAAAAAAAAAAAAAA9tYAAQAAAADTLUhQICAAAAAAAAAAAAAAAAAAAAAAAAAAAAAAAAAAAAAAAAAAAAAAAAAAAAAAAAAAAAAAABFjcHJ0AAABUAAAADNkZXNjAAABhAAAAGx3dHB0AAAB8AAAABRia3B0AAACBAAAABRyWFlaAAACGAAAABRnWFlaAAACLAAAABRiWFlaAAACQAAAABRkbW5kAAACVAAAAHBkbWRkAAACxAAAAIh2dWVkAAADTAAAAIZ2aWV3AAAD1AAAACRsdW1pAAAD+AAAABRtZWFzAAAEDAAAACR0ZWNoAAAEMAAAAAxyVFJDAAAEPAAACAxnVFJDAAAEPAAACAxiVFJDAAAEPAAACAx0ZXh0AAAAAENvcHlyaWdodCAoYykgMTk5OCBIZXdsZXR0LVBhY2thcmQgQ29tcGFueQAAZGVzYwAAAAAAAAASc1JHQiBJRUM2MTk2Ni0yLjEAAAAAAAAAAAAAABJzUkdCIElFQzYxOTY2LTIuMQAAAAAAAAAAAAAAAAAAAAAAAAAAAAAAAAAAAAAAAAAAAAAAAAAAAAAAAAAAAAAAAAAAWFlaIAAAAAAAAPNRAAEAAAABFsxYWVogAAAAAAAAAAAAAAAAAAAAAFhZWiAAAAAAAABvogAAOPUAAAOQWFlaIAAAAAAAAGKZAAC3hQAAGNpYWVogAAAAAAAAJKAAAA+EAAC2z2Rlc2MAAAAAAAAAFklFQyBodHRwOi8vd3d3LmllYy5jaAAAAAAAAAAAAAAAFklFQyBodHRwOi8vd3d3LmllYy5jaAAAAAAAAAAAAAAAAAAAAAAAAAAAAAAAAAAAAAAAAAAAAAAAAAAAAAAAAAAAAABkZXNjAAAAAAAAAC5JRUMgNjE5NjYtMi4xIERlZmF1bHQgUkdCIGNvbG91ciBzcGFjZSAtIHNSR0IAAAAAAAAAAAAAAC5JRUMgNjE5NjYtMi4xIERlZmF1bHQgUkdCIGNvbG91ciBzcGFjZSAtIHNSR0IAAAAAAAAAAAAAAAAAAAAAAAAAAAAAZGVzYwAAAAAAAAAsUmVmZXJlbmNlIFZpZXdpbmcgQ29uZGl0aW9uIGluIElFQzYxOTY2LTIuMQAAAAAAAAAAAAAALFJlZmVyZW5jZSBWaWV3aW5nIENvbmRpdGlvbiBpbiBJRUM2MTk2Ni0yLjEAAAAAAAAAAAAAAAAAAAAAAAAAAAAAAAAAAHZpZXcAAAAAABOk/gAUXy4AEM8UAAPtzAAEEwsAA1yeAAAAAVhZWiAAAAAAAEwJVgBQAAAAVx/nbWVhcwAAAAAAAAABAAAAAAAAAAAAAAAAAAAAAAAAAo8AAAACc2lnIAAAAABDUlQgY3VydgAAAAAAAAQAAAAABQAKAA8AFAAZAB4AIwAoAC0AMgA3ADsAQABFAEoATwBUAFkAXgBjAGgAbQByAHcAfACBAIYAiwCQAJUAmgCfAKQAqQCuALIAtwC8AMEAxgDLANAA1QDbAOAA5QDrAPAA9gD7AQEBBwENARMBGQEfASUBKwEyATgBPgFFAUwBUgFZAWABZwFuAXUBfAGDAYsBkgGaAaEBqQGxAbkBwQHJAdEB2QHhAekB8gH6AgMCDAIUAh0CJgIvAjgCQQJLAlQCXQJnAnECegKEAo4CmAKiAqwCtgLBAssC1QLgAusC9QMAAwsDFgMhAy0DOANDA08DWgNmA3IDfgOKA5YDogOuA7oDxwPTA+AD7AP5BAYEEwQgBC0EOwRIBFUEYwRxBH4EjASaBKgEtgTEBNME4QTwBP4FDQUcBSsFOgVJBVgFZwV3BYYFlgWmBbUFxQXVBeUF9gYGBhYGJwY3BkgGWQZqBnsGjAadBq8GwAbRBuMG9QcHBxkHKwc9B08HYQd0B4YHmQesB78H0gflB/gICwgfCDIIRghaCG4IggiWCKoIvgjSCOcI+wkQCSUJOglPCWQJeQmPCaQJugnPCeUJ+woRCicKPQpUCmoKgQqYCq4KxQrcCvMLCwsiCzkLUQtpC4ALmAuwC8gL4Qv5DBIMKgxDDFwMdQyODKcMwAzZDPMNDQ0mDUANWg10DY4NqQ3DDd4N+A4TDi4OSQ5kDn8Omw62DtIO7g8JDyUPQQ9eD3oPlg+zD88P7BAJECYQQxBhEH4QmxC5ENcQ9RETETERTxFtEYwRqhHJEegSBxImEkUSZBKEEqMSwxLjEwMTIxNDE2MTgxOkE8UT5RQGFCcUSRRqFIsUrRTOFPAVEhU0FVYVeBWbFb0V4BYDFiYWSRZsFo8WshbWFvoXHRdBF2UXiReuF9IX9xgbGEAYZRiKGK8Y1Rj6GSAZRRlrGZEZtxndGgQaKhpRGncanhrFGuwbFBs7G2MbihuyG9ocAhwqHFIcexyjHMwc9R0eHUcdcB2ZHcMd7B4WHkAeah6UHr4e6R8THz4faR+UH78f6iAVIEEgbCCYIMQg8CEcIUghdSGhIc4h+yInIlUigiKvIt0jCiM4I2YjlCPCI/AkHyRNJHwkqyTaJQklOCVoJZclxyX3JicmVyaHJrcm6CcYJ0kneierJ9woDSg/KHEooijUKQYpOClrKZ0p0CoCKjUqaCqbKs8rAis2K2krnSvRLAUsOSxuLKIs1y0MLUEtdi2rLeEuFi5MLoIuty7uLyQvWi+RL8cv/jA1MGwwpDDbMRIxSjGCMbox8jIqMmMymzLUMw0zRjN/M7gz8TQrNGU0njTYNRM1TTWHNcI1/TY3NnI2rjbpNyQ3YDecN9c4FDhQOIw4yDkFOUI5fzm8Ofk6Njp0OrI67zstO2s7qjvoPCc8ZTykPOM9Ij1hPaE94D4gPmA+oD7gPyE/YT+iP+JAI0BkQKZA50EpQWpBrEHuQjBCckK1QvdDOkN9Q8BEA0RHRIpEzkUSRVVFmkXeRiJGZ0arRvBHNUd7R8BIBUhLSJFI10kdSWNJqUnwSjdKfUrESwxLU0uaS+JMKkxyTLpNAk1KTZNN3E4lTm5Ot08AT0lPk0/dUCdQcVC7UQZRUFGbUeZSMVJ8UsdTE1NfU6pT9lRCVI9U21UoVXVVwlYPVlxWqVb3V0RXklfgWC9YfVjLWRpZaVm4WgdaVlqmWvVbRVuVW+VcNVyGXNZdJ114XcleGl5sXr1fD19hX7NgBWBXYKpg/GFPYaJh9WJJYpxi8GNDY5dj62RAZJRk6WU9ZZJl52Y9ZpJm6Gc9Z5Nn6Wg/aJZo7GlDaZpp8WpIap9q92tPa6dr/2xXbK9tCG1gbbluEm5rbsRvHm94b9FwK3CGcOBxOnGVcfByS3KmcwFzXXO4dBR0cHTMdSh1hXXhdj52m3b4d1Z3s3gReG54zHkqeYl553pGeqV7BHtje8J8IXyBfOF9QX2hfgF+Yn7CfyN/hH/lgEeAqIEKgWuBzYIwgpKC9INXg7qEHYSAhOOFR4Wrhg6GcobXhzuHn4gEiGmIzokziZmJ/opkisqLMIuWi/yMY4zKjTGNmI3/jmaOzo82j56QBpBukNaRP5GokhGSepLjk02TtpQglIqU9JVflcmWNJaflwqXdZfgmEyYuJkkmZCZ/JpomtWbQpuvnByciZz3nWSd0p5Anq6fHZ+Ln/qgaaDYoUehtqImopajBqN2o+akVqTHpTilqaYapoum/adup+CoUqjEqTepqaocqo+rAqt1q+msXKzQrUStuK4trqGvFq+LsACwdbDqsWCx1rJLssKzOLOutCW0nLUTtYq2AbZ5tvC3aLfguFm40blKucK6O7q1uy67p7whvJu9Fb2Pvgq+hL7/v3q/9cBwwOzBZ8Hjwl/C28NYw9TEUcTOxUvFyMZGxsPHQce/yD3IvMk6ybnKOMq3yzbLtsw1zLXNNc21zjbOts83z7jQOdC60TzRvtI/0sHTRNPG1EnUy9VO1dHWVdbY11zX4Nhk2OjZbNnx2nba+9uA3AXcit0Q3ZbeHN6i3ynfr+A24L3hROHM4lPi2+Nj4+vkc+T85YTmDeaW5x/nqegy6LzpRunQ6lvq5etw6/vshu0R7ZzuKO6070DvzPBY8OXxcvH/8ozzGfOn9DT0wvVQ9d72bfb794r4Gfio+Tj5x/pX+uf7d/wH/Jj9Kf26/kv+3P9t//9BTFBInAUAAAHwhW3b4eb//93Vy7Zt27Zt23693++XzaW3bdv2TFAG1aPaTGM2mGOhbTKZua/1iJgA5epzv7cxO9/7/hFK6EvaWd36y6kSXdJJ1f85XZiGG8Os7Dc9Hs8MK/9+hiCNt/QClP1DrLTC3az81zlCNF4bBqi0jVJlXxcr/dcK0HjrBoCif4wa+7ssAP+1mmu8dRNA0T+OjQNtFkDrtRpruW8AYNk/gc0DnRZA960Nemq5bwhg2TtLHYf8ZYCeWxv0s9l9wwAF7xx1HvKXAfrua9TLZo9NAWQ8Czhw0lsC6L+vSR+bPzYNkPEs4NBJbwlg/X1Netj6+RmAjGcRB095CgAjjzW7b5vn5wDSZgyHT3vyAKOPNbtrm+fnAVJmHBfOeHIAY89v7p5tX4kCRM0ELo2YOYCJ57dwx3avxACiZhIXR8wswOTzWzpv53fjAEtmCpdHzRTAwitbOmuXdxMAETOLBqNmEmDhla2cs+u7SYBFM4cmY2YCIPLuds7Y7dMswIwnj0bTZhwg8u729dvrq3mAyf8V0GymPQ6w9ObWdXo8ATBuFtFwpjUKMHZpXT4EGPOX0HTWjAClW+pwP5A3S2g86bOgeIJtO0UgF0bzHqC9wa5ngVa0bwJn2OWBIPrPzMHnbdpiGToFwISwTWdDpiDBAJS2tuczEEZCKw4X2PM7MEQgCK/ZMw1dMpjwZ1v2BysqQxAiDXbcAaPImKrAIXZ8CXxCMAz32dEFXil88A0btlyGQUF6bDgH0mUpRqC8XW2fhRBSWjG4qLbfgyEGAXijthkIyGHAX2s6AKyYHCFYaqjlThhBznQZDqvly+AThCG4v5YAeCXxwjdr2HIZhiTxQ28N50KqLMkoVLar7nMQQlIrCpdU9wcwRKEL3qpuDgKyGPD3qg4EKyZLGOKN1dwFI8iaLsMR1XwFfMIwAA9WEwSvNF74dhVbFmFIGj/0V3EeJCvSjENl+7VegSDSWktw6Vp/BEMcuuDtteYgKI8B/1jjILDi8nRDvHG1u2EYeTMlOHK1r4JXIDbBw6uFhPLAd1fZqgTDEvlh/SrnQ6Ii0ThYO654FQKIvAiXr/gTGDJ1wrsr5iEokwH/UkodDJW4TD2QbFTqHhhE5mwJjlbqa+AVio3wiFJhwTzwPbV1CYal8sMGdQEkKlJNgrXTaxBA7AW44k9gyBWE94bAI5cPfpUHUy4v+OJgyBWC//RCn1jZDHzv81AZksoP3HGcBR1CZWYgvrX6BeCVyQs8rdQuk5BfL1EbYDYppU4rwExUnoEszO2lVj4JhMrSxCegeK5a/fuAIYzVATyr1twiBFaHLAbwC1XlAUsQn5AkVIaN21ajrqnAQFaOmSikjlTVfwD4xShsAOsWVWPjPwCPFF7gU1XzTqNQ6JHBD/y/uTZ1Qg5mliQYyMHcnsrOx4BQWX/xSSieo+z9HmBorxIAnlY2bxEEq113BvBzZfv+EUiM6C1Uhr6t7VOXlmEwq7PpKKSOUPV8F2jVWH4DWDerujb+HfDoywd8rOq84wgUe3XlBf7fVC91fA5m5/W0KQdTu6r63wt0l3QUm4Ti2cqJ3wEMDVUCwJPKkZsHwGrTjwH8TDl0vwikR3TTVYG+rZyiLi7DYFov01FIHaGc+zbQqpX8BrBuUg5u+ANg6sQHfKgcveMwFHv14QH+1+QsdVwWFhZ0sa4Ak7sqp98NhIt6iE1C8Szl/G8ChhYqAeBx5cKWVrDadGAAP1Wu3HcRMsPu66pA71buUBeVYTTltqkoxA9Wbn0D8Fnuym8E60bl2obfAaa7fMD7ysU7DEEx7CYT+Fejm9TxWcj0usdrwfguyt33AkUj7Y7ZVqBwqnL7VwGyrYa/zdH/+49hhMoAjyjXN/0EV7+uNNj0Wt49C7crPe7/djDmAmvm/0/toJwIVlA4IBIOAAAwPgCdASqAAIAAPjEUiUMiISEUyN58IAMEtgBmotC/mevKv50j8l/597w1ffkH8R/I/7q/5fp1TT+mvuj+z/uv48fRH+7f0n2I/nf2Cf0o/yHUA8wH83/sH7D+7x/cf8p/L/cP+vX6c/275AP6V/kOsf9AD+I/2H0tP2Z/+PyVfsl+5fwJ/zz/Bf97rAP/v1h/TX+Ydo386/Ij9t+2j8XevPmq+NXpDxL/XH7Z/Xv3I/sn7c/Bf+H8FfhLqBfhX8d/vv5gflzx7ea+YF7B/WP839vnOx9VfYA/Vr/X+rP/A8EXjd9oH2Afyb+t/5/7ovpa/hP+h/jvyy9pv5t/df+B/kvgE/l39P/3v979nT11fsX/9PdC/Xhwbtwfc4vkNKOJpfnujH+HnFZXkub9TcY/39DcEWgD1tn2Rwff6vl4ciZG2oSAq6W+ft05qlzyhIRYVD1ZfK3fznbO4VS+iwXNZbkTcazKFwl4qnBd2mvr38CZz5cyMrAj2pP8ESvWreHCkr5KD6pjKugWYgRNeiSWK/g2+toDYdyBILOJVxIgh98Ck9T6bZMzS1qOWgaMyg6m5al9mnPPaf5N95Skb334QUonoHnSRjAQGUSX4vcneY9LD4PvcmR9NFagWr9Exow0QBRLhWxu5kNZMrHTVTihRWzyiGmy4rPS3AD+/2Aad//m4Bp//bt6icg7RK3Vm693ntHOBrLY5h7hDW0sC9cGxEibW3Y57+yJf30XbJWTcCQSwZvpsnuFVtR6wLmhadWd8IcPcIx1FuVxhBE1Nl3Sf3mO8GXt08KDvdZ2WimFZ1YHFqi2ncVvb4ZkmtJ7+VzcCQTObwwSQV9Ty0An1RvXPyTE6MmeEZAF0DAGQnk4jwp8rxuWtARNXzqzOKh9nOsH7MhRmdEVqwNjaE2pB/hdygjuhByXn8SEJ0xiX/TG1V0rukC9TevhDijAiNCct5JQYXKcrpwWHe1o/xS8TwqykDXljwVfq9/Ae2reZWmHeV48v3BdiX+IYl2OEsLUH5Cf/w/swTyX/t3whFtx3fQ2NThwcew7cGFqsQYHV7kGZQGBnAtHrvRaEAWcvs0/YDSxJ0nhDh32DvMLqAAN+MCwsGZeyabet37Zvbwhi//cRmKnx6OMyLhglETc03wUh6K32k9dbprB8EEoOqwlEhF25Wgtqi6rMD7rlXYSw43RlSxen9n67IR1hU+RSRqelvojBqU6yvM+Khsd7OMZaczmQ14EAQMSIQla/SPD+FETYZg5syoTJ3b15sYe7rjCpVKfDFbEeERYT+QYtIQ98Jn7skVmtV9NvPy4i1bCNmuCvfKiElf0Ui34M+HIMdf8JZrViit9ajMAACTkGfJi/hweE50ScNbM8jhYarhwq7FTf9uY+6CiObtA2rxR9CO8/xRsHkxyaXfUqwGrhl22b7ijVsDN1oIALyGD7Z//bwZ7X+PabkyfuLCsy8tVhPpICAD/de/TeZ0QqqJrhn7OkdcIvyVB7PzFQdFPYoJg0AxHvXOr7hnQCxsuMpBwM6nEo5ICbrBtv/d7RTq2r6daMvFzqtie745zIDfrYgjwdSpKE8ipgXz5Cgg//4OHob85rdh4QE8vajJoshtPiSk7LH897lF1ENfC+yPXc3JWqrfcMcYTqvsChDmjzEyEmH9qOx5ZOHOX1J9jn2BGwt6CmlxM62nLngHnyx3jrOUZPP2Hnw07Vj1mI+ZCrZvk1aDLydIReYvwAZzk5/FIyRT7w+MwH/seBw94ONNgc8Qtxhf8IlzuKjtKzVoShRAIbA9288rhyabhPqJDH5HUhqRJDiMF/6dzXQaUSTKtMM3zz6yoOCYA9oJRQxEM2QNE1KJnzDUP5tkodrfztKbzqmoN92qrx7oWr+xRIITbffuJljDHX85RRe6jWXXI6EExTyfWJPuo21oT/aNghALGfzPlMlLh94nRB8jsmAPCy2sf3oMgVN1cgbqEkqeV/ZEgLLOa6oHBM7h2OJh/8ISReC7nhSRKcYbZDjO2gNifFV79d6gsofc14O+JupbGIvGqZD946vZPeZwjfof1mWTrTYW2ZbfKQKdXO30AeX/mW+MUpHjpQNqQAISqS3WC1MYL76u9stKdCOZJBf2/PzwTD4heGONxi2nhn9MwusCVahLxeAqWvvOGGOeMEbtUh2fuFsUhEjWMLc6KI3MdUh5ks3v4bVPCDpYVyRUWXrI2SZKADzQwVsnnxmFY9MM6QHKiY90s7RrYCGj4Lqn67V6S4yV0CcZvBxv3kU3ehyd4B7XEAMEsdrjb4ZjQJIiC2doNT/Cflzw7zVv9sBgnrIDwP+dmN7lqoSJkIM7xrwCSWys06JeHEJ2ciUv9FHN/f4mN1etxNGSpJ80BC8OdWUwuUT8m0W18CH/rzeH5F2SOprYmJnK4uQwWQikdSKFRTgq3/kM2Ye6AVh0f+ap+4pqpTvyviskGT9EEYvEk6D6Vibl9XX5HPlhOatHTOxFMW3Iw2gyUMiHk2L+Rqqylr+K8P5MzYrSDWkafdkU3uPO6di5SvnEKvuT1xyjpCSJmQbb2JQ5Ko9Xwloddp/kpF4ECqMiugCBj2sviFAXuDyoEl38dk2bDTEgCSvU3Nkyz/o3w52/iq8SpvxX3MZZBfF4JaQPB2njhU89AKKXSxBCOwlCwJOPQRQzAHarx6txJZInSz8MYklUi7vCpJuZb/Mq8+BPBpoekAOk8whygMSdx4hon5NHd2rCYrygqef7jHb4mITtm8AZqadDNEqcpr8Cxu3g+r8lT3s9BQ8foQBVDuneyIc5vaky/xWdxbpLSGHsp0JRXGJaeo43JEBqfXeV4McUwhFqICspkseeStdaq461LxfbxycK4s5+HlPF6YeIK5lOLAwNoay6luZMEwLTsDZBs+b9Ojtdct/SGIE0OcsRl01foqe9BNUyKvaimqkpgglSExNHj/5ijvwVWR0VVSfgfQSql2EZOpBRU8q7i7w6dViKJLZ6qt8U2CZRUidrjGaQuyoyzVcZ3pp5PyZTn6GXBEomspZIlB7o7JRJ3dUrWH7gCWYJ5dKLS/M8XOAEPJkpyhNQV9J9e1ni56QQXxQlUVMZdxtpe7jo35DiFlLZ49MQUulvIvR/7EscI5BpFkbWVburdfKFhj9fOfI8wzYJl9lsYhvHOR7T4AziuzSo/MAZd6rOxcrmcVTsWOCjwEHoljOKG33akt9WdhaAngQqN6ss9oFva2jyScZhnXD1RlXEW8gKHyObW+5kaAIT55lMloE7VA6fYFmacHsbeeBMp40gvkc0KI7Zxs0I1xayJP1jj8Ijbu1h1an2kCA9M9Bnsz9/4sMquFFD10y65zkVaaAssf+3nSRNtfWLTBvOUU2M5RSJo+WapelGB+sXWrEmnAXTBXL5YozOk8IjaAXLdE9IkoH5OMZN+FfN0Cx3Sg25qBFvWWBxQrEugTdVIiR4iDHIbW2fM80x423vrKnXV8WFVPSzRgvNo6gfclKtLcg5D6YcufUWYvh0pn//icIb+0PXMw7lcT1auA1oAH6/gH36u9h9+Lr396GMQZVxahJk7uaIoMwj4trvWjlFBfbrCYQbUAD8RqpEn7ofXk23UGAZ5nersKxbHzVt+HPSPUg2rJ03CW2QwHi8+7PYwzHVYfksCsy+LX+TcGdG7O4ITAmHg0hS6zWTBI9itrl83y1ukUovMINnREA/3H5QqO514521x6aBxfMjKmRBb///WhAEzej5EH/6pC5ZrrHQU/Dae7NGDktLg+qH+153phVUsv+tKJEZrAZ//DMC/eju+KzxsIkGwlLoTSap5lqx5JTlv4OdwXfm4wRa5WOFXv/nW45CLkplh8cFrl83XkiTRaJor+tbs7X4lCBk9yZBAvTbZypOGIj4eKzw0o3E/A3A/2mCH/hPkFuJSbzfsaq6tp57cU6xTvbJvtizxt2L0Z0SuJZwM/wl7BznYeL267/b/2uuvoCHu8oQtB1IJ4sb7b1scxLYProUqc/FKDtNB68jn51jAsc2Nq4PlfQXVnQQcxTED9HlMEljRhAkLAY+//M0EuTeG8H+/ERoEihcrs764CgDOH1AI/CGvvK9bwGxIFT8f6/eD3WDec3Xb2zkmaZlemqKANclaD3EwU44gqepW1IQvFylGbaNB+jJfCO4ZbQhNVi6383bnn425GHh2yJmVUFz2YRwnYCMf8S4dD26UFW9VkyyGjUZ9pnpiATRUYyEX24+7CS6MJntkrN8iOknRV3o90JhaUs6dQrltZGaXjJmsIET3calvO59zovZzpMtlKa3Sl5MOt6KAuDvgNtyYcrfKN5JetGB0Sbx87zjzLu2C1yGXHwn0QcLgfJIBDPwFyE07YXnu+6ntU5OiesfIXrm377z4EATXZ3zInP1l1EFkmbkoDreRZ+SdXc39d7kwwEf98CZR0mm+SAlzWPXRCjvKETQ40lmSnCn2+KUBz2PChgRiVzbOMisU5noVmNXgs5u6uJwQPKWxUwxQMstDG029+/P78KbtPC11Uh04UQOSiLnf/x9rf7v9SAaBZU6l/2eu2+VOvSyIcZirU/246ZVf6OfZO5tiqY/EDyph7nqIhg54Gza3OQOAMIsDGeOhw6qDbF7hXwqFD/QK3fboeRaDgfrO1TfSjDl6qBtoqnZZvwVqxxIYPrWryCVm6EvYjSNCzX6YINlf5HcDysb38FnN3aDxR8r7BzWvyZ6IMiN2nUd09Erz/eba4ss1Nkz1OQjdwnu0aO8IkWWr4sa7Bapqd47LdqeWJHKHT4bbAVd6F1z+niB8E7sAte7QAAAAAA==" vertex="1" parent="1">
                    <mxGeometry x="270" y="417" width="50" height="50" as="geometry"/>
                </mxCell>
                <mxCell id="19" value="" style="shape=image;verticalLabelPosition=bottom;verticalAlign=top;imageAspect=0;aspect=fixed;image=data:image/webp,UklGRiQgAABXRUJQVlA4WAoAAAAwAAAAfwAAfwAASUNDUEgMAAAAAAxITGlubwIQAABtbnRyUkdCIFhZWiAHzgACAAkABgAxAABhY3NwTVNGVAAAAABJRUMgc1JHQgAAAAAAAAAAAAAAAAAA9tYAAQAAAADTLUhQICAAAAAAAAAAAAAAAAAAAAAAAAAAAAAAAAAAAAAAAAAAAAAAAAAAAAAAAAAAAAAAABFjcHJ0AAABUAAAADNkZXNjAAABhAAAAGx3dHB0AAAB8AAAABRia3B0AAACBAAAABRyWFlaAAACGAAAABRnWFlaAAACLAAAABRiWFlaAAACQAAAABRkbW5kAAACVAAAAHBkbWRkAAACxAAAAIh2dWVkAAADTAAAAIZ2aWV3AAAD1AAAACRsdW1pAAAD+AAAABRtZWFzAAAEDAAAACR0ZWNoAAAEMAAAAAxyVFJDAAAEPAAACAxnVFJDAAAEPAAACAxiVFJDAAAEPAAACAx0ZXh0AAAAAENvcHlyaWdodCAoYykgMTk5OCBIZXdsZXR0LVBhY2thcmQgQ29tcGFueQAAZGVzYwAAAAAAAAASc1JHQiBJRUM2MTk2Ni0yLjEAAAAAAAAAAAAAABJzUkdCIElFQzYxOTY2LTIuMQAAAAAAAAAAAAAAAAAAAAAAAAAAAAAAAAAAAAAAAAAAAAAAAAAAAAAAAAAAAAAAAAAAWFlaIAAAAAAAAPNRAAEAAAABFsxYWVogAAAAAAAAAAAAAAAAAAAAAFhZWiAAAAAAAABvogAAOPUAAAOQWFlaIAAAAAAAAGKZAAC3hQAAGNpYWVogAAAAAAAAJKAAAA+EAAC2z2Rlc2MAAAAAAAAAFklFQyBodHRwOi8vd3d3LmllYy5jaAAAAAAAAAAAAAAAFklFQyBodHRwOi8vd3d3LmllYy5jaAAAAAAAAAAAAAAAAAAAAAAAAAAAAAAAAAAAAAAAAAAAAAAAAAAAAAAAAAAAAABkZXNjAAAAAAAAAC5JRUMgNjE5NjYtMi4xIERlZmF1bHQgUkdCIGNvbG91ciBzcGFjZSAtIHNSR0IAAAAAAAAAAAAAAC5JRUMgNjE5NjYtMi4xIERlZmF1bHQgUkdCIGNvbG91ciBzcGFjZSAtIHNSR0IAAAAAAAAAAAAAAAAAAAAAAAAAAAAAZGVzYwAAAAAAAAAsUmVmZXJlbmNlIFZpZXdpbmcgQ29uZGl0aW9uIGluIElFQzYxOTY2LTIuMQAAAAAAAAAAAAAALFJlZmVyZW5jZSBWaWV3aW5nIENvbmRpdGlvbiBpbiBJRUM2MTk2Ni0yLjEAAAAAAAAAAAAAAAAAAAAAAAAAAAAAAAAAAHZpZXcAAAAAABOk/gAUXy4AEM8UAAPtzAAEEwsAA1yeAAAAAVhZWiAAAAAAAEwJVgBQAAAAVx/nbWVhcwAAAAAAAAABAAAAAAAAAAAAAAAAAAAAAAAAAo8AAAACc2lnIAAAAABDUlQgY3VydgAAAAAAAAQAAAAABQAKAA8AFAAZAB4AIwAoAC0AMgA3ADsAQABFAEoATwBUAFkAXgBjAGgAbQByAHcAfACBAIYAiwCQAJUAmgCfAKQAqQCuALIAtwC8AMEAxgDLANAA1QDbAOAA5QDrAPAA9gD7AQEBBwENARMBGQEfASUBKwEyATgBPgFFAUwBUgFZAWABZwFuAXUBfAGDAYsBkgGaAaEBqQGxAbkBwQHJAdEB2QHhAekB8gH6AgMCDAIUAh0CJgIvAjgCQQJLAlQCXQJnAnECegKEAo4CmAKiAqwCtgLBAssC1QLgAusC9QMAAwsDFgMhAy0DOANDA08DWgNmA3IDfgOKA5YDogOuA7oDxwPTA+AD7AP5BAYEEwQgBC0EOwRIBFUEYwRxBH4EjASaBKgEtgTEBNME4QTwBP4FDQUcBSsFOgVJBVgFZwV3BYYFlgWmBbUFxQXVBeUF9gYGBhYGJwY3BkgGWQZqBnsGjAadBq8GwAbRBuMG9QcHBxkHKwc9B08HYQd0B4YHmQesB78H0gflB/gICwgfCDIIRghaCG4IggiWCKoIvgjSCOcI+wkQCSUJOglPCWQJeQmPCaQJugnPCeUJ+woRCicKPQpUCmoKgQqYCq4KxQrcCvMLCwsiCzkLUQtpC4ALmAuwC8gL4Qv5DBIMKgxDDFwMdQyODKcMwAzZDPMNDQ0mDUANWg10DY4NqQ3DDd4N+A4TDi4OSQ5kDn8Omw62DtIO7g8JDyUPQQ9eD3oPlg+zD88P7BAJECYQQxBhEH4QmxC5ENcQ9RETETERTxFtEYwRqhHJEegSBxImEkUSZBKEEqMSwxLjEwMTIxNDE2MTgxOkE8UT5RQGFCcUSRRqFIsUrRTOFPAVEhU0FVYVeBWbFb0V4BYDFiYWSRZsFo8WshbWFvoXHRdBF2UXiReuF9IX9xgbGEAYZRiKGK8Y1Rj6GSAZRRlrGZEZtxndGgQaKhpRGncanhrFGuwbFBs7G2MbihuyG9ocAhwqHFIcexyjHMwc9R0eHUcdcB2ZHcMd7B4WHkAeah6UHr4e6R8THz4faR+UH78f6iAVIEEgbCCYIMQg8CEcIUghdSGhIc4h+yInIlUigiKvIt0jCiM4I2YjlCPCI/AkHyRNJHwkqyTaJQklOCVoJZclxyX3JicmVyaHJrcm6CcYJ0kneierJ9woDSg/KHEooijUKQYpOClrKZ0p0CoCKjUqaCqbKs8rAis2K2krnSvRLAUsOSxuLKIs1y0MLUEtdi2rLeEuFi5MLoIuty7uLyQvWi+RL8cv/jA1MGwwpDDbMRIxSjGCMbox8jIqMmMymzLUMw0zRjN/M7gz8TQrNGU0njTYNRM1TTWHNcI1/TY3NnI2rjbpNyQ3YDecN9c4FDhQOIw4yDkFOUI5fzm8Ofk6Njp0OrI67zstO2s7qjvoPCc8ZTykPOM9Ij1hPaE94D4gPmA+oD7gPyE/YT+iP+JAI0BkQKZA50EpQWpBrEHuQjBCckK1QvdDOkN9Q8BEA0RHRIpEzkUSRVVFmkXeRiJGZ0arRvBHNUd7R8BIBUhLSJFI10kdSWNJqUnwSjdKfUrESwxLU0uaS+JMKkxyTLpNAk1KTZNN3E4lTm5Ot08AT0lPk0/dUCdQcVC7UQZRUFGbUeZSMVJ8UsdTE1NfU6pT9lRCVI9U21UoVXVVwlYPVlxWqVb3V0RXklfgWC9YfVjLWRpZaVm4WgdaVlqmWvVbRVuVW+VcNVyGXNZdJ114XcleGl5sXr1fD19hX7NgBWBXYKpg/GFPYaJh9WJJYpxi8GNDY5dj62RAZJRk6WU9ZZJl52Y9ZpJm6Gc9Z5Nn6Wg/aJZo7GlDaZpp8WpIap9q92tPa6dr/2xXbK9tCG1gbbluEm5rbsRvHm94b9FwK3CGcOBxOnGVcfByS3KmcwFzXXO4dBR0cHTMdSh1hXXhdj52m3b4d1Z3s3gReG54zHkqeYl553pGeqV7BHtje8J8IXyBfOF9QX2hfgF+Yn7CfyN/hH/lgEeAqIEKgWuBzYIwgpKC9INXg7qEHYSAhOOFR4Wrhg6GcobXhzuHn4gEiGmIzokziZmJ/opkisqLMIuWi/yMY4zKjTGNmI3/jmaOzo82j56QBpBukNaRP5GokhGSepLjk02TtpQglIqU9JVflcmWNJaflwqXdZfgmEyYuJkkmZCZ/JpomtWbQpuvnByciZz3nWSd0p5Anq6fHZ+Ln/qgaaDYoUehtqImopajBqN2o+akVqTHpTilqaYapoum/adup+CoUqjEqTepqaocqo+rAqt1q+msXKzQrUStuK4trqGvFq+LsACwdbDqsWCx1rJLssKzOLOutCW0nLUTtYq2AbZ5tvC3aLfguFm40blKucK6O7q1uy67p7whvJu9Fb2Pvgq+hL7/v3q/9cBwwOzBZ8Hjwl/C28NYw9TEUcTOxUvFyMZGxsPHQce/yD3IvMk6ybnKOMq3yzbLtsw1zLXNNc21zjbOts83z7jQOdC60TzRvtI/0sHTRNPG1EnUy9VO1dHWVdbY11zX4Nhk2OjZbNnx2nba+9uA3AXcit0Q3ZbeHN6i3ynfr+A24L3hROHM4lPi2+Nj4+vkc+T85YTmDeaW5x/nqegy6LzpRunQ6lvq5etw6/vshu0R7ZzuKO6070DvzPBY8OXxcvH/8ozzGfOn9DT0wvVQ9d72bfb794r4Gfio+Tj5x/pX+uf7d/wH/Jj9Kf26/kv+3P9t//9BTFBInAUAAAHwhW3b4eb//93Vy7Zt27Zt23693++XzaW3bdv2TFAG1aPaTGM2mGOhbTKZua/1iJgA5epzv7cxO9/7/hFK6EvaWd36y6kSXdJJ1f85XZiGG8Os7Dc9Hs8MK/9+hiCNt/QClP1DrLTC3az81zlCNF4bBqi0jVJlXxcr/dcK0HjrBoCif4wa+7ssAP+1mmu8dRNA0T+OjQNtFkDrtRpruW8AYNk/gc0DnRZA960Nemq5bwhg2TtLHYf8ZYCeWxv0s9l9wwAF7xx1HvKXAfrua9TLZo9NAWQ8Czhw0lsC6L+vSR+bPzYNkPEs4NBJbwlg/X1Netj6+RmAjGcRB095CgAjjzW7b5vn5wDSZgyHT3vyAKOPNbtrm+fnAVJmHBfOeHIAY89v7p5tX4kCRM0ELo2YOYCJ57dwx3avxACiZhIXR8wswOTzWzpv53fjAEtmCpdHzRTAwitbOmuXdxMAETOLBqNmEmDhla2cs+u7SYBFM4cmY2YCIPLuds7Y7dMswIwnj0bTZhwg8u729dvrq3mAyf8V0GymPQ6w9ObWdXo8ATBuFtFwpjUKMHZpXT4EGPOX0HTWjAClW+pwP5A3S2g86bOgeIJtO0UgF0bzHqC9wa5ngVa0bwJn2OWBIPrPzMHnbdpiGToFwISwTWdDpiDBAJS2tuczEEZCKw4X2PM7MEQgCK/ZMw1dMpjwZ1v2BysqQxAiDXbcAaPImKrAIXZ8CXxCMAz32dEFXil88A0btlyGQUF6bDgH0mUpRqC8XW2fhRBSWjG4qLbfgyEGAXijthkIyGHAX2s6AKyYHCFYaqjlThhBznQZDqvly+AThCG4v5YAeCXxwjdr2HIZhiTxQ28N50KqLMkoVLar7nMQQlIrCpdU9wcwRKEL3qpuDgKyGPD3qg4EKyZLGOKN1dwFI8iaLsMR1XwFfMIwAA9WEwSvNF74dhVbFmFIGj/0V3EeJCvSjENl+7VegSDSWktw6Vp/BEMcuuDtteYgKI8B/1jjILDi8nRDvHG1u2EYeTMlOHK1r4JXIDbBw6uFhPLAd1fZqgTDEvlh/SrnQ6Ii0ThYO654FQKIvAiXr/gTGDJ1wrsr5iEokwH/UkodDJW4TD2QbFTqHhhE5mwJjlbqa+AVio3wiFJhwTzwPbV1CYal8sMGdQEkKlJNgrXTaxBA7AW44k9gyBWE94bAI5cPfpUHUy4v+OJgyBWC//RCn1jZDHzv81AZksoP3HGcBR1CZWYgvrX6BeCVyQs8rdQuk5BfL1EbYDYppU4rwExUnoEszO2lVj4JhMrSxCegeK5a/fuAIYzVATyr1twiBFaHLAbwC1XlAUsQn5AkVIaN21ajrqnAQFaOmSikjlTVfwD4xShsAOsWVWPjPwCPFF7gU1XzTqNQ6JHBD/y/uTZ1Qg5mliQYyMHcnsrOx4BQWX/xSSieo+z9HmBorxIAnlY2bxEEq113BvBzZfv+EUiM6C1Uhr6t7VOXlmEwq7PpKKSOUPV8F2jVWH4DWDerujb+HfDoywd8rOq84wgUe3XlBf7fVC91fA5m5/W0KQdTu6r63wt0l3QUm4Ti2cqJ3wEMDVUCwJPKkZsHwGrTjwH8TDl0vwikR3TTVYG+rZyiLi7DYFov01FIHaGc+zbQqpX8BrBuUg5u+ANg6sQHfKgcveMwFHv14QH+1+QsdVwWFhZ0sa4Ak7sqp98NhIt6iE1C8Szl/G8ChhYqAeBx5cKWVrDadGAAP1Wu3HcRMsPu66pA71buUBeVYTTltqkoxA9Wbn0D8Fnuym8E60bl2obfAaa7fMD7ysU7DEEx7CYT+Fejm9TxWcj0usdrwfguyt33AkUj7Y7ZVqBwqnL7VwGyrYa/zdH/+49hhMoAjyjXN/0EV7+uNNj0Wt49C7crPe7/djDmAmvm/0/toJwIVlA4IBIOAAAwPgCdASqAAIAAPjEUiUMiISEUyN58IAMEtgBmotC/mevKv50j8l/597w1ffkH8R/I/7q/5fp1TT+mvuj+z/uv48fRH+7f0n2I/nf2Cf0o/yHUA8wH83/sH7D+7x/cf8p/L/cP+vX6c/275AP6V/kOsf9AD+I/2H0tP2Z/+PyVfsl+5fwJ/zz/Bf97rAP/v1h/TX+Ydo386/Ij9t+2j8XevPmq+NXpDxL/XH7Z/Xv3I/sn7c/Bf+H8FfhLqBfhX8d/vv5gflzx7ea+YF7B/WP839vnOx9VfYA/Vr/X+rP/A8EXjd9oH2Afyb+t/5/7ovpa/hP+h/jvyy9pv5t/df+B/kvgE/l39P/3v979nT11fsX/9PdC/Xhwbtwfc4vkNKOJpfnujH+HnFZXkub9TcY/39DcEWgD1tn2Rwff6vl4ciZG2oSAq6W+ft05qlzyhIRYVD1ZfK3fznbO4VS+iwXNZbkTcazKFwl4qnBd2mvr38CZz5cyMrAj2pP8ESvWreHCkr5KD6pjKugWYgRNeiSWK/g2+toDYdyBILOJVxIgh98Ck9T6bZMzS1qOWgaMyg6m5al9mnPPaf5N95Skb334QUonoHnSRjAQGUSX4vcneY9LD4PvcmR9NFagWr9Exow0QBRLhWxu5kNZMrHTVTihRWzyiGmy4rPS3AD+/2Aad//m4Bp//bt6icg7RK3Vm693ntHOBrLY5h7hDW0sC9cGxEibW3Y57+yJf30XbJWTcCQSwZvpsnuFVtR6wLmhadWd8IcPcIx1FuVxhBE1Nl3Sf3mO8GXt08KDvdZ2WimFZ1YHFqi2ncVvb4ZkmtJ7+VzcCQTObwwSQV9Ty0An1RvXPyTE6MmeEZAF0DAGQnk4jwp8rxuWtARNXzqzOKh9nOsH7MhRmdEVqwNjaE2pB/hdygjuhByXn8SEJ0xiX/TG1V0rukC9TevhDijAiNCct5JQYXKcrpwWHe1o/xS8TwqykDXljwVfq9/Ae2reZWmHeV48v3BdiX+IYl2OEsLUH5Cf/w/swTyX/t3whFtx3fQ2NThwcew7cGFqsQYHV7kGZQGBnAtHrvRaEAWcvs0/YDSxJ0nhDh32DvMLqAAN+MCwsGZeyabet37Zvbwhi//cRmKnx6OMyLhglETc03wUh6K32k9dbprB8EEoOqwlEhF25Wgtqi6rMD7rlXYSw43RlSxen9n67IR1hU+RSRqelvojBqU6yvM+Khsd7OMZaczmQ14EAQMSIQla/SPD+FETYZg5syoTJ3b15sYe7rjCpVKfDFbEeERYT+QYtIQ98Jn7skVmtV9NvPy4i1bCNmuCvfKiElf0Ui34M+HIMdf8JZrViit9ajMAACTkGfJi/hweE50ScNbM8jhYarhwq7FTf9uY+6CiObtA2rxR9CO8/xRsHkxyaXfUqwGrhl22b7ijVsDN1oIALyGD7Z//bwZ7X+PabkyfuLCsy8tVhPpICAD/de/TeZ0QqqJrhn7OkdcIvyVB7PzFQdFPYoJg0AxHvXOr7hnQCxsuMpBwM6nEo5ICbrBtv/d7RTq2r6daMvFzqtie745zIDfrYgjwdSpKE8ipgXz5Cgg//4OHob85rdh4QE8vajJoshtPiSk7LH897lF1ENfC+yPXc3JWqrfcMcYTqvsChDmjzEyEmH9qOx5ZOHOX1J9jn2BGwt6CmlxM62nLngHnyx3jrOUZPP2Hnw07Vj1mI+ZCrZvk1aDLydIReYvwAZzk5/FIyRT7w+MwH/seBw94ONNgc8Qtxhf8IlzuKjtKzVoShRAIbA9288rhyabhPqJDH5HUhqRJDiMF/6dzXQaUSTKtMM3zz6yoOCYA9oJRQxEM2QNE1KJnzDUP5tkodrfztKbzqmoN92qrx7oWr+xRIITbffuJljDHX85RRe6jWXXI6EExTyfWJPuo21oT/aNghALGfzPlMlLh94nRB8jsmAPCy2sf3oMgVN1cgbqEkqeV/ZEgLLOa6oHBM7h2OJh/8ISReC7nhSRKcYbZDjO2gNifFV79d6gsofc14O+JupbGIvGqZD946vZPeZwjfof1mWTrTYW2ZbfKQKdXO30AeX/mW+MUpHjpQNqQAISqS3WC1MYL76u9stKdCOZJBf2/PzwTD4heGONxi2nhn9MwusCVahLxeAqWvvOGGOeMEbtUh2fuFsUhEjWMLc6KI3MdUh5ks3v4bVPCDpYVyRUWXrI2SZKADzQwVsnnxmFY9MM6QHKiY90s7RrYCGj4Lqn67V6S4yV0CcZvBxv3kU3ehyd4B7XEAMEsdrjb4ZjQJIiC2doNT/Cflzw7zVv9sBgnrIDwP+dmN7lqoSJkIM7xrwCSWys06JeHEJ2ciUv9FHN/f4mN1etxNGSpJ80BC8OdWUwuUT8m0W18CH/rzeH5F2SOprYmJnK4uQwWQikdSKFRTgq3/kM2Ye6AVh0f+ap+4pqpTvyviskGT9EEYvEk6D6Vibl9XX5HPlhOatHTOxFMW3Iw2gyUMiHk2L+Rqqylr+K8P5MzYrSDWkafdkU3uPO6di5SvnEKvuT1xyjpCSJmQbb2JQ5Ko9Xwloddp/kpF4ECqMiugCBj2sviFAXuDyoEl38dk2bDTEgCSvU3Nkyz/o3w52/iq8SpvxX3MZZBfF4JaQPB2njhU89AKKXSxBCOwlCwJOPQRQzAHarx6txJZInSz8MYklUi7vCpJuZb/Mq8+BPBpoekAOk8whygMSdx4hon5NHd2rCYrygqef7jHb4mITtm8AZqadDNEqcpr8Cxu3g+r8lT3s9BQ8foQBVDuneyIc5vaky/xWdxbpLSGHsp0JRXGJaeo43JEBqfXeV4McUwhFqICspkseeStdaq461LxfbxycK4s5+HlPF6YeIK5lOLAwNoay6luZMEwLTsDZBs+b9Ojtdct/SGIE0OcsRl01foqe9BNUyKvaimqkpgglSExNHj/5ijvwVWR0VVSfgfQSql2EZOpBRU8q7i7w6dViKJLZ6qt8U2CZRUidrjGaQuyoyzVcZ3pp5PyZTn6GXBEomspZIlB7o7JRJ3dUrWH7gCWYJ5dKLS/M8XOAEPJkpyhNQV9J9e1ni56QQXxQlUVMZdxtpe7jo35DiFlLZ49MQUulvIvR/7EscI5BpFkbWVburdfKFhj9fOfI8wzYJl9lsYhvHOR7T4AziuzSo/MAZd6rOxcrmcVTsWOCjwEHoljOKG33akt9WdhaAngQqN6ss9oFva2jyScZhnXD1RlXEW8gKHyObW+5kaAIT55lMloE7VA6fYFmacHsbeeBMp40gvkc0KI7Zxs0I1xayJP1jj8Ijbu1h1an2kCA9M9Bnsz9/4sMquFFD10y65zkVaaAssf+3nSRNtfWLTBvOUU2M5RSJo+WapelGB+sXWrEmnAXTBXL5YozOk8IjaAXLdE9IkoH5OMZN+FfN0Cx3Sg25qBFvWWBxQrEugTdVIiR4iDHIbW2fM80x423vrKnXV8WFVPSzRgvNo6gfclKtLcg5D6YcufUWYvh0pn//icIb+0PXMw7lcT1auA1oAH6/gH36u9h9+Lr396GMQZVxahJk7uaIoMwj4trvWjlFBfbrCYQbUAD8RqpEn7ofXk23UGAZ5nersKxbHzVt+HPSPUg2rJ03CW2QwHi8+7PYwzHVYfksCsy+LX+TcGdG7O4ITAmHg0hS6zWTBI9itrl83y1ukUovMINnREA/3H5QqO514521x6aBxfMjKmRBb///WhAEzej5EH/6pC5ZrrHQU/Dae7NGDktLg+qH+153phVUsv+tKJEZrAZ//DMC/eju+KzxsIkGwlLoTSap5lqx5JTlv4OdwXfm4wRa5WOFXv/nW45CLkplh8cFrl83XkiTRaJor+tbs7X4lCBk9yZBAvTbZypOGIj4eKzw0o3E/A3A/2mCH/hPkFuJSbzfsaq6tp57cU6xTvbJvtizxt2L0Z0SuJZwM/wl7BznYeL267/b/2uuvoCHu8oQtB1IJ4sb7b1scxLYProUqc/FKDtNB68jn51jAsc2Nq4PlfQXVnQQcxTED9HlMEljRhAkLAY+//M0EuTeG8H+/ERoEihcrs764CgDOH1AI/CGvvK9bwGxIFT8f6/eD3WDec3Xb2zkmaZlemqKANclaD3EwU44gqepW1IQvFylGbaNB+jJfCO4ZbQhNVi6383bnn425GHh2yJmVUFz2YRwnYCMf8S4dD26UFW9VkyyGjUZ9pnpiATRUYyEX24+7CS6MJntkrN8iOknRV3o90JhaUs6dQrltZGaXjJmsIET3calvO59zovZzpMtlKa3Sl5MOt6KAuDvgNtyYcrfKN5JetGB0Sbx87zjzLu2C1yGXHwn0QcLgfJIBDPwFyE07YXnu+6ntU5OiesfIXrm377z4EATXZ3zInP1l1EFkmbkoDreRZ+SdXc39d7kwwEf98CZR0mm+SAlzWPXRCjvKETQ40lmSnCn2+KUBz2PChgRiVzbOMisU5noVmNXgs5u6uJwQPKWxUwxQMstDG029+/P78KbtPC11Uh04UQOSiLnf/x9rf7v9SAaBZU6l/2eu2+VOvSyIcZirU/246ZVf6OfZO5tiqY/EDyph7nqIhg54Gza3OQOAMIsDGeOhw6qDbF7hXwqFD/QK3fboeRaDgfrO1TfSjDl6qBtoqnZZvwVqxxIYPrWryCVm6EvYjSNCzX6YINlf5HcDysb38FnN3aDxR8r7BzWvyZ6IMiN2nUd09Erz/eba4ss1Nkz1OQjdwnu0aO8IkWWr4sa7Bapqd47LdqeWJHKHT4bbAVd6F1z+niB8E7sAte7QAAAAAA==" vertex="1" parent="1">
                    <mxGeometry x="280" y="417" width="50" height="50" as="geometry"/>
                </mxCell>
                <mxCell id="23" value="リソース状況によりPodが新規で追加できない場合、新規でNodeが追加される" style="text;html=1;strokeColor=none;fillColor=none;align=center;verticalAlign=middle;whiteSpace=wrap;rounded=0;" vertex="1" parent="1">
                    <mxGeometry x="60" y="340" width="290" height="37" as="geometry"/>
                </mxCell>
                <mxCell id="24" value="" style="shape=cross;whiteSpace=wrap;html=1;rotation=-45;fillColor=#990000;size=0.12374368670764539;" vertex="1" parent="1">
                    <mxGeometry x="265" y="402" width="80" height="80" as="geometry"/>
                </mxCell>
                <mxCell id="29" value="" style="rounded=0;whiteSpace=wrap;html=1;" vertex="1" parent="1">
                    <mxGeometry x="460" y="330" width="320" height="180" as="geometry"/>
                </mxCell>
                <mxCell id="30" value="" style="endArrow=none;dashed=1;html=1;dashPattern=1 3;strokeWidth=4;" edge="1" parent="1">
                    <mxGeometry width="50" height="50" relative="1" as="geometry">
                        <mxPoint x="375" y="409" as="sourcePoint"/>
                        <mxPoint x="455" y="409.5" as="targetPoint"/>
                    </mxGeometry>
                </mxCell>
                <mxCell id="31" value="新規でNodeが追加されたNode" style="text;html=1;strokeColor=none;fillColor=none;align=center;verticalAlign=middle;whiteSpace=wrap;rounded=0;" vertex="1" parent="1">
                    <mxGeometry x="470" y="340" width="290" height="37" as="geometry"/>
                </mxCell>
                <mxCell id="32" value="" style="shape=image;verticalLabelPosition=bottom;verticalAlign=top;imageAspect=0;aspect=fixed;image=data:image/webp,UklGRiQgAABXRUJQVlA4WAoAAAAwAAAAfwAAfwAASUNDUEgMAAAAAAxITGlubwIQAABtbnRyUkdCIFhZWiAHzgACAAkABgAxAABhY3NwTVNGVAAAAABJRUMgc1JHQgAAAAAAAAAAAAAAAAAA9tYAAQAAAADTLUhQICAAAAAAAAAAAAAAAAAAAAAAAAAAAAAAAAAAAAAAAAAAAAAAAAAAAAAAAAAAAAAAABFjcHJ0AAABUAAAADNkZXNjAAABhAAAAGx3dHB0AAAB8AAAABRia3B0AAACBAAAABRyWFlaAAACGAAAABRnWFlaAAACLAAAABRiWFlaAAACQAAAABRkbW5kAAACVAAAAHBkbWRkAAACxAAAAIh2dWVkAAADTAAAAIZ2aWV3AAAD1AAAACRsdW1pAAAD+AAAABRtZWFzAAAEDAAAACR0ZWNoAAAEMAAAAAxyVFJDAAAEPAAACAxnVFJDAAAEPAAACAxiVFJDAAAEPAAACAx0ZXh0AAAAAENvcHlyaWdodCAoYykgMTk5OCBIZXdsZXR0LVBhY2thcmQgQ29tcGFueQAAZGVzYwAAAAAAAAASc1JHQiBJRUM2MTk2Ni0yLjEAAAAAAAAAAAAAABJzUkdCIElFQzYxOTY2LTIuMQAAAAAAAAAAAAAAAAAAAAAAAAAAAAAAAAAAAAAAAAAAAAAAAAAAAAAAAAAAAAAAAAAAWFlaIAAAAAAAAPNRAAEAAAABFsxYWVogAAAAAAAAAAAAAAAAAAAAAFhZWiAAAAAAAABvogAAOPUAAAOQWFlaIAAAAAAAAGKZAAC3hQAAGNpYWVogAAAAAAAAJKAAAA+EAAC2z2Rlc2MAAAAAAAAAFklFQyBodHRwOi8vd3d3LmllYy5jaAAAAAAAAAAAAAAAFklFQyBodHRwOi8vd3d3LmllYy5jaAAAAAAAAAAAAAAAAAAAAAAAAAAAAAAAAAAAAAAAAAAAAAAAAAAAAAAAAAAAAABkZXNjAAAAAAAAAC5JRUMgNjE5NjYtMi4xIERlZmF1bHQgUkdCIGNvbG91ciBzcGFjZSAtIHNSR0IAAAAAAAAAAAAAAC5JRUMgNjE5NjYtMi4xIERlZmF1bHQgUkdCIGNvbG91ciBzcGFjZSAtIHNSR0IAAAAAAAAAAAAAAAAAAAAAAAAAAAAAZGVzYwAAAAAAAAAsUmVmZXJlbmNlIFZpZXdpbmcgQ29uZGl0aW9uIGluIElFQzYxOTY2LTIuMQAAAAAAAAAAAAAALFJlZmVyZW5jZSBWaWV3aW5nIENvbmRpdGlvbiBpbiBJRUM2MTk2Ni0yLjEAAAAAAAAAAAAAAAAAAAAAAAAAAAAAAAAAAHZpZXcAAAAAABOk/gAUXy4AEM8UAAPtzAAEEwsAA1yeAAAAAVhZWiAAAAAAAEwJVgBQAAAAVx/nbWVhcwAAAAAAAAABAAAAAAAAAAAAAAAAAAAAAAAAAo8AAAACc2lnIAAAAABDUlQgY3VydgAAAAAAAAQAAAAABQAKAA8AFAAZAB4AIwAoAC0AMgA3ADsAQABFAEoATwBUAFkAXgBjAGgAbQByAHcAfACBAIYAiwCQAJUAmgCfAKQAqQCuALIAtwC8AMEAxgDLANAA1QDbAOAA5QDrAPAA9gD7AQEBBwENARMBGQEfASUBKwEyATgBPgFFAUwBUgFZAWABZwFuAXUBfAGDAYsBkgGaAaEBqQGxAbkBwQHJAdEB2QHhAekB8gH6AgMCDAIUAh0CJgIvAjgCQQJLAlQCXQJnAnECegKEAo4CmAKiAqwCtgLBAssC1QLgAusC9QMAAwsDFgMhAy0DOANDA08DWgNmA3IDfgOKA5YDogOuA7oDxwPTA+AD7AP5BAYEEwQgBC0EOwRIBFUEYwRxBH4EjASaBKgEtgTEBNME4QTwBP4FDQUcBSsFOgVJBVgFZwV3BYYFlgWmBbUFxQXVBeUF9gYGBhYGJwY3BkgGWQZqBnsGjAadBq8GwAbRBuMG9QcHBxkHKwc9B08HYQd0B4YHmQesB78H0gflB/gICwgfCDIIRghaCG4IggiWCKoIvgjSCOcI+wkQCSUJOglPCWQJeQmPCaQJugnPCeUJ+woRCicKPQpUCmoKgQqYCq4KxQrcCvMLCwsiCzkLUQtpC4ALmAuwC8gL4Qv5DBIMKgxDDFwMdQyODKcMwAzZDPMNDQ0mDUANWg10DY4NqQ3DDd4N+A4TDi4OSQ5kDn8Omw62DtIO7g8JDyUPQQ9eD3oPlg+zD88P7BAJECYQQxBhEH4QmxC5ENcQ9RETETERTxFtEYwRqhHJEegSBxImEkUSZBKEEqMSwxLjEwMTIxNDE2MTgxOkE8UT5RQGFCcUSRRqFIsUrRTOFPAVEhU0FVYVeBWbFb0V4BYDFiYWSRZsFo8WshbWFvoXHRdBF2UXiReuF9IX9xgbGEAYZRiKGK8Y1Rj6GSAZRRlrGZEZtxndGgQaKhpRGncanhrFGuwbFBs7G2MbihuyG9ocAhwqHFIcexyjHMwc9R0eHUcdcB2ZHcMd7B4WHkAeah6UHr4e6R8THz4faR+UH78f6iAVIEEgbCCYIMQg8CEcIUghdSGhIc4h+yInIlUigiKvIt0jCiM4I2YjlCPCI/AkHyRNJHwkqyTaJQklOCVoJZclxyX3JicmVyaHJrcm6CcYJ0kneierJ9woDSg/KHEooijUKQYpOClrKZ0p0CoCKjUqaCqbKs8rAis2K2krnSvRLAUsOSxuLKIs1y0MLUEtdi2rLeEuFi5MLoIuty7uLyQvWi+RL8cv/jA1MGwwpDDbMRIxSjGCMbox8jIqMmMymzLUMw0zRjN/M7gz8TQrNGU0njTYNRM1TTWHNcI1/TY3NnI2rjbpNyQ3YDecN9c4FDhQOIw4yDkFOUI5fzm8Ofk6Njp0OrI67zstO2s7qjvoPCc8ZTykPOM9Ij1hPaE94D4gPmA+oD7gPyE/YT+iP+JAI0BkQKZA50EpQWpBrEHuQjBCckK1QvdDOkN9Q8BEA0RHRIpEzkUSRVVFmkXeRiJGZ0arRvBHNUd7R8BIBUhLSJFI10kdSWNJqUnwSjdKfUrESwxLU0uaS+JMKkxyTLpNAk1KTZNN3E4lTm5Ot08AT0lPk0/dUCdQcVC7UQZRUFGbUeZSMVJ8UsdTE1NfU6pT9lRCVI9U21UoVXVVwlYPVlxWqVb3V0RXklfgWC9YfVjLWRpZaVm4WgdaVlqmWvVbRVuVW+VcNVyGXNZdJ114XcleGl5sXr1fD19hX7NgBWBXYKpg/GFPYaJh9WJJYpxi8GNDY5dj62RAZJRk6WU9ZZJl52Y9ZpJm6Gc9Z5Nn6Wg/aJZo7GlDaZpp8WpIap9q92tPa6dr/2xXbK9tCG1gbbluEm5rbsRvHm94b9FwK3CGcOBxOnGVcfByS3KmcwFzXXO4dBR0cHTMdSh1hXXhdj52m3b4d1Z3s3gReG54zHkqeYl553pGeqV7BHtje8J8IXyBfOF9QX2hfgF+Yn7CfyN/hH/lgEeAqIEKgWuBzYIwgpKC9INXg7qEHYSAhOOFR4Wrhg6GcobXhzuHn4gEiGmIzokziZmJ/opkisqLMIuWi/yMY4zKjTGNmI3/jmaOzo82j56QBpBukNaRP5GokhGSepLjk02TtpQglIqU9JVflcmWNJaflwqXdZfgmEyYuJkkmZCZ/JpomtWbQpuvnByciZz3nWSd0p5Anq6fHZ+Ln/qgaaDYoUehtqImopajBqN2o+akVqTHpTilqaYapoum/adup+CoUqjEqTepqaocqo+rAqt1q+msXKzQrUStuK4trqGvFq+LsACwdbDqsWCx1rJLssKzOLOutCW0nLUTtYq2AbZ5tvC3aLfguFm40blKucK6O7q1uy67p7whvJu9Fb2Pvgq+hL7/v3q/9cBwwOzBZ8Hjwl/C28NYw9TEUcTOxUvFyMZGxsPHQce/yD3IvMk6ybnKOMq3yzbLtsw1zLXNNc21zjbOts83z7jQOdC60TzRvtI/0sHTRNPG1EnUy9VO1dHWVdbY11zX4Nhk2OjZbNnx2nba+9uA3AXcit0Q3ZbeHN6i3ynfr+A24L3hROHM4lPi2+Nj4+vkc+T85YTmDeaW5x/nqegy6LzpRunQ6lvq5etw6/vshu0R7ZzuKO6070DvzPBY8OXxcvH/8ozzGfOn9DT0wvVQ9d72bfb794r4Gfio+Tj5x/pX+uf7d/wH/Jj9Kf26/kv+3P9t//9BTFBInAUAAAHwhW3b4eb//93Vy7Zt27Zt23693++XzaW3bdv2TFAG1aPaTGM2mGOhbTKZua/1iJgA5epzv7cxO9/7/hFK6EvaWd36y6kSXdJJ1f85XZiGG8Os7Dc9Hs8MK/9+hiCNt/QClP1DrLTC3az81zlCNF4bBqi0jVJlXxcr/dcK0HjrBoCif4wa+7ssAP+1mmu8dRNA0T+OjQNtFkDrtRpruW8AYNk/gc0DnRZA960Nemq5bwhg2TtLHYf8ZYCeWxv0s9l9wwAF7xx1HvKXAfrua9TLZo9NAWQ8Czhw0lsC6L+vSR+bPzYNkPEs4NBJbwlg/X1Netj6+RmAjGcRB095CgAjjzW7b5vn5wDSZgyHT3vyAKOPNbtrm+fnAVJmHBfOeHIAY89v7p5tX4kCRM0ELo2YOYCJ57dwx3avxACiZhIXR8wswOTzWzpv53fjAEtmCpdHzRTAwitbOmuXdxMAETOLBqNmEmDhla2cs+u7SYBFM4cmY2YCIPLuds7Y7dMswIwnj0bTZhwg8u729dvrq3mAyf8V0GymPQ6w9ObWdXo8ATBuFtFwpjUKMHZpXT4EGPOX0HTWjAClW+pwP5A3S2g86bOgeIJtO0UgF0bzHqC9wa5ngVa0bwJn2OWBIPrPzMHnbdpiGToFwISwTWdDpiDBAJS2tuczEEZCKw4X2PM7MEQgCK/ZMw1dMpjwZ1v2BysqQxAiDXbcAaPImKrAIXZ8CXxCMAz32dEFXil88A0btlyGQUF6bDgH0mUpRqC8XW2fhRBSWjG4qLbfgyEGAXijthkIyGHAX2s6AKyYHCFYaqjlThhBznQZDqvly+AThCG4v5YAeCXxwjdr2HIZhiTxQ28N50KqLMkoVLar7nMQQlIrCpdU9wcwRKEL3qpuDgKyGPD3qg4EKyZLGOKN1dwFI8iaLsMR1XwFfMIwAA9WEwSvNF74dhVbFmFIGj/0V3EeJCvSjENl+7VegSDSWktw6Vp/BEMcuuDtteYgKI8B/1jjILDi8nRDvHG1u2EYeTMlOHK1r4JXIDbBw6uFhPLAd1fZqgTDEvlh/SrnQ6Ii0ThYO654FQKIvAiXr/gTGDJ1wrsr5iEokwH/UkodDJW4TD2QbFTqHhhE5mwJjlbqa+AVio3wiFJhwTzwPbV1CYal8sMGdQEkKlJNgrXTaxBA7AW44k9gyBWE94bAI5cPfpUHUy4v+OJgyBWC//RCn1jZDHzv81AZksoP3HGcBR1CZWYgvrX6BeCVyQs8rdQuk5BfL1EbYDYppU4rwExUnoEszO2lVj4JhMrSxCegeK5a/fuAIYzVATyr1twiBFaHLAbwC1XlAUsQn5AkVIaN21ajrqnAQFaOmSikjlTVfwD4xShsAOsWVWPjPwCPFF7gU1XzTqNQ6JHBD/y/uTZ1Qg5mliQYyMHcnsrOx4BQWX/xSSieo+z9HmBorxIAnlY2bxEEq113BvBzZfv+EUiM6C1Uhr6t7VOXlmEwq7PpKKSOUPV8F2jVWH4DWDerujb+HfDoywd8rOq84wgUe3XlBf7fVC91fA5m5/W0KQdTu6r63wt0l3QUm4Ti2cqJ3wEMDVUCwJPKkZsHwGrTjwH8TDl0vwikR3TTVYG+rZyiLi7DYFov01FIHaGc+zbQqpX8BrBuUg5u+ANg6sQHfKgcveMwFHv14QH+1+QsdVwWFhZ0sa4Ak7sqp98NhIt6iE1C8Szl/G8ChhYqAeBx5cKWVrDadGAAP1Wu3HcRMsPu66pA71buUBeVYTTltqkoxA9Wbn0D8Fnuym8E60bl2obfAaa7fMD7ysU7DEEx7CYT+Fejm9TxWcj0usdrwfguyt33AkUj7Y7ZVqBwqnL7VwGyrYa/zdH/+49hhMoAjyjXN/0EV7+uNNj0Wt49C7crPe7/djDmAmvm/0/toJwIVlA4IBIOAAAwPgCdASqAAIAAPjEUiUMiISEUyN58IAMEtgBmotC/mevKv50j8l/597w1ffkH8R/I/7q/5fp1TT+mvuj+z/uv48fRH+7f0n2I/nf2Cf0o/yHUA8wH83/sH7D+7x/cf8p/L/cP+vX6c/275AP6V/kOsf9AD+I/2H0tP2Z/+PyVfsl+5fwJ/zz/Bf97rAP/v1h/TX+Ydo386/Ij9t+2j8XevPmq+NXpDxL/XH7Z/Xv3I/sn7c/Bf+H8FfhLqBfhX8d/vv5gflzx7ea+YF7B/WP839vnOx9VfYA/Vr/X+rP/A8EXjd9oH2Afyb+t/5/7ovpa/hP+h/jvyy9pv5t/df+B/kvgE/l39P/3v979nT11fsX/9PdC/Xhwbtwfc4vkNKOJpfnujH+HnFZXkub9TcY/39DcEWgD1tn2Rwff6vl4ciZG2oSAq6W+ft05qlzyhIRYVD1ZfK3fznbO4VS+iwXNZbkTcazKFwl4qnBd2mvr38CZz5cyMrAj2pP8ESvWreHCkr5KD6pjKugWYgRNeiSWK/g2+toDYdyBILOJVxIgh98Ck9T6bZMzS1qOWgaMyg6m5al9mnPPaf5N95Skb334QUonoHnSRjAQGUSX4vcneY9LD4PvcmR9NFagWr9Exow0QBRLhWxu5kNZMrHTVTihRWzyiGmy4rPS3AD+/2Aad//m4Bp//bt6icg7RK3Vm693ntHOBrLY5h7hDW0sC9cGxEibW3Y57+yJf30XbJWTcCQSwZvpsnuFVtR6wLmhadWd8IcPcIx1FuVxhBE1Nl3Sf3mO8GXt08KDvdZ2WimFZ1YHFqi2ncVvb4ZkmtJ7+VzcCQTObwwSQV9Ty0An1RvXPyTE6MmeEZAF0DAGQnk4jwp8rxuWtARNXzqzOKh9nOsH7MhRmdEVqwNjaE2pB/hdygjuhByXn8SEJ0xiX/TG1V0rukC9TevhDijAiNCct5JQYXKcrpwWHe1o/xS8TwqykDXljwVfq9/Ae2reZWmHeV48v3BdiX+IYl2OEsLUH5Cf/w/swTyX/t3whFtx3fQ2NThwcew7cGFqsQYHV7kGZQGBnAtHrvRaEAWcvs0/YDSxJ0nhDh32DvMLqAAN+MCwsGZeyabet37Zvbwhi//cRmKnx6OMyLhglETc03wUh6K32k9dbprB8EEoOqwlEhF25Wgtqi6rMD7rlXYSw43RlSxen9n67IR1hU+RSRqelvojBqU6yvM+Khsd7OMZaczmQ14EAQMSIQla/SPD+FETYZg5syoTJ3b15sYe7rjCpVKfDFbEeERYT+QYtIQ98Jn7skVmtV9NvPy4i1bCNmuCvfKiElf0Ui34M+HIMdf8JZrViit9ajMAACTkGfJi/hweE50ScNbM8jhYarhwq7FTf9uY+6CiObtA2rxR9CO8/xRsHkxyaXfUqwGrhl22b7ijVsDN1oIALyGD7Z//bwZ7X+PabkyfuLCsy8tVhPpICAD/de/TeZ0QqqJrhn7OkdcIvyVB7PzFQdFPYoJg0AxHvXOr7hnQCxsuMpBwM6nEo5ICbrBtv/d7RTq2r6daMvFzqtie745zIDfrYgjwdSpKE8ipgXz5Cgg//4OHob85rdh4QE8vajJoshtPiSk7LH897lF1ENfC+yPXc3JWqrfcMcYTqvsChDmjzEyEmH9qOx5ZOHOX1J9jn2BGwt6CmlxM62nLngHnyx3jrOUZPP2Hnw07Vj1mI+ZCrZvk1aDLydIReYvwAZzk5/FIyRT7w+MwH/seBw94ONNgc8Qtxhf8IlzuKjtKzVoShRAIbA9288rhyabhPqJDH5HUhqRJDiMF/6dzXQaUSTKtMM3zz6yoOCYA9oJRQxEM2QNE1KJnzDUP5tkodrfztKbzqmoN92qrx7oWr+xRIITbffuJljDHX85RRe6jWXXI6EExTyfWJPuo21oT/aNghALGfzPlMlLh94nRB8jsmAPCy2sf3oMgVN1cgbqEkqeV/ZEgLLOa6oHBM7h2OJh/8ISReC7nhSRKcYbZDjO2gNifFV79d6gsofc14O+JupbGIvGqZD946vZPeZwjfof1mWTrTYW2ZbfKQKdXO30AeX/mW+MUpHjpQNqQAISqS3WC1MYL76u9stKdCOZJBf2/PzwTD4heGONxi2nhn9MwusCVahLxeAqWvvOGGOeMEbtUh2fuFsUhEjWMLc6KI3MdUh5ks3v4bVPCDpYVyRUWXrI2SZKADzQwVsnnxmFY9MM6QHKiY90s7RrYCGj4Lqn67V6S4yV0CcZvBxv3kU3ehyd4B7XEAMEsdrjb4ZjQJIiC2doNT/Cflzw7zVv9sBgnrIDwP+dmN7lqoSJkIM7xrwCSWys06JeHEJ2ciUv9FHN/f4mN1etxNGSpJ80BC8OdWUwuUT8m0W18CH/rzeH5F2SOprYmJnK4uQwWQikdSKFRTgq3/kM2Ye6AVh0f+ap+4pqpTvyviskGT9EEYvEk6D6Vibl9XX5HPlhOatHTOxFMW3Iw2gyUMiHk2L+Rqqylr+K8P5MzYrSDWkafdkU3uPO6di5SvnEKvuT1xyjpCSJmQbb2JQ5Ko9Xwloddp/kpF4ECqMiugCBj2sviFAXuDyoEl38dk2bDTEgCSvU3Nkyz/o3w52/iq8SpvxX3MZZBfF4JaQPB2njhU89AKKXSxBCOwlCwJOPQRQzAHarx6txJZInSz8MYklUi7vCpJuZb/Mq8+BPBpoekAOk8whygMSdx4hon5NHd2rCYrygqef7jHb4mITtm8AZqadDNEqcpr8Cxu3g+r8lT3s9BQ8foQBVDuneyIc5vaky/xWdxbpLSGHsp0JRXGJaeo43JEBqfXeV4McUwhFqICspkseeStdaq461LxfbxycK4s5+HlPF6YeIK5lOLAwNoay6luZMEwLTsDZBs+b9Ojtdct/SGIE0OcsRl01foqe9BNUyKvaimqkpgglSExNHj/5ijvwVWR0VVSfgfQSql2EZOpBRU8q7i7w6dViKJLZ6qt8U2CZRUidrjGaQuyoyzVcZ3pp5PyZTn6GXBEomspZIlB7o7JRJ3dUrWH7gCWYJ5dKLS/M8XOAEPJkpyhNQV9J9e1ni56QQXxQlUVMZdxtpe7jo35DiFlLZ49MQUulvIvR/7EscI5BpFkbWVburdfKFhj9fOfI8wzYJl9lsYhvHOR7T4AziuzSo/MAZd6rOxcrmcVTsWOCjwEHoljOKG33akt9WdhaAngQqN6ss9oFva2jyScZhnXD1RlXEW8gKHyObW+5kaAIT55lMloE7VA6fYFmacHsbeeBMp40gvkc0KI7Zxs0I1xayJP1jj8Ijbu1h1an2kCA9M9Bnsz9/4sMquFFD10y65zkVaaAssf+3nSRNtfWLTBvOUU2M5RSJo+WapelGB+sXWrEmnAXTBXL5YozOk8IjaAXLdE9IkoH5OMZN+FfN0Cx3Sg25qBFvWWBxQrEugTdVIiR4iDHIbW2fM80x423vrKnXV8WFVPSzRgvNo6gfclKtLcg5D6YcufUWYvh0pn//icIb+0PXMw7lcT1auA1oAH6/gH36u9h9+Lr396GMQZVxahJk7uaIoMwj4trvWjlFBfbrCYQbUAD8RqpEn7ofXk23UGAZ5nersKxbHzVt+HPSPUg2rJ03CW2QwHi8+7PYwzHVYfksCsy+LX+TcGdG7O4ITAmHg0hS6zWTBI9itrl83y1ukUovMINnREA/3H5QqO514521x6aBxfMjKmRBb///WhAEzej5EH/6pC5ZrrHQU/Dae7NGDktLg+qH+153phVUsv+tKJEZrAZ//DMC/eju+KzxsIkGwlLoTSap5lqx5JTlv4OdwXfm4wRa5WOFXv/nW45CLkplh8cFrl83XkiTRaJor+tbs7X4lCBk9yZBAvTbZypOGIj4eKzw0o3E/A3A/2mCH/hPkFuJSbzfsaq6tp57cU6xTvbJvtizxt2L0Z0SuJZwM/wl7BznYeL267/b/2uuvoCHu8oQtB1IJ4sb7b1scxLYProUqc/FKDtNB68jn51jAsc2Nq4PlfQXVnQQcxTED9HlMEljRhAkLAY+//M0EuTeG8H+/ERoEihcrs764CgDOH1AI/CGvvK9bwGxIFT8f6/eD3WDec3Xb2zkmaZlemqKANclaD3EwU44gqepW1IQvFylGbaNB+jJfCO4ZbQhNVi6383bnn425GHh2yJmVUFz2YRwnYCMf8S4dD26UFW9VkyyGjUZ9pnpiATRUYyEX24+7CS6MJntkrN8iOknRV3o90JhaUs6dQrltZGaXjJmsIET3calvO59zovZzpMtlKa3Sl5MOt6KAuDvgNtyYcrfKN5JetGB0Sbx87zjzLu2C1yGXHwn0QcLgfJIBDPwFyE07YXnu+6ntU5OiesfIXrm377z4EATXZ3zInP1l1EFkmbkoDreRZ+SdXc39d7kwwEf98CZR0mm+SAlzWPXRCjvKETQ40lmSnCn2+KUBz2PChgRiVzbOMisU5noVmNXgs5u6uJwQPKWxUwxQMstDG029+/P78KbtPC11Uh04UQOSiLnf/x9rf7v9SAaBZU6l/2eu2+VOvSyIcZirU/246ZVf6OfZO5tiqY/EDyph7nqIhg54Gza3OQOAMIsDGeOhw6qDbF7hXwqFD/QK3fboeRaDgfrO1TfSjDl6qBtoqnZZvwVqxxIYPrWryCVm6EvYjSNCzX6YINlf5HcDysb38FnN3aDxR8r7BzWvyZ6IMiN2nUd09Erz/eba4ss1Nkz1OQjdwnu0aO8IkWWr4sa7Bapqd47LdqeWJHKHT4bbAVd6F1z+niB8E7sAte7QAAAAAA==" vertex="1" parent="1">
                    <mxGeometry x="569" y="417" width="50" height="50" as="geometry"/>
                </mxCell>
                <mxCell id="38" value="" style="curved=1;endArrow=classic;html=1;strokeWidth=2;exitX=0.5;exitY=1;exitDx=0;exitDy=0;entryX=0.5;entryY=1;entryDx=0;entryDy=0;" edge="1" parent="1" source="19" target="32">
                    <mxGeometry width="50" height="50" relative="1" as="geometry">
                        <mxPoint x="368" y="543" as="sourcePoint"/>
                        <mxPoint x="418" y="493" as="targetPoint"/>
                        <Array as="points">
                            <mxPoint x="326" y="537"/>
                            <mxPoint x="419" y="549"/>
                            <mxPoint x="467" y="554"/>
                            <mxPoint x="509" y="549"/>
                            <mxPoint x="565" y="531"/>
                        </Array>
                    </mxGeometry>
                </mxCell>
            </root>
        </mxGraphModel>
    </diagram>
</mxfile>